%
T1C.01575F095S3
X004488Y006161
X004882Y004508
X00498Y007224
X006004Y007106
X006142Y004528
X007598Y006102
X008169Y006555
X008484Y006634
X009016Y007106
X009272Y005906
X009331Y007323
X009764Y004843
X009803Y005748
X01Y006693
X01189Y004803
X011909Y005748
X013366Y002756
X013622Y005374
X013898Y006732
X013976Y005394
X014252Y006791
X014311Y005394
X014665Y005374
X015177Y006811
X015906Y00565
X016181Y005394
X016673Y005787
X016949Y006142
X015709Y008307
X014311Y008839
X013878Y008051
X013819Y007717
X01376Y009665
X013346Y008681
X011142Y007854
X009764Y007992
X009705Y007677
X009331Y007697
X008189Y008248
X008189Y009311
X007874Y008189
X006949Y008287
X00689Y009783
X006319Y008583
X00622Y009921
X005669Y008819
X005217Y007618
X004232Y007559
X001988Y009449
X00311Y012343
X003465Y011909
X00437Y011358
X00439Y010591
X00439Y010965
X004961Y01189
X00624Y010965
X007264Y010945
X008228Y010925
X009567Y012047
X009862Y01185
X010433Y01187
X010433Y012421
X010472Y010866
X010472Y011516
X012657Y010335
X01378Y011437
X013799Y011102
X013819Y010689
X013917Y012539
X015925Y011161
X016201Y010945
X016654Y010197
X017283Y010197
X016909Y014134
X016634Y012972
X014252Y014665
X013937Y012894
X012894Y01374
X012677Y013327
X012205Y013445
X011201Y01435
X010886Y01376
X010394Y012795
X010315Y013327
X010118Y013051
X009016Y013583
X008524Y012815
X008209Y013268
X007894Y012815
X006732Y014449
X002795Y012657
X002638Y012953
T2C.02362F197S55
X003248Y006654
X003248Y007154
X004035Y007126
X007244Y006752
X010039Y00626
X012146Y007165
X016181Y007185
X016681Y007185
X017343Y006673
X016681Y007685
X016681Y008185
X016681Y008685
X016681Y009185
X016681Y009685
X016181Y009685
X016181Y009185
X016181Y008685
X016181Y008185
X016181Y007685
X010551Y009075
X008681Y009646
X003248Y008154
X003248Y007654
X003772Y014445
X003772Y013445
X003772Y013945
X004272Y014445
X004272Y013445
X004272Y013945
X005256Y012874
X00752Y012972
X008701Y013917
X013858Y012087
X014665Y012815
X015571Y011909
X016791Y011811
X016969Y013346
X014665Y015925
X010177Y015669
T3C.02756F197S55
X005709Y016043G85X005984Y016043
X005709Y013406G85X005984Y013406
T4C.03543F197S55
X004094Y003937
X008445Y005354
X015906Y003937
X015906Y016063
X004094Y016063
T5C.03937F197S55
X007795Y002579
X008795Y002579
X010197Y002559
X011197Y002559
X012136Y011762
X009567Y0175
X008567Y0175
M30
