*
*
G04 PADS 9.3 Build Number: 433611 generated Gerber (RS-274-X) file*
G04 PC Version=2.1*
*
%IN "LDC_Layout_20161209.pcb"*%
*
%MOIN*%
*
%FSLAX35Y35*%
*
*
*
*
G04 PC Standard Apertures*
*
*
G04 Thermal Relief Aperture macro.*
%AMTER*
1,1,$1,0,0*
1,0,$1-$2,0,0*
21,0,$3,$4,0,0,45*
21,0,$3,$4,0,0,135*
%
*
*
G04 Annular Aperture macro.*
%AMANN*
1,1,$1,0,0*
1,0,$2,0,0*
%
*
*
G04 Odd Aperture macro.*
%AMODD*
1,1,$1,0,0*
1,0,$1-0.005,0,0*
%
*
*
G04 PC Custom Aperture Macros*
*
*
*
*
*
*
G04 PC Aperture Table*
*
%ADD010C,0.001*%
%ADD012R,0.05903X0.01967*%
%ADD013R,0.01967X0.05903*%
%ADD014R,0.05709X0.01378*%
%ADD015R,0.11811X0.21654*%
%ADD016R,0.00984X0.02362*%
%ADD017R,0.11811X0.10236*%
%ADD018R,0.0689X0.10433*%
%ADD019R,0.05118X0.04134*%
%ADD020R,0.04134X0.05118*%
%ADD021R,0.0551X0.04723*%
%ADD022R,0.0551X0.13777*%
%ADD023R,0.177X0.069*%
%ADD024O,0.07874X0.05118*%
%ADD025C,0.06*%
%ADD026R,0.02992X0.05*%
%ADD027R,0.0374X0.04921*%
%ADD028R,0.03937X0.03937*%
%ADD029C,0.03937*%
%ADD030R,0.06297X0.06297*%
%ADD031C,0.06297*%
%ADD032R,0.026X0.059*%
%ADD033R,0.02X0.059*%
%ADD041C,0.00394*%
*
*
*
*
G04 PC Circuitry*
G04 Layer Name LDC_Layout_20161209.pcb - circuitry*
%LPD*%
*
*
G04 PC Custom Flashes*
G04 Layer Name LDC_Layout_20161209.pcb - flashes*
%LPD*%
*
*
G04 PC Circuitry*
G04 Layer Name LDC_Layout_20161209.pcb - circuitry*
%LPD*%
*
G54D10*
G54D12*
G01X343079Y409088D03*
X343117Y405940D03*
X343079Y402792D03*
Y399642D03*
Y396492D03*
Y393343D03*
Y390152D03*
Y387043D03*
Y383895D03*
Y380745D03*
Y377557D03*
X389335D03*
Y380705D03*
Y383855D03*
Y387005D03*
Y390152D03*
Y393303D03*
Y396452D03*
Y399602D03*
Y402752D03*
Y405902D03*
Y409050D03*
G54D13*
X350479Y370193D03*
X353627D03*
X356777D03*
X360005D03*
X363075D03*
X366225D03*
X369375D03*
X372524D03*
X375674D03*
X378824D03*
X381974D03*
X381985Y416430D03*
X378832D03*
X375684D03*
X372535D03*
X369387D03*
X366235D03*
X363087D03*
X359939D03*
X356789D03*
X353637D03*
X350489D03*
G54D14*
X403937Y427953D03*
Y425394D03*
Y422835D03*
Y420276D03*
Y417717D03*
Y415157D03*
Y412598D03*
Y410039D03*
Y407480D03*
Y404921D03*
Y402362D03*
Y399803D03*
Y397244D03*
Y394685D03*
X426181D03*
Y397244D03*
Y399803D03*
Y402362D03*
Y404921D03*
Y407480D03*
Y410039D03*
Y412598D03*
Y415157D03*
Y417717D03*
Y420276D03*
Y422835D03*
Y425394D03*
Y427953D03*
G54D15*
X415059Y411319D03*
G54D16*
X383071Y354724D03*
X381102D03*
X379134D03*
X377165D03*
X375197D03*
X373228D03*
Y339764D03*
X375197D03*
X377165D03*
X379134D03*
X381102D03*
X383071D03*
G54D17*
X378150Y347244D03*
G54D18*
X406693Y468110D03*
Y451181D03*
G54D19*
X366339Y445374D03*
Y454626D03*
X421457Y452854D03*
Y462106D03*
X441929Y394390D03*
Y385138D03*
X455709Y439272D03*
Y430020D03*
X446457Y439272D03*
Y430020D03*
X437402Y367815D03*
Y377067D03*
X422835Y444980D03*
Y435728D03*
X431890Y444980D03*
Y435728D03*
X445472Y367815D03*
Y377067D03*
X404134Y379429D03*
Y388681D03*
X366142Y438091D03*
Y428839D03*
X430315Y462106D03*
Y452854D03*
G54D20*
X401280Y437205D03*
X410531D03*
X408169Y359843D03*
X398917D03*
X351476Y359646D03*
X360728D03*
X318406Y388189D03*
X327657D03*
X351476Y346850D03*
X360728D03*
X415453Y359843D03*
X424705D03*
X408169Y350591D03*
X398917D03*
X407972Y341732D03*
X398720D03*
X379035Y329724D03*
X369783D03*
X402854D03*
X393602D03*
X343406Y346850D03*
X334154D03*
X343406Y359646D03*
X334154D03*
G54D21*
X467717Y402559D03*
Y411612D03*
Y420667D03*
G54D22*
X443308Y411612D03*
G54D23*
X419291Y387303D03*
Y374508D03*
G54D24*
X352165Y454134D03*
Y427756D03*
G54D25*
X334646Y333071D03*
X452756Y454331D03*
Y333071D03*
X334646Y454331D03*
G54D26*
X416732Y351181D03*
Y321260D03*
X421732Y351181D03*
Y321260D03*
G54D27*
X388583Y457677D03*
X380709D03*
Y438976D03*
X388583D03*
G54D28*
X326181Y360236D03*
X336417Y428150D03*
X455512Y390551D03*
G54D29*
X326181Y365236D03*
Y370236D03*
Y375236D03*
X331417Y428150D03*
X336417Y433150D03*
X331417D03*
X336417Y438150D03*
X331417D03*
X455512Y385551D03*
Y380551D03*
Y375551D03*
Y370551D03*
Y365551D03*
X460512D03*
Y370551D03*
Y375551D03*
Y380551D03*
Y385551D03*
Y390551D03*
G54D30*
X389370Y468701D03*
X371654Y319488D03*
X395669Y319291D03*
G54D31*
X379370Y468701D03*
X381654Y319488D03*
X405669Y319291D03*
G54D32*
X328348Y406269D03*
X318108D03*
Y397669D03*
X328348D03*
X440159Y341308D03*
X429919D03*
Y332708D03*
X440159D03*
G54D33*
X324798Y406269D03*
X321658D03*
Y397669D03*
X324798D03*
X436609Y341308D03*
X433469D03*
Y332708D03*
X436609D03*
G54D41*
X478346Y393701D02*
G75*
G03X478346I-84645J0D01*
G74*
G01X0Y0D02*
M02*
