*
*
G04 PADS 9.3 Build Number: 433611 generated Gerber (RS-274-X) file*
G04 PC Version=2.1*
*
%IN "LDC_HW_REV002_Simple2.p"*%
*
%MOIN*%
*
%FSLAX35Y35*%
*
*
*
*
G04 PC Standard Apertures*
*
*
G04 Thermal Relief Aperture macro.*
%AMTER*
1,1,$1,0,0*
1,0,$1-$2,0,0*
21,0,$3,$4,0,0,45*
21,0,$3,$4,0,0,135*
%
*
*
G04 Annular Aperture macro.*
%AMANN*
1,1,$1,0,0*
1,0,$2,0,0*
%
*
*
G04 Odd Aperture macro.*
%AMODD*
1,1,$1,0,0*
1,0,$1-0.005,0,0*
%
*
*
G04 PC Custom Aperture Macros*
*
*
*
*
*
*
G04 PC Aperture Table*
*
%ADD010C,0.001*%
%ADD034C,0.01*%
%ADD038C,0.00394*%
*
*
*
*
G04 PC Circuitry*
G04 Layer Name LDC_HW_REV002_Simple2.p - circuitry*
%LPD*%
*
*
G04 PC Custom Flashes*
G04 Layer Name LDC_HW_REV002_Simple2.p - flashes*
%LPD*%
*
*
G04 PC Circuitry*
G04 Layer Name LDC_HW_REV002_Simple2.p - circuitry*
%LPD*%
*
G54D10*
G54D34*
G01X376315Y344228D02*
X384315Y352228D01*
X376315D02*
X384315Y344228D01*
X379071D02*
X387071Y352228D01*
X379071D02*
X387071Y344228D01*
X380315Y349606D02*
G75*
G03Y346850I-0J-1378D01*
G01X383071*
G03Y349606I-0J1378*
G01X380315*
X376315Y317850D02*
X384315Y325850D01*
X376315D02*
X384315Y317850D01*
X379071D02*
X387071Y325850D01*
X379071D02*
X387071Y317850D01*
X380315Y323228D02*
G03Y320472I-0J-1378D01*
G01X383071*
G03Y323228I-0J1378*
G01X380315*
X395803Y465094D02*
X403803D01*
X395803Y473094*
X403803*
X395803Y465094*
X405803D02*
X413803D01*
X405803Y473094*
X413803*
X405803Y465094*
X438126Y343638D02*
X446126D01*
Y351638*
X438126*
Y343638*
X442126Y347638D02*
Y351638D01*
X433126Y343638D02*
X441126D01*
Y351638*
X433126*
Y343638*
X437126Y347638D02*
Y351638D01*
X428126Y343638D02*
X436126D01*
Y351638*
X428126*
Y343638*
X432126Y347638D02*
Y351638D01*
X423126Y343638D02*
X431126D01*
Y351638*
X423126*
Y343638*
X427126Y347638D02*
Y351638D01*
X329661Y404035D02*
X337661D01*
X333661Y400035D02*
Y408035D01*
X335661Y409317D02*
Y406035D01*
Y409317D02*
X336684D01*
X337025Y409160*
X337139Y409004*
X337252Y408692*
Y408379*
X337139Y408067*
X337025Y407910*
X336684Y407754*
X335661D02*
X336684D01*
X337025Y407598*
X337139Y407442*
X337252Y407129*
Y406660*
X337139Y406348*
X337025Y406192*
X336684Y406035*
X335661*
X433402Y386354D02*
X441402Y394354D01*
Y386354*
X433402Y394354*
Y386354*
X459780Y362535D02*
X467780D01*
X459780Y370535*
X467780*
X459780Y362535*
Y372535D02*
X467780D01*
X459780Y380535*
X467780*
X459780Y372535*
X460173Y415291D02*
X468173D01*
X460173Y423291*
X468173*
X460173Y415291*
Y405291D02*
X468173D01*
X460173Y413291*
X468173*
X460173Y405291*
X392260Y343441D02*
X400260D01*
Y351441*
X392260*
Y343441*
X396260Y347441D02*
Y351441D01*
X392260Y338441D02*
X400260D01*
Y346441*
X392260*
Y338441*
X396260Y342441D02*
Y346441D01*
X392260Y333441D02*
X400260D01*
Y341441*
X392260*
Y333441*
X396260Y337441D02*
Y341441D01*
X392260Y328441D02*
X400260D01*
Y336441*
X392260*
Y328441*
X396260Y332441D02*
Y336441D01*
X392260Y323441D02*
X400260D01*
Y331441*
X392260*
Y323441*
X396260Y327441D02*
Y331441D01*
X392260Y318441D02*
X400260D01*
Y326441*
X392260*
Y318441*
X396260Y322441D02*
Y326441D01*
X397260Y318441D02*
X405260D01*
Y326441*
X397260*
Y318441*
X401260Y322441D02*
Y326441D01*
X397260Y323441D02*
X405260D01*
Y331441*
X397260*
Y323441*
X401260Y327441D02*
Y331441D01*
X397260Y328441D02*
X405260D01*
Y336441*
X397260*
Y328441*
X401260Y332441D02*
Y336441D01*
X397260Y333441D02*
X405260D01*
Y341441*
X397260*
Y333441*
X401260Y337441D02*
Y341441D01*
X397260Y338441D02*
X405260D01*
Y346441*
X397260*
Y338441*
X401260Y342441D02*
Y346441D01*
X397260Y343441D02*
X405260D01*
Y351441*
X397260*
Y343441*
X401260Y347441D02*
Y351441D01*
X334646Y450331D02*
X338646Y454331D01*
X334646Y458331*
X330646Y454331*
X334646Y450331*
Y454331D02*
Y458331D01*
Y329071D02*
X338646Y333071D01*
X334646Y337071*
X330646Y333071*
X334646Y329071*
Y333071D02*
Y337071D01*
X452756Y450331D02*
X456756Y454331D01*
X452756Y458331*
X448756Y454331*
X452756Y450331*
Y454331D02*
Y458331D01*
Y329071D02*
X456756Y333071D01*
X452756Y337071*
X448756Y333071*
X452756Y329071*
Y333071D02*
Y337071D01*
X459189Y393504D02*
X467189D01*
X463189Y389504D02*
Y397504D01*
X466098Y398785D02*
X465189Y395504D01*
X466098Y398785D02*
X467007Y395504D01*
X465530Y396598D02*
X466666D01*
X326512Y359386D02*
X334512D01*
X326512Y367386*
X334512*
X326512Y359386*
X336512D02*
X344512D01*
X336512Y367386*
X344512*
X336512Y359386*
X423953Y452496D02*
X431953D01*
Y460496*
X423953*
Y452496*
X427953Y456496D02*
Y460496D01*
X428953Y452496D02*
X436953D01*
Y460496*
X428953*
Y452496*
X432953Y456496D02*
Y460496D01*
X433953Y452496D02*
X441953D01*
Y460496*
X433953*
Y452496*
X437953Y456496D02*
Y460496D01*
X363189Y440488D02*
X367189Y444488D01*
X363189Y448488*
X359189Y444488*
X363189Y440488*
Y444488D02*
Y448488D01*
Y450331D02*
X367189Y454331D01*
X363189Y458331*
X359189Y454331*
X363189Y450331*
Y454331D02*
Y458331D01*
Y460173D02*
X367189Y464173D01*
X363189Y468173*
X359189Y464173*
X363189Y460173*
Y464173D02*
Y468173D01*
X444819Y355252D02*
X452819D01*
Y363252*
X444819*
Y355252*
X448819Y359252D02*
Y363252D01*
X439819Y355252D02*
X447819D01*
Y363252*
X439819*
Y355252*
X443819Y359252D02*
Y363252D01*
X434819Y355252D02*
X442819D01*
Y363252*
X434819*
Y355252*
X438819Y359252D02*
Y363252D01*
X429819Y355252D02*
X437819D01*
Y363252*
X429819*
Y355252*
X433819Y359252D02*
Y363252D01*
X443898Y442063D02*
X447898Y446063D01*
X443898Y450063*
X439898Y446063*
X443898Y442063*
Y446063D02*
Y450063D01*
X433898Y442063D02*
X437898Y446063D01*
X433898Y450063*
X429898Y446063*
X433898Y442063*
Y446063D02*
Y450063D01*
X423898Y442063D02*
X427898Y446063D01*
X423898Y450063*
X419898Y446063*
X423898Y442063*
Y446063D02*
Y450063D01*
X388126Y317323D02*
X396126D01*
X392126Y313323D02*
Y321323D01*
X412142Y323622D02*
X420142D01*
X416142Y319622D02*
Y327622D01*
X412142Y327559D02*
X420142D01*
X416142Y323559D02*
Y331559D01*
X366079Y333858D02*
X374079D01*
X370079Y329858D02*
Y337858D01*
X411748Y332283D02*
X419748D01*
X415748Y328283D02*
Y336283D01*
X411748Y336220D02*
X419748D01*
X415748Y332220D02*
Y340220D01*
X414110Y353543D02*
X422110D01*
X418110Y349543D02*
Y357543D01*
X350331Y361024D02*
X358331D01*
X354331Y357024D02*
Y365024D01*
X355449Y361024D02*
X363449D01*
X359449Y357024D02*
Y365024D01*
X363717Y365354D02*
X371717D01*
X367717Y361354D02*
Y369354D01*
X370016Y365354D02*
X378016D01*
X374016Y361354D02*
Y369354D01*
X386945Y366535D02*
X394945D01*
X390945Y362535D02*
Y370535D01*
X395606Y361024D02*
X403606D01*
X399606Y357024D02*
Y365024D01*
X390882Y364173D02*
X398882D01*
X394882Y360173D02*
Y368173D01*
X415291Y366535D02*
X423291D01*
X419291Y362535D02*
Y370535D01*
X416079Y362992D02*
X424079D01*
X420079Y358992D02*
Y366992D01*
X423559Y361417D02*
X431559D01*
X427559Y357417D02*
Y365417D01*
X450331Y365354D02*
X458331D01*
X454331Y361354D02*
Y369354D01*
X312535Y374409D02*
X320535D01*
X316535Y370409D02*
Y378409D01*
X355843Y377953D02*
X363843D01*
X359843Y373953D02*
Y381953D01*
X362929Y372835D02*
X370929D01*
X366929Y368835D02*
Y376835D01*
X392850Y376772D02*
X400850D01*
X396850Y372772D02*
Y380772D01*
X414110Y374409D02*
X422110D01*
X418110Y370409D02*
Y378409D01*
X424740Y376378D02*
X432740D01*
X428740Y372378D02*
Y380378D01*
X312535Y382677D02*
X320535D01*
X316535Y378677D02*
Y386677D01*
X333008Y378677D02*
X341008D01*
Y386677*
X333008*
Y378677*
X337008Y382677D02*
Y386677D01*
X351906Y387008D02*
X359906D01*
X355906Y383008D02*
Y391008D01*
X362142Y382677D02*
X370142D01*
X366142Y378677D02*
Y386677D01*
X359386Y387008D02*
X367386D01*
X363386Y383008D02*
Y391008D01*
X372772Y380709D02*
X380772D01*
X376772Y376709D02*
Y384709D01*
X420409Y384646D02*
X428409D01*
X424409Y380646D02*
Y388646D01*
X425921Y379528D02*
X433921D01*
X429921Y375528D02*
Y383528D01*
X423559Y381890D02*
X431559D01*
X427559Y377890D02*
Y385890D01*
X433795Y379528D02*
X441795D01*
X437795Y375528D02*
Y383528D01*
X446394Y384252D02*
X454394D01*
X450394Y380252D02*
Y388252D01*
X310173Y397638D02*
X318173D01*
X314173Y393638D02*
Y401638D01*
X312535Y394488D02*
X320535D01*
X316535Y390488D02*
Y398488D01*
X347575Y398819D02*
X355575D01*
X351575Y394819D02*
Y402819D01*
X352693Y395669D02*
X360693D01*
X356693Y391669D02*
Y399669D01*
X350724Y391732D02*
X358724D01*
X354724Y387732D02*
Y395732D01*
X347969Y394882D02*
X355969D01*
X351969Y390882D02*
Y398882D01*
X362142Y389764D02*
X370142D01*
X366142Y385764D02*
Y393764D01*
X421984Y393701D02*
X429984D01*
X425984Y389701D02*
Y397701D01*
X420409Y390551D02*
X428409D01*
X424409Y386551D02*
Y394551D01*
X446394Y392520D02*
X454394D01*
X450394Y388520D02*
Y396520D01*
X312929Y407874D02*
X320929D01*
X316929Y403874D02*
Y411874D01*
X312535Y402756D02*
X320535D01*
X316535Y398756D02*
Y406756D01*
X356236Y401575D02*
X364236D01*
X360236Y397575D02*
Y405575D01*
X356630Y407874D02*
X364630D01*
X360630Y403874D02*
Y411874D01*
X352693Y401575D02*
X360693D01*
X356693Y397575D02*
Y405575D01*
X360961Y408661D02*
X368961D01*
X364961Y404661D02*
Y412661D01*
X394819Y402362D02*
X402819D01*
X398819Y398362D02*
Y406362D01*
X423165Y405512D02*
X431165D01*
X427165Y401512D02*
Y409512D01*
X419228Y408661D02*
X427228D01*
X423228Y404661D02*
Y412661D01*
X429858Y402756D02*
X437858D01*
X433858Y398756D02*
Y406756D01*
X312535Y412992D02*
X320535D01*
X316535Y408992D02*
Y416992D01*
X350331Y414173D02*
X358331D01*
X354331Y410173D02*
Y418173D01*
X350331Y410630D02*
X358331D01*
X354331Y406630D02*
Y414630D01*
X355449Y413780D02*
X363449D01*
X359449Y409780D02*
Y417780D01*
X348756Y417717D02*
X356756D01*
X352756Y413717D02*
Y421717D01*
X386945Y409843D02*
X394945D01*
X390945Y405843D02*
Y413843D01*
X414898Y411811D02*
X422898D01*
X418898Y407811D02*
Y415811D01*
X325921Y424803D02*
X333921D01*
X329921Y420803D02*
Y428803D01*
X383795Y428346D02*
X391795D01*
X387795Y424346D02*
Y432346D01*
X383795Y423622D02*
X391795D01*
X387795Y419622D02*
Y427622D01*
X386551Y425197D02*
X394551D01*
X390551Y421197D02*
Y429197D01*
X389307Y423228D02*
X397307D01*
X393307Y419228D02*
Y427228D01*
X391669Y425984D02*
X399669D01*
X395669Y421984D02*
Y429984D01*
X409780Y423228D02*
X417780D01*
X413780Y419228D02*
Y427228D01*
X426709Y426378D02*
X434709D01*
X430709Y422378D02*
Y430378D01*
X444819Y419291D02*
X452819D01*
X448819Y415291D02*
Y423291D01*
X440094Y423622D02*
X448094D01*
X444094Y419622D02*
Y427622D01*
X325528Y430315D02*
X333528D01*
X329528Y426315D02*
Y434315D01*
X358992Y434252D02*
X366992D01*
X362992Y430252D02*
Y438252D01*
X413717Y448031D02*
X421717D01*
X417717Y444031D02*
Y452031D01*
X511811Y530961D02*
X769811D01*
X511811Y506961D02*
X769811D01*
X511811Y482961D02*
X769811D01*
X511811Y458961D02*
X769811D01*
X511811Y434961D02*
X769811D01*
X511811Y410961D02*
X769811D01*
X511811Y386961D02*
X769811D01*
X511811Y362961D02*
X769811D01*
X511811Y338961D02*
X769811D01*
X511811Y314961D02*
X769811D01*
X511811Y530961D02*
Y314961D01*
X595811Y530961D02*
Y314961D01*
X631811Y530961D02*
Y314961D01*
X667811Y530961D02*
Y314961D01*
X721811Y530961D02*
Y314961D01*
X769811Y530961D02*
Y314961D01*
X547311Y519711D02*
X546766Y520461D01*
X545947Y520836*
X544856*
X544038Y520461*
X543493Y519711*
Y518961*
X543766Y518211*
X544038Y517836*
X544584Y517461*
X546220Y516711*
X546766Y516336*
X547038Y515961*
X547311Y515211*
Y514086*
X546766Y513336*
X545947Y512961*
X544856*
X544038Y513336*
X543493Y514086*
X549766Y520836D02*
Y512961D01*
X556038Y520836D02*
X552220Y512961D01*
Y520836D02*
X556038D01*
X552220Y512961D02*
X556038D01*
X558493Y520836D02*
Y512961D01*
Y520836D02*
X562038D01*
X558493Y517086D02*
X560675D01*
X558493Y512961D02*
X562038D01*
X605675Y520836D02*
X605129Y520461D01*
X604584Y519711*
X604311Y518961*
X604038Y517836*
Y515961*
X604311Y514836*
X604584Y514086*
X605129Y513336*
X605675Y512961*
X606766*
X607311Y513336*
X607856Y514086*
X608129Y514836*
X608402Y515961*
Y517836*
X608129Y518961*
X607856Y519711*
X607311Y520461*
X606766Y520836*
X605675*
X606493Y514461D02*
X608129Y512211D01*
X612766Y520836D02*
Y512961D01*
X610856Y520836D02*
X614675D01*
X617129D02*
X619311Y517086D01*
Y512961*
X621493Y520836D02*
X619311Y517086D01*
X643856Y519711D02*
X643311Y520461D01*
X642493Y520836*
X641402*
X640584Y520461*
X640038Y519711*
Y518961*
X640311Y518211*
X640584Y517836*
X641129Y517461*
X642766Y516711*
X643311Y516336*
X643584Y515961*
X643856Y515211*
Y514086*
X643311Y513336*
X642493Y512961*
X641402*
X640584Y513336*
X640038Y514086*
X646311Y520836D02*
X648493Y517086D01*
Y512961*
X650675Y520836D02*
X648493Y517086D01*
X653129Y520836D02*
Y512961D01*
Y520836D02*
X655311Y512961D01*
X657493Y520836D02*
X655311Y512961D01*
X657493Y520836D02*
Y512961D01*
X679311Y520836D02*
Y512961D01*
Y520836D02*
X681766D01*
X682584Y520461*
X682856Y520086*
X683129Y519336*
Y518211*
X682856Y517461*
X682584Y517086*
X681766Y516711*
X679311*
X685584Y520836D02*
Y512961D01*
X688856*
X693493Y520836D02*
X691311Y512961D01*
X693493Y520836D02*
X695675Y512961D01*
X692129Y515586D02*
X694856D01*
X700038Y520836D02*
Y512961D01*
X698129Y520836D02*
X701947D01*
X704402D02*
Y512961D01*
Y520836D02*
X707947D01*
X704402Y517086D02*
X706584D01*
X704402Y512961D02*
X707947D01*
X710402Y520836D02*
Y512961D01*
Y520836D02*
X712311D01*
X713129Y520461*
X713675Y519711*
X713947Y518961*
X714220Y517836*
Y515961*
X713947Y514836*
X713675Y514086*
X713129Y513336*
X712311Y512961*
X710402*
X738493Y520836D02*
Y512961D01*
X736584Y520836D02*
X740402D01*
X744493D02*
X743947Y520461D01*
X743402Y519711*
X743129Y518961*
X742856Y517836*
Y515961*
X743129Y514836*
X743402Y514086*
X743947Y513336*
X744493Y512961*
X745584*
X746129Y513336*
X746675Y514086*
X746947Y514836*
X747220Y515961*
Y517836*
X746947Y518961*
X746675Y519711*
X746129Y520461*
X745584Y520836*
X744493*
X749675D02*
Y512961D01*
X752947*
X519447Y496836D02*
X518629Y496461D01*
X518084Y495336*
X517811Y493461*
Y492336*
X518084Y490461*
X518629Y489336*
X519447Y488961*
X519993*
X520811Y489336*
X521356Y490461*
X521629Y492336*
Y493461*
X521356Y495336*
X520811Y496461*
X519993Y496836*
X519447*
X524356Y489711D02*
X524084Y489336D01*
X524356Y488961*
X524629Y489336*
X524356Y489711*
X529811Y496836D02*
X527084Y491586D01*
X531175*
X529811Y496836D02*
Y488961D01*
X611402Y496836D02*
X608675Y488961D01*
X607584Y496836D02*
X611402D01*
X616584D02*
X613856Y491586D01*
X617947*
X616584Y496836D02*
Y488961D01*
X643811Y494961D02*
X655811D01*
X649811Y488961D02*
Y500961D01*
X676447Y496836D02*
X678629Y493086D01*
Y488961*
X680811Y496836D02*
X678629Y493086D01*
X683266Y496836D02*
Y488961D01*
Y496836D02*
X686811D01*
X683266Y493086D02*
X685447D01*
X683266Y488961D02*
X686811D01*
X693084Y495711D02*
X692538Y496461D01*
X691720Y496836*
X690629*
X689811Y496461*
X689266Y495711*
Y494961*
X689538Y494211*
X689811Y493836*
X690356Y493461*
X691993Y492711*
X692538Y492336*
X692811Y491961*
X693084Y491211*
Y490086*
X692538Y489336*
X691720Y488961*
X690629*
X689811Y489336*
X689266Y490086*
X729629Y495711D02*
Y488961D01*
X727175Y492336D02*
X732084D01*
X739447Y498336D02*
X734538Y486336D01*
X741902Y492336D02*
X746811D01*
X750902Y496836D02*
X750084Y496461D01*
X749538Y495336*
X749266Y493461*
Y492336*
X749538Y490461*
X750084Y489336*
X750902Y488961*
X751447*
X752266Y489336*
X752811Y490461*
X753084Y492336*
Y493461*
X752811Y495336*
X752266Y496461*
X751447Y496836*
X750902*
X755811Y489711D02*
X755538Y489336D01*
X755811Y488961*
X756084Y489336*
X755811Y489711*
X760175Y496836D02*
X759356Y496461D01*
X758811Y495336*
X758538Y493461*
Y492336*
X758811Y490461*
X759356Y489336*
X760175Y488961*
X760720*
X761538Y489336*
X762084Y490461*
X762356Y492336*
Y493461*
X762084Y495336*
X761538Y496461*
X760720Y496836*
X760175*
X519447Y472836D02*
X518629Y472461D01*
X518084Y471336*
X517811Y469461*
Y468336*
X518084Y466461*
X518629Y465336*
X519447Y464961*
X519993*
X520811Y465336*
X521356Y466461*
X521629Y468336*
Y469461*
X521356Y471336*
X520811Y472461*
X519993Y472836*
X519447*
X524356Y465711D02*
X524084Y465336D01*
X524356Y464961*
X524629Y465336*
X524356Y465711*
X530902Y472836D02*
X528175Y464961D01*
X527084Y472836D02*
X530902D01*
X539629Y470211D02*
X542629Y464961D01*
Y470211D02*
X539629Y464961D01*
X551356Y471336D02*
X551902Y471711D01*
X552720Y472836*
Y464961*
X555447Y465711D02*
X555175Y465336D01*
X555447Y464961*
X555720Y465336*
X555447Y465711*
X560902Y472836D02*
X558175Y467586D01*
X562266*
X560902Y472836D02*
Y464961D01*
X611129Y470961D02*
Y471336D01*
X611402Y472086*
X611675Y472461*
X612220Y472836*
X613311*
X613856Y472461*
X614129Y472086*
X614402Y471336*
Y470586*
X614129Y469836*
X613584Y468711*
X610856Y464961*
X614675*
X643811D02*
X655811Y476961D01*
X643811D02*
X655811Y464961D01*
X676447Y472836D02*
X678629Y469086D01*
Y464961*
X680811Y472836D02*
X678629Y469086D01*
X683266Y472836D02*
Y464961D01*
Y472836D02*
X686811D01*
X683266Y469086D02*
X685447D01*
X683266Y464961D02*
X686811D01*
X693084Y471711D02*
X692538Y472461D01*
X691720Y472836*
X690629*
X689811Y472461*
X689266Y471711*
Y470961*
X689538Y470211*
X689811Y469836*
X690356Y469461*
X691993Y468711*
X692538Y468336*
X692811Y467961*
X693084Y467211*
Y466086*
X692538Y465336*
X691720Y464961*
X690629*
X689811Y465336*
X689266Y466086*
X729629Y471711D02*
Y464961D01*
X727175Y468336D02*
X732084D01*
X739447Y474336D02*
X734538Y462336D01*
X741902Y468336D02*
X746811D01*
X750902Y472836D02*
X750084Y472461D01*
X749538Y471336*
X749266Y469461*
Y468336*
X749538Y466461*
X750084Y465336*
X750902Y464961*
X751447*
X752266Y465336*
X752811Y466461*
X753084Y468336*
Y469461*
X752811Y471336*
X752266Y472461*
X751447Y472836*
X750902*
X755811Y465711D02*
X755538Y465336D01*
X755811Y464961*
X756084Y465336*
X755811Y465711*
X760175Y472836D02*
X759356Y472461D01*
X758811Y471336*
X758538Y469461*
Y468336*
X758811Y466461*
X759356Y465336*
X760175Y464961*
X760720*
X761538Y465336*
X762084Y466461*
X762356Y468336*
Y469461*
X762084Y471336*
X761538Y472461*
X760720Y472836*
X760175*
X519447Y448836D02*
X518629Y448461D01*
X518084Y447336*
X517811Y445461*
Y444336*
X518084Y442461*
X518629Y441336*
X519447Y440961*
X519993*
X520811Y441336*
X521356Y442461*
X521629Y444336*
Y445461*
X521356Y447336*
X520811Y448461*
X519993Y448836*
X519447*
X524356Y441711D02*
X524084Y441336D01*
X524356Y440961*
X524629Y441336*
X524356Y441711*
X530356Y447711D02*
X530084Y448461D01*
X529266Y448836*
X528720*
X527902Y448461*
X527356Y447336*
X527084Y445461*
Y443586*
X527356Y442086*
X527902Y441336*
X528720Y440961*
X528993*
X529811Y441336*
X530356Y442086*
X530629Y443211*
Y443586*
X530356Y444711*
X529811Y445461*
X528993Y445836*
X528720*
X527902Y445461*
X527356Y444711*
X527084Y443586*
X607856Y446961D02*
Y447336D01*
X608129Y448086*
X608402Y448461*
X608947Y448836*
X610038*
X610584Y448461*
X610856Y448086*
X611129Y447336*
Y446586*
X610856Y445836*
X610311Y444711*
X607584Y440961*
X611402*
X616584Y448836D02*
X613856Y443586D01*
X617947*
X616584Y448836D02*
Y440961D01*
X643811D02*
X655811D01*
Y452961*
X643811*
Y440961*
X649811Y446961D02*
Y452961D01*
X676447Y448836D02*
X678629Y445086D01*
Y440961*
X680811Y448836D02*
X678629Y445086D01*
X683266Y448836D02*
Y440961D01*
Y448836D02*
X686811D01*
X683266Y445086D02*
X685447D01*
X683266Y440961D02*
X686811D01*
X693084Y447711D02*
X692538Y448461D01*
X691720Y448836*
X690629*
X689811Y448461*
X689266Y447711*
Y446961*
X689538Y446211*
X689811Y445836*
X690356Y445461*
X691993Y444711*
X692538Y444336*
X692811Y443961*
X693084Y443211*
Y442086*
X692538Y441336*
X691720Y440961*
X690629*
X689811Y441336*
X689266Y442086*
X729629Y447711D02*
Y440961D01*
X727175Y444336D02*
X732084D01*
X739447Y450336D02*
X734538Y438336D01*
X741902Y444336D02*
X746811D01*
X750902Y448836D02*
X750084Y448461D01*
X749538Y447336*
X749266Y445461*
Y444336*
X749538Y442461*
X750084Y441336*
X750902Y440961*
X751447*
X752266Y441336*
X752811Y442461*
X753084Y444336*
Y445461*
X752811Y447336*
X752266Y448461*
X751447Y448836*
X750902*
X755811Y441711D02*
X755538Y441336D01*
X755811Y440961*
X756084Y441336*
X755811Y441711*
X760175Y448836D02*
X759356Y448461D01*
X758811Y447336*
X758538Y445461*
Y444336*
X758811Y442461*
X759356Y441336*
X760175Y440961*
X760720*
X761538Y441336*
X762084Y442461*
X762356Y444336*
Y445461*
X762084Y447336*
X761538Y448461*
X760720Y448836*
X760175*
X519447Y424836D02*
X518629Y424461D01*
X518084Y423336*
X517811Y421461*
Y420336*
X518084Y418461*
X518629Y417336*
X519447Y416961*
X519993*
X520811Y417336*
X521356Y418461*
X521629Y420336*
Y421461*
X521356Y423336*
X520811Y424461*
X519993Y424836*
X519447*
X524356Y417711D02*
X524084Y417336D01*
X524356Y416961*
X524629Y417336*
X524356Y417711*
X528447Y424836D02*
X527629Y424461D01*
X527356Y423711*
Y422961*
X527629Y422211*
X528175Y421836*
X529266Y421461*
X530084Y421086*
X530629Y420336*
X530902Y419586*
Y418461*
X530629Y417711*
X530356Y417336*
X529538Y416961*
X528447*
X527629Y417336*
X527356Y417711*
X527084Y418461*
Y419586*
X527356Y420336*
X527902Y421086*
X528720Y421461*
X529811Y421836*
X530356Y422211*
X530629Y422961*
Y423711*
X530356Y424461*
X529538Y424836*
X528447*
X534720D02*
X533902Y424461D01*
X533629Y423711*
Y422961*
X533902Y422211*
X534447Y421836*
X535538Y421461*
X536356Y421086*
X536902Y420336*
X537175Y419586*
Y418461*
X536902Y417711*
X536629Y417336*
X535811Y416961*
X534720*
X533902Y417336*
X533629Y417711*
X533356Y418461*
Y419586*
X533629Y420336*
X534175Y421086*
X534993Y421461*
X536084Y421836*
X536629Y422211*
X536902Y422961*
Y423711*
X536629Y424461*
X535811Y424836*
X534720*
X543175Y422211D02*
X542902Y421086D01*
X542356Y420336*
X541538Y419961*
X541266*
X540447Y420336*
X539902Y421086*
X539629Y422211*
Y422586*
X539902Y423711*
X540447Y424461*
X541266Y424836*
X541538*
X542356Y424461*
X542902Y423711*
X543175Y422211*
Y420336*
X542902Y418461*
X542356Y417336*
X541538Y416961*
X540993*
X540175Y417336*
X539902Y418086*
X608947Y423336D02*
X609493Y423711D01*
X610311Y424836*
Y416961*
X614402Y424836D02*
X613584Y424461D01*
X613038Y423336*
X612766Y421461*
Y420336*
X613038Y418461*
X613584Y417336*
X614402Y416961*
X614947*
X615766Y417336*
X616311Y418461*
X616584Y420336*
Y421461*
X616311Y423336*
X615766Y424461*
X614947Y424836*
X614402*
X649811Y416961D02*
X655811Y422961D01*
X649811Y428961*
X643811Y422961*
X649811Y416961*
Y422961D02*
Y428961D01*
X676447Y424836D02*
X678629Y421086D01*
Y416961*
X680811Y424836D02*
X678629Y421086D01*
X683266Y424836D02*
Y416961D01*
Y424836D02*
X686811D01*
X683266Y421086D02*
X685447D01*
X683266Y416961D02*
X686811D01*
X693084Y423711D02*
X692538Y424461D01*
X691720Y424836*
X690629*
X689811Y424461*
X689266Y423711*
Y422961*
X689538Y422211*
X689811Y421836*
X690356Y421461*
X691993Y420711*
X692538Y420336*
X692811Y419961*
X693084Y419211*
Y418086*
X692538Y417336*
X691720Y416961*
X690629*
X689811Y417336*
X689266Y418086*
X729629Y423711D02*
Y416961D01*
X727175Y420336D02*
X732084D01*
X739447Y426336D02*
X734538Y414336D01*
X741902Y420336D02*
X746811D01*
X750902Y424836D02*
X750084Y424461D01*
X749538Y423336*
X749266Y421461*
Y420336*
X749538Y418461*
X750084Y417336*
X750902Y416961*
X751447*
X752266Y417336*
X752811Y418461*
X753084Y420336*
Y421461*
X752811Y423336*
X752266Y424461*
X751447Y424836*
X750902*
X755811Y417711D02*
X755538Y417336D01*
X755811Y416961*
X756084Y417336*
X755811Y417711*
X760175Y424836D02*
X759356Y424461D01*
X758811Y423336*
X758538Y421461*
Y420336*
X758811Y418461*
X759356Y417336*
X760175Y416961*
X760720*
X761538Y417336*
X762084Y418461*
X762356Y420336*
Y421461*
X762084Y423336*
X761538Y424461*
X760720Y424836*
X760175*
X519447Y400836D02*
X518629Y400461D01*
X518084Y399336*
X517811Y397461*
Y396336*
X518084Y394461*
X518629Y393336*
X519447Y392961*
X519993*
X520811Y393336*
X521356Y394461*
X521629Y396336*
Y397461*
X521356Y399336*
X520811Y400461*
X519993Y400836*
X519447*
X524356Y393711D02*
X524084Y393336D01*
X524356Y392961*
X524629Y393336*
X524356Y393711*
X530629Y398211D02*
X530356Y397086D01*
X529811Y396336*
X528993Y395961*
X528720*
X527902Y396336*
X527356Y397086*
X527084Y398211*
Y398586*
X527356Y399711*
X527902Y400461*
X528720Y400836*
X528993*
X529811Y400461*
X530356Y399711*
X530629Y398211*
Y396336*
X530356Y394461*
X529811Y393336*
X528993Y392961*
X528447*
X527629Y393336*
X527356Y394086*
X536629Y398211D02*
X536356Y397086D01*
X535811Y396336*
X534993Y395961*
X534720*
X533902Y396336*
X533356Y397086*
X533084Y398211*
Y398586*
X533356Y399711*
X533902Y400461*
X534720Y400836*
X534993*
X535811Y400461*
X536356Y399711*
X536629Y398211*
Y396336*
X536356Y394461*
X535811Y393336*
X534993Y392961*
X534447*
X533629Y393336*
X533356Y394086*
X542629Y398211D02*
X542356Y397086D01*
X541811Y396336*
X540993Y395961*
X540720*
X539902Y396336*
X539356Y397086*
X539084Y398211*
Y398586*
X539356Y399711*
X539902Y400461*
X540720Y400836*
X540993*
X541811Y400461*
X542356Y399711*
X542629Y398211*
Y396336*
X542356Y394461*
X541811Y393336*
X540993Y392961*
X540447*
X539629Y393336*
X539356Y394086*
X548629Y398211D02*
X548356Y397086D01*
X547811Y396336*
X546993Y395961*
X546720*
X545902Y396336*
X545356Y397086*
X545084Y398211*
Y398586*
X545356Y399711*
X545902Y400461*
X546720Y400836*
X546993*
X547811Y400461*
X548356Y399711*
X548629Y398211*
Y396336*
X548356Y394461*
X547811Y393336*
X546993Y392961*
X546447*
X545629Y393336*
X545356Y394086*
X551084Y399336D02*
X551629Y399711D01*
X552447Y400836*
Y392961*
X612220Y400836D02*
X611402Y400461D01*
X611129Y399711*
Y398961*
X611402Y398211*
X611947Y397836*
X613038Y397461*
X613856Y397086*
X614402Y396336*
X614675Y395586*
Y394461*
X614402Y393711*
X614129Y393336*
X613311Y392961*
X612220*
X611402Y393336*
X611129Y393711*
X610856Y394461*
Y395586*
X611129Y396336*
X611675Y397086*
X612493Y397461*
X613584Y397836*
X614129Y398211*
X614402Y398961*
Y399711*
X614129Y400461*
X613311Y400836*
X612220*
X643811Y392961D02*
X655811D01*
X643811Y404961*
X655811*
X643811Y392961*
X676447Y400836D02*
X678629Y397086D01*
Y392961*
X680811Y400836D02*
X678629Y397086D01*
X683266Y400836D02*
Y392961D01*
Y400836D02*
X686811D01*
X683266Y397086D02*
X685447D01*
X683266Y392961D02*
X686811D01*
X693084Y399711D02*
X692538Y400461D01*
X691720Y400836*
X690629*
X689811Y400461*
X689266Y399711*
Y398961*
X689538Y398211*
X689811Y397836*
X690356Y397461*
X691993Y396711*
X692538Y396336*
X692811Y395961*
X693084Y395211*
Y394086*
X692538Y393336*
X691720Y392961*
X690629*
X689811Y393336*
X689266Y394086*
X729629Y399711D02*
Y392961D01*
X727175Y396336D02*
X732084D01*
X739447Y402336D02*
X734538Y390336D01*
X741902Y396336D02*
X746811D01*
X750902Y400836D02*
X750084Y400461D01*
X749538Y399336*
X749266Y397461*
Y396336*
X749538Y394461*
X750084Y393336*
X750902Y392961*
X751447*
X752266Y393336*
X752811Y394461*
X753084Y396336*
Y397461*
X752811Y399336*
X752266Y400461*
X751447Y400836*
X750902*
X755811Y393711D02*
X755538Y393336D01*
X755811Y392961*
X756084Y393336*
X755811Y393711*
X760175Y400836D02*
X759356Y400461D01*
X758811Y399336*
X758538Y397461*
Y396336*
X758811Y394461*
X759356Y393336*
X760175Y392961*
X760720*
X761538Y393336*
X762084Y394461*
X762356Y396336*
Y397461*
X762084Y399336*
X761538Y400461*
X760720Y400836*
X760175*
X517811Y375336D02*
X518356Y375711D01*
X519175Y376836*
Y368961*
X521902Y369711D02*
X521629Y369336D01*
X521902Y368961*
X522175Y369336*
X521902Y369711*
X525993Y376836D02*
X525175Y376461D01*
X524902Y375711*
Y374961*
X525175Y374211*
X525720Y373836*
X526811Y373461*
X527629Y373086*
X528175Y372336*
X528447Y371586*
Y370461*
X528175Y369711*
X527902Y369336*
X527084Y368961*
X525993*
X525175Y369336*
X524902Y369711*
X524629Y370461*
Y371586*
X524902Y372336*
X525447Y373086*
X526266Y373461*
X527356Y373836*
X527902Y374211*
X528175Y374961*
Y375711*
X527902Y376461*
X527084Y376836*
X525993*
X612084Y375336D02*
X612629Y375711D01*
X613447Y376836*
Y368961*
X643811D02*
X655811Y380961D01*
Y368961*
X643811Y380961*
Y368961*
X676447Y376836D02*
X678629Y373086D01*
Y368961*
X680811Y376836D02*
X678629Y373086D01*
X683266Y376836D02*
Y368961D01*
Y376836D02*
X686811D01*
X683266Y373086D02*
X685447D01*
X683266Y368961D02*
X686811D01*
X693084Y375711D02*
X692538Y376461D01*
X691720Y376836*
X690629*
X689811Y376461*
X689266Y375711*
Y374961*
X689538Y374211*
X689811Y373836*
X690356Y373461*
X691993Y372711*
X692538Y372336*
X692811Y371961*
X693084Y371211*
Y370086*
X692538Y369336*
X691720Y368961*
X690629*
X689811Y369336*
X689266Y370086*
X729629Y375711D02*
Y368961D01*
X727175Y372336D02*
X732084D01*
X739447Y378336D02*
X734538Y366336D01*
X741902Y372336D02*
X746811D01*
X750902Y376836D02*
X750084Y376461D01*
X749538Y375336*
X749266Y373461*
Y372336*
X749538Y370461*
X750084Y369336*
X750902Y368961*
X751447*
X752266Y369336*
X752811Y370461*
X753084Y372336*
Y373461*
X752811Y375336*
X752266Y376461*
X751447Y376836*
X750902*
X755811Y369711D02*
X755538Y369336D01*
X755811Y368961*
X756084Y369336*
X755811Y369711*
X760175Y376836D02*
X759356Y376461D01*
X758811Y375336*
X758538Y373461*
Y372336*
X758811Y370461*
X759356Y369336*
X760175Y368961*
X760720*
X761538Y369336*
X762084Y370461*
X762356Y372336*
Y373461*
X762084Y375336*
X761538Y376461*
X760720Y376836*
X760175*
X518356Y352836D02*
X521356D01*
X519720Y349836*
X520538*
X521084Y349461*
X521356Y349086*
X521629Y347961*
Y347211*
X521356Y346086*
X520811Y345336*
X519993Y344961*
X519175*
X518356Y345336*
X518084Y345711*
X517811Y346461*
X524356Y345711D02*
X524084Y345336D01*
X524356Y344961*
X524629Y345336*
X524356Y345711*
X530629Y352836D02*
X527902D01*
X527629Y349461*
X527902Y349836*
X528720Y350211*
X529538*
X530356Y349836*
X530902Y349086*
X531175Y347961*
X530902Y347211*
X530629Y346086*
X530084Y345336*
X529266Y344961*
X528447*
X527629Y345336*
X527356Y345711*
X527084Y346461*
X612084Y351336D02*
X612629Y351711D01*
X613447Y352836*
Y344961*
X643811Y350961D02*
X655811D01*
X649811Y344961D02*
Y356961D01*
X654556Y360261D02*
X652811Y353961D01*
X654556Y360261D02*
X656302Y353961D01*
X653466Y356061D02*
X655647D01*
X679447Y352836D02*
Y344961D01*
Y352836D02*
X683266Y344961D01*
Y352836D02*
Y344961D01*
X687356Y352836D02*
X686811Y352461D01*
X686266Y351711*
X685993Y350961*
X685720Y349836*
Y347961*
X685993Y346836*
X686266Y346086*
X686811Y345336*
X687356Y344961*
X688447*
X688993Y345336*
X689538Y346086*
X689811Y346836*
X690084Y347961*
Y349836*
X689811Y350961*
X689538Y351711*
X688993Y352461*
X688447Y352836*
X687356*
X729629Y351711D02*
Y344961D01*
X727175Y348336D02*
X732084D01*
X739447Y354336D02*
X734538Y342336D01*
X741902Y348336D02*
X746811D01*
X750902Y352836D02*
X750084Y352461D01*
X749538Y351336*
X749266Y349461*
Y348336*
X749538Y346461*
X750084Y345336*
X750902Y344961*
X751447*
X752266Y345336*
X752811Y346461*
X753084Y348336*
Y349461*
X752811Y351336*
X752266Y352461*
X751447Y352836*
X750902*
X755811Y345711D02*
X755538Y345336D01*
X755811Y344961*
X756084Y345336*
X755811Y345711*
X760175Y352836D02*
X759356Y352461D01*
X758811Y351336*
X758538Y349461*
Y348336*
X758811Y346461*
X759356Y345336*
X760175Y344961*
X760720*
X761538Y345336*
X762084Y346461*
X762356Y348336*
Y349461*
X762084Y351336*
X761538Y352461*
X760720Y352836*
X760175*
X518084Y326961D02*
Y327336D01*
X518356Y328086*
X518629Y328461*
X519175Y328836*
X520266*
X520811Y328461*
X521084Y328086*
X521356Y327336*
Y326586*
X521084Y325836*
X520538Y324711*
X517811Y320961*
X521629*
X524356Y321711D02*
X524084Y321336D01*
X524356Y320961*
X524629Y321336*
X524356Y321711*
X527356Y326961D02*
Y327336D01*
X527629Y328086*
X527902Y328461*
X528447Y328836*
X529538*
X530084Y328461*
X530356Y328086*
X530629Y327336*
Y326586*
X530356Y325836*
X529811Y324711*
X527084Y320961*
X530902*
X612084Y327336D02*
X612629Y327711D01*
X613447Y328836*
Y320961*
X643811Y326961D02*
X655811D01*
X649811Y320961D02*
Y332961D01*
X652811Y336261D02*
Y329961D01*
Y336261D02*
X654775D01*
X655429Y335961*
X655647Y335661*
X655866Y335061*
Y334461*
X655647Y333861*
X655429Y333561*
X654775Y333261*
X652811D02*
X654775D01*
X655429Y332961*
X655647Y332661*
X655866Y332061*
Y331161*
X655647Y330561*
X655429Y330261*
X654775Y329961*
X652811*
X676447Y328836D02*
X678629Y325086D01*
Y320961*
X680811Y328836D02*
X678629Y325086D01*
X683266Y328836D02*
Y320961D01*
Y328836D02*
X686811D01*
X683266Y325086D02*
X685447D01*
X683266Y320961D02*
X686811D01*
X693084Y327711D02*
X692538Y328461D01*
X691720Y328836*
X690629*
X689811Y328461*
X689266Y327711*
Y326961*
X689538Y326211*
X689811Y325836*
X690356Y325461*
X691993Y324711*
X692538Y324336*
X692811Y323961*
X693084Y323211*
Y322086*
X692538Y321336*
X691720Y320961*
X690629*
X689811Y321336*
X689266Y322086*
X729629Y327711D02*
Y320961D01*
X727175Y324336D02*
X732084D01*
X739447Y330336D02*
X734538Y318336D01*
X741902Y324336D02*
X746811D01*
X750902Y328836D02*
X750084Y328461D01*
X749538Y327336*
X749266Y325461*
Y324336*
X749538Y322461*
X750084Y321336*
X750902Y320961*
X751447*
X752266Y321336*
X752811Y322461*
X753084Y324336*
Y325461*
X752811Y327336*
X752266Y328461*
X751447Y328836*
X750902*
X755811Y321711D02*
X755538Y321336D01*
X755811Y320961*
X756084Y321336*
X755811Y321711*
X760175Y328836D02*
X759356Y328461D01*
X758811Y327336*
X758538Y325461*
Y324336*
X758811Y322461*
X759356Y321336*
X760175Y320961*
X760720*
X761538Y321336*
X762084Y322461*
X762356Y324336*
Y325461*
X762084Y327336*
X761538Y328461*
X760720Y328836*
X760175*
G54D38*
X478346Y393701D02*
G03X478346I-84645J0D01*
G74*
G01X0Y0D02*
M02*
