%
T1C.01575F095S3
X006063Y006732
X006575Y006732
X007402Y007165
X007638Y004016
X008031Y007165
X009724Y007283
X009843Y002362
X010118Y007047
X010591Y006732
X012205Y003858
X012205Y004252
X012244Y003386
X012244Y002992
X012441Y005984
X012559Y007283
X012638Y006929
X013386Y006772
X016063Y007165
X015669Y009055
X014409Y008583
X013622Y008583
X013504Y008268
X013386Y008819
X013071Y009094
X013071Y009685
X012441Y008071
X010315Y008307
X008307Y008701
X007323Y007913
X007244Y008898
X007244Y009606
X006969Y009331
X006614Y008425
X00622Y009331
X006102Y009803
X002283Y008071
X002283Y008898
X002047Y010394
X002283Y010079
X002283Y010906
X002283Y011929
X002323Y011417
X005787Y010512
X005827Y010118
X006063Y012047
X006063Y011693
X006299Y010787
X006299Y010197
X006575Y012008
X006654Y010787
X006693Y011417
X007126Y011496
X009724Y011614
X010512Y010866
X01252Y011811
X012953Y011496
X013228Y01
X013346Y011181
X014016Y010906
X015669Y009882
X015512Y012559
X015039Y012992
X013701Y013268
X012008Y012953
X010197Y013228
X009961Y012953
X009685Y01315
X009409Y012992
X009409Y013465
X006929Y014055
X005906Y012402
X003622Y01311
X003583Y013661
X012402Y015433
T2C.02362F197S55
X010256Y004374
X010256Y003874
X010256Y003374
X010256Y002874
X010756Y002874
X010756Y003374
X010756Y003874
X010756Y004374
X015512Y006555
X015012Y006555
X014843Y005394
X014512Y006555
X014343Y005394
X014012Y006555
X013843Y005394
X013343Y005394
X010756Y004874
X010756Y005374
X010256Y004874
X010256Y005374
X004331Y008898
X013425Y01628
X013925Y01628
X014425Y01628
T3C.02756F197S55
X008661Y005453G85X008937Y005453
X008661Y002815G85X008937Y002815
T4C.035F197S55
X004094Y003937
X015906Y003937
X015906Y016063
X01502Y015236
X01402Y015236
X01302Y015236
X006949Y017047
X006949Y015079
X006949Y016063
X004094Y016063
T5C.03937F197S55
X003681Y006969
X004681Y006969
X017008Y007283
X017008Y008283
X017047Y011559
X017047Y012559
X01161Y017539
X01061Y017539
T6C.07087F081S55
X01437Y009665
T7C.08661F074S55
X003996Y011033
T8C.1378F035S794
X016949Y00998
M30
