*
*
G04 PADS 9.3 Build Number: 433611 generated Gerber (RS-274-X) file*
G04 PC Version=2.1*
*
%IN "LDC_HW_REV002_Simple2.p"*%
*
%MOIN*%
*
%FSLAX35Y35*%
*
*
*
*
G04 PC Standard Apertures*
*
*
G04 Thermal Relief Aperture macro.*
%AMTER*
1,1,$1,0,0*
1,0,$1-$2,0,0*
21,0,$3,$4,0,0,45*
21,0,$3,$4,0,0,135*
%
*
*
G04 Annular Aperture macro.*
%AMANN*
1,1,$1,0,0*
1,0,$2,0,0*
%
*
*
G04 Odd Aperture macro.*
%AMODD*
1,1,$1,0,0*
1,0,$1-0.005,0,0*
%
*
*
G04 PC Custom Aperture Macros*
*
*
*
*
*
*
G04 PC Aperture Table*
*
%ADD010C,0.001*%
%ADD012R,0.06297X0.06297*%
%ADD014R,0.05X0.06*%
%ADD015R,0.0689X0.10433*%
%ADD016O,0.01181X0.04724*%
%ADD017O,0.012X0.048*%
%ADD018O,0.048X0.012*%
%ADD019R,0.05118X0.04134*%
%ADD020R,0.03937X0.03937*%
%ADD021C,0.03937*%
%ADD022R,0.06102X0.00984*%
%ADD023R,0.12598X0.20709*%
%ADD024R,0.06X0.05*%
%ADD025R,0.04134X0.05118*%
%ADD026R,0.02362X0.00984*%
%ADD027R,0.10236X0.11811*%
%ADD028R,0.02992X0.05*%
%ADD029R,0.059X0.026*%
%ADD030R,0.059X0.02*%
%ADD031O,0.07874X0.05118*%
%ADD032C,0.06*%
%ADD033R,0.06X0.06*%
%ADD038C,0.00394*%
%ADD043C,0.06493*%
*
*
*
*
G04 PC Circuitry*
G04 Layer Name LDC_HW_REV002_Simple2.p - circuitry*
%LPD*%
*
*
G04 PC Custom Flashes*
G04 Layer Name LDC_HW_REV002_Simple2.p - flashes*
%LPD*%
*
*
G04 PC Circuitry*
G04 Layer Name LDC_HW_REV002_Simple2.p - circuitry*
%LPD*%
*
G54D10*
G54D12*
G01X399803Y469094D03*
X463780Y366535D03*
X464173Y419291D03*
X330512Y363386D03*
G54D14*
X399213Y458043D03*
Y449043D03*
X410236Y458043D03*
Y449043D03*
G54D15*
X387402Y449803D03*
Y466732D03*
G54D16*
X408465Y416339D03*
Y371063D03*
G54D17*
X406496Y416339D03*
X404528D03*
X402559D03*
X400591D03*
X398622D03*
X396654D03*
X394685D03*
X392717D03*
X390748D03*
X388780D03*
X386811D03*
X384843D03*
X382874D03*
X380906D03*
X378937D03*
Y371063D03*
X380906D03*
X382874D03*
X384843D03*
X386811D03*
X388780D03*
X390748D03*
X392717D03*
X394685D03*
X396654D03*
X398622D03*
X400591D03*
X402559D03*
X404528D03*
X406496D03*
G54D18*
X371063Y408465D03*
Y406496D03*
Y404528D03*
Y402559D03*
Y400591D03*
Y398622D03*
Y396654D03*
Y394685D03*
Y392717D03*
Y390748D03*
Y388780D03*
Y386811D03*
Y384843D03*
Y382874D03*
Y380906D03*
Y378937D03*
X416339D03*
Y380906D03*
Y382874D03*
Y384843D03*
Y386811D03*
Y388780D03*
Y390748D03*
Y392717D03*
Y394685D03*
Y396654D03*
Y398622D03*
Y400591D03*
Y402559D03*
Y404528D03*
Y406496D03*
Y408465D03*
G54D19*
X376575Y460531D03*
Y469783D03*
Y453642D03*
Y444390D03*
X444882Y370177D03*
Y379429D03*
X453937D03*
Y370177D03*
Y410335D03*
Y419587D03*
X442323Y407972D03*
Y417224D03*
X433858Y407972D03*
Y417224D03*
X424606Y435925D03*
Y426673D03*
X369094Y425098D03*
Y434350D03*
X368701Y339075D03*
Y348327D03*
X436417Y426476D03*
Y435728D03*
X344291Y383169D03*
Y373917D03*
G54D20*
X442126Y347638D03*
X396260Y347441D03*
X427953Y456496D03*
X448819Y359252D03*
G54D21*
X437126Y347638D03*
X432126D03*
X427126D03*
X396260Y342441D03*
Y337441D03*
Y332441D03*
Y327441D03*
Y322441D03*
X401260D03*
Y327441D03*
Y332441D03*
Y337441D03*
Y342441D03*
Y347441D03*
X463189Y393504D03*
X432953Y456496D03*
X437953D03*
X443819Y359252D03*
X438819D03*
X433819D03*
G54D22*
X344685Y389961D03*
Y392520D03*
Y395079D03*
Y397638D03*
Y400197D03*
Y402756D03*
Y405315D03*
Y407874D03*
Y410433D03*
Y412992D03*
Y415551D03*
Y418110D03*
X322638D03*
Y415551D03*
Y412992D03*
Y410433D03*
Y407874D03*
Y405315D03*
Y402756D03*
Y400197D03*
Y397638D03*
Y395079D03*
Y392520D03*
Y389961D03*
G54D23*
X333661Y404035D03*
G54D24*
X386445Y438386D03*
X395445D03*
G54D25*
X413878D03*
X404626D03*
X377264Y356299D03*
X368012D03*
X404626Y429724D03*
X413878D03*
X344783Y352559D03*
X335531D03*
X344783Y344488D03*
X335531D03*
X434350Y371063D03*
X425098D03*
X410138Y347441D03*
X419390D03*
X362106Y370669D03*
X352854D03*
X345965Y441339D03*
X336713D03*
X345965Y425000D03*
X336713D03*
X345965Y433268D03*
X336713D03*
X330610Y374016D03*
X321358D03*
X330610Y382677D03*
X321358D03*
G54D26*
X429921Y395276D03*
Y393307D03*
Y391339D03*
Y389370D03*
Y387402D03*
Y385433D03*
X444882D03*
Y387402D03*
Y389370D03*
Y391339D03*
Y393307D03*
Y395276D03*
G54D27*
X437402Y390354D03*
G54D28*
X354528Y355709D03*
Y325787D03*
X359528Y355709D03*
Y325787D03*
G54D29*
X424243Y336026D03*
Y325786D03*
X432843D03*
Y336026D03*
G54D30*
X424243Y332476D03*
Y329336D03*
X432843D03*
Y332476D03*
G54D31*
X381693Y348228D03*
Y321850D03*
G54D32*
X334646Y454331D03*
Y333071D03*
X452756Y454331D03*
Y333071D03*
X363189Y454331D03*
Y464173D03*
X433898Y446063D03*
X423898D03*
G54D33*
X363189Y444488D03*
X443898Y446063D03*
G54D38*
X478346Y393701D02*
G75*
G03X478346I-84645J0D01*
G54D43*
G01X409803Y469094D03*
X463780Y376535D03*
X464173Y409291D03*
X340512Y363386D03*
G74*
X0Y0D02*
M02*
