*
*
G04 PADS 9.3 Build Number: 433611 generated Gerber (RS-274-X) file*
G04 PC Version=2.1*
*
%IN "LDC_HW_REV002_Simple2.p"*%
*
%MOIN*%
*
%FSLAX35Y35*%
*
*
*
*
G04 PC Standard Apertures*
*
*
G04 Thermal Relief Aperture macro.*
%AMTER*
1,1,$1,0,0*
1,0,$1-$2,0,0*
21,0,$3,$4,0,0,45*
21,0,$3,$4,0,0,135*
%
*
*
G04 Annular Aperture macro.*
%AMANN*
1,1,$1,0,0*
1,0,$2,0,0*
%
*
*
G04 Odd Aperture macro.*
%AMODD*
1,1,$1,0,0*
1,0,$1-0.005,0,0*
%
*
*
G04 PC Custom Aperture Macros*
*
*
*
*
*
*
G04 PC Aperture Table*
*
%ADD010C,0.001*%
%ADD012R,0.06297X0.06297*%
%ADD013C,0.06297*%
%ADD014R,0.05X0.06*%
%ADD015R,0.0689X0.10433*%
%ADD016O,0.01181X0.04724*%
%ADD017O,0.012X0.048*%
%ADD018O,0.048X0.012*%
%ADD019R,0.05118X0.04134*%
%ADD020R,0.03937X0.03937*%
%ADD021C,0.03937*%
%ADD022R,0.06102X0.00984*%
%ADD023R,0.12598X0.20709*%
%ADD024R,0.06X0.05*%
%ADD025R,0.04134X0.05118*%
%ADD026R,0.02362X0.00984*%
%ADD027R,0.10236X0.11811*%
%ADD028R,0.02992X0.05*%
%ADD029R,0.059X0.026*%
%ADD030R,0.059X0.02*%
%ADD031O,0.07874X0.05118*%
%ADD032C,0.06*%
%ADD033R,0.06X0.06*%
%ADD034C,0.01*%
%ADD035C,0.01969*%
%ADD036C,0.0315*%
%ADD037C,0.02362*%
%ADD038C,0.00394*%
%ADD039C,0.01575*%
*
*
*
*
G04 PC Circuitry*
G04 Layer Name LDC_HW_REV002_Simple2.p - circuitry*
%LPD*%
*
*
G04 PC Custom Flashes*
G04 Layer Name LDC_HW_REV002_Simple2.p - flashes*
%LPD*%
*
*
G04 PC Circuitry*
G04 Layer Name LDC_HW_REV002_Simple2.p - circuitry*
%LPD*%
*
G54D10*
G54D12*
G01X399803Y469094D03*
X463780Y366535D03*
X464173Y419291D03*
X330512Y363386D03*
G54D13*
X409803Y469094D03*
X463780Y376535D03*
X464173Y409291D03*
X340512Y363386D03*
G54D14*
X399213Y458043D03*
Y449043D03*
X410236Y458043D03*
Y449043D03*
G54D15*
X387402Y449803D03*
Y466732D03*
G54D16*
X408465Y416339D03*
Y371063D03*
G54D17*
X406496Y416339D03*
X404528D03*
X402559D03*
X400591D03*
X398622D03*
X396654D03*
X394685D03*
X392717D03*
X390748D03*
X388780D03*
X386811D03*
X384843D03*
X382874D03*
X380906D03*
X378937D03*
Y371063D03*
X380906D03*
X382874D03*
X384843D03*
X386811D03*
X388780D03*
X390748D03*
X392717D03*
X394685D03*
X396654D03*
X398622D03*
X400591D03*
X402559D03*
X404528D03*
X406496D03*
G54D18*
X371063Y408465D03*
Y406496D03*
Y404528D03*
Y402559D03*
Y400591D03*
Y398622D03*
Y396654D03*
Y394685D03*
Y392717D03*
Y390748D03*
Y388780D03*
Y386811D03*
Y384843D03*
Y382874D03*
Y380906D03*
Y378937D03*
X416339D03*
Y380906D03*
Y382874D03*
Y384843D03*
Y386811D03*
Y388780D03*
Y390748D03*
Y392717D03*
Y394685D03*
Y396654D03*
Y398622D03*
Y400591D03*
Y402559D03*
Y404528D03*
Y406496D03*
Y408465D03*
G54D19*
X376575Y460531D03*
Y469783D03*
Y453642D03*
Y444390D03*
X444882Y370177D03*
Y379429D03*
X453937D03*
Y370177D03*
Y410335D03*
Y419587D03*
X442323Y407972D03*
Y417224D03*
X433858Y407972D03*
Y417224D03*
X424606Y435925D03*
Y426673D03*
X369094Y425098D03*
Y434350D03*
X368701Y339075D03*
Y348327D03*
X436417Y426476D03*
Y435728D03*
X344291Y383169D03*
Y373917D03*
G54D20*
X442126Y347638D03*
X396260Y347441D03*
X427953Y456496D03*
X448819Y359252D03*
G54D21*
X437126Y347638D03*
X432126D03*
X427126D03*
X396260Y342441D03*
Y337441D03*
Y332441D03*
Y327441D03*
Y322441D03*
X401260D03*
Y327441D03*
Y332441D03*
Y337441D03*
Y342441D03*
Y347441D03*
X463189Y393504D03*
X432953Y456496D03*
X437953D03*
X443819Y359252D03*
X438819D03*
X433819D03*
X337008Y382677D03*
G54D22*
X344685Y389961D03*
Y392520D03*
Y395079D03*
Y397638D03*
Y400197D03*
Y402756D03*
Y405315D03*
Y407874D03*
Y410433D03*
Y412992D03*
Y415551D03*
Y418110D03*
X322638D03*
Y415551D03*
Y412992D03*
Y410433D03*
Y407874D03*
Y405315D03*
Y402756D03*
Y400197D03*
Y397638D03*
Y395079D03*
Y392520D03*
Y389961D03*
G54D23*
X333661Y404035D03*
G54D24*
X386445Y438386D03*
X395445D03*
G54D25*
X413878D03*
X404626D03*
X377264Y356299D03*
X368012D03*
X404626Y429724D03*
X413878D03*
X344783Y352559D03*
X335531D03*
X344783Y344488D03*
X335531D03*
X434350Y371063D03*
X425098D03*
X410138Y347441D03*
X419390D03*
X362106Y370669D03*
X352854D03*
X345965Y441339D03*
X336713D03*
X345965Y425000D03*
X336713D03*
X345965Y433268D03*
X336713D03*
X330610Y374016D03*
X321358D03*
X330610Y382677D03*
X321358D03*
G54D26*
X429921Y395276D03*
Y393307D03*
Y391339D03*
Y389370D03*
Y387402D03*
Y385433D03*
X444882D03*
Y387402D03*
Y389370D03*
Y391339D03*
Y393307D03*
Y395276D03*
G54D27*
X437402Y390354D03*
G54D28*
X354528Y355709D03*
Y325787D03*
X359528Y355709D03*
Y325787D03*
G54D29*
X424243Y336026D03*
Y325786D03*
X432843D03*
Y336026D03*
G54D30*
X424243Y332476D03*
Y329336D03*
X432843D03*
Y332476D03*
G54D31*
X381693Y348228D03*
Y321850D03*
G54D32*
X334646Y454331D03*
Y333071D03*
X452756Y454331D03*
Y333071D03*
X363189Y454331D03*
Y464173D03*
X433898Y446063D03*
X423898D03*
G54D33*
X363189Y444488D03*
X443898Y446063D03*
G54D34*
X392126Y317323D02*
X409594D01*
X416017Y323746*
X407361Y319172D02*
X415748Y327559D01*
X416142*
X407361Y319172D02*
X399528D01*
X396260Y322441*
X401260Y327441D02*
X407087Y333268D01*
X411457*
X414409Y336220*
X415748*
X401260Y322441D02*
X405984Y327165D01*
X409055*
X414173Y332283*
X415748*
X415945Y327756D02*
X417524Y329336D01*
X424243*
X416142Y323622D02*
Y323871D01*
X418057Y325786*
X424243*
X416142Y323622D02*
X416017Y323746D01*
X416142Y327559D02*
X415945Y327756D01*
X370472Y338583D02*
X369980Y339075D01*
X368701*
X370472Y338583D02*
X369980Y339075D01*
X369291*
X378051*
X381496Y342520*
Y348228*
X381693*
X370079Y333858D02*
X383819D01*
X387402Y337441*
X396260*
X414365Y332476D02*
X424243D01*
Y336026D02*
X415159D01*
X415748Y336220*
Y332283D02*
X414365Y332476D01*
X344783Y344488D02*
X352507D01*
X359528Y351509*
Y355709*
X368701Y348327D02*
X368898D01*
X401260Y347441D02*
X410138D01*
X419390D02*
X417823D01*
Y353543*
X418110*
X344783Y352559D02*
X348550D01*
X350000Y354009*
Y354377*
X351331Y355709*
X354528*
X359528D02*
Y361024D01*
X359449*
X354528Y355709D02*
Y361024D01*
X354331*
X420196Y358268D02*
X423345Y361417D01*
X427559*
X420196Y358268D02*
X383135D01*
X376048Y365354*
X374016*
X377037Y368286D02*
Y375649D01*
X379646Y378259*
X394882Y364173D02*
X394488Y363780D01*
X384089*
X380906Y366963*
Y371063*
X390945Y366535D02*
X384883D01*
X382874Y368544*
Y371063*
X399606Y361024D02*
X384299D01*
X377037Y368286*
X419291Y366535D02*
X400631D01*
X398622Y368544*
Y371063*
X420079Y362992D02*
X401629D01*
X396654Y367967*
Y371063*
X454331Y365354D02*
Y370177D01*
X453937*
X454331Y365354D02*
X463780D01*
Y366535*
Y367875*
X321358Y374016D02*
Y374409D01*
X316535*
X359843Y377953D02*
X366339D01*
X367323Y378937*
X371063*
X362106Y370669D02*
Y372728D01*
X366929*
Y372835*
X379646Y378259D02*
Y381736D01*
X376540Y384843*
X371063*
X378937Y371063D02*
Y373581D01*
X384883Y379528*
X407394*
X408465Y371063D02*
X425098D01*
X406496D02*
Y375163D01*
X404887Y376772*
X396850*
X418110Y374409D02*
X412512D01*
X407394Y379528*
X429921D02*
X429528Y379134D01*
X422947*
X419207Y382874*
X416339*
X463780Y376535D02*
X460787Y379528D01*
Y379609*
X456932Y383465*
X316535Y382677D02*
X321358D01*
X330610D02*
Y386936D01*
X327586Y389961*
X322638*
X350787Y383169D02*
Y391169D01*
X349436Y392520*
X344685*
X355906Y387008D02*
X359135D01*
X364844Y392717*
X371063*
X366142Y382677D02*
X366339Y382874D01*
X371063*
X376772Y380709D02*
X376575Y380906D01*
X371063*
Y386811D02*
X365945D01*
X365748Y387008*
X363386*
X371063Y388780D02*
X366963D01*
X366142Y389601*
Y389764*
X424803Y384252D02*
X425984Y385433D01*
X429921*
X424803Y384252D02*
X424409Y384646D01*
X427559Y381890D02*
X423622D01*
X420669Y384843*
X416339*
X429921Y387402D02*
X424050D01*
X421260Y390192*
Y393864*
X420439Y394685*
X416339*
X450394Y384252D02*
Y385401D01*
X446425Y389370*
X444882*
Y379429D02*
Y385433D01*
Y387402D02*
X440354D01*
X437402Y390354*
X453937Y383196D02*
Y385165D01*
X447763Y391339*
X444882*
X453937Y383196D02*
X454206Y383465D01*
X456932*
X453937Y379429D02*
Y383196D01*
X314173Y397638D02*
X322638D01*
X316535Y394488D02*
X317126Y395079D01*
X322638*
X344685Y397638D02*
X340059D01*
X333661Y404035*
X344685Y397638D02*
X340059D01*
X333661Y404035*
X344685Y389961D02*
X339934D01*
X333661Y396233*
Y404035*
X356693Y395669D02*
X359843D01*
X360827Y396654*
X371063*
X354724Y391732D02*
X360375D01*
X363327Y394685*
X371063*
X351969Y394882D02*
X351772Y395079D01*
X344685*
X371063Y396654D02*
Y396686D01*
Y398622D02*
X360126D01*
X359929Y398819*
X351575*
X416339Y398622D02*
X423542D01*
X427676Y402756*
X433858*
X416339Y396654D02*
X425591D01*
X426575Y397638*
X429751*
X429921Y397468D02*
X432454Y400000D01*
X438117*
X442323Y404206*
Y407972*
X429921Y397468D02*
X429751Y397638D01*
X429921Y389370D02*
X427165D01*
X425984Y390551*
X424409*
X429921Y393307D02*
X425984D01*
Y393701*
X429921Y395276D02*
Y397468D01*
X437402Y390354D02*
X436417Y391339D01*
X429921*
X450394Y392520D02*
X449606Y393307D01*
X444882*
Y395276D02*
X447763D01*
X453937Y401450*
Y410335*
X316929Y407874D02*
X322638D01*
X316535Y402756D02*
X322638D01*
X333661Y404035D02*
X337402Y407776D01*
Y413019*
X339934Y415551*
X344685*
X333661Y404161D02*
X327389Y410433D01*
X322638*
X344685Y407874D02*
X360630D01*
X344685Y400197D02*
X337500D01*
X333661Y404035*
X356693Y401575D02*
X352491D01*
X351310Y402756*
X344685*
X364961Y408661D02*
X365157Y408858D01*
X371063Y408432D02*
Y408465D01*
Y400591D02*
X364370D01*
X363386Y401575*
X360236*
X371063Y402559D02*
X366437D01*
X363681Y405315*
X344685*
X371063Y404528D02*
X368544D01*
X365354Y407718*
Y408661*
X365157Y408858*
X371063Y408465D02*
Y410765D01*
X368048Y413780*
X359449*
X397244Y406693D02*
X402362Y411811D01*
X418898*
X397244Y406693D02*
X388420D01*
X382874Y412239*
Y416339*
X398819Y402362D02*
X401575D01*
X405709Y406496*
X416339*
Y408465D02*
X420539D01*
X420735Y408661*
X423228*
X416339Y400591D02*
X420439D01*
X425360Y405512*
X427165*
X433858Y402756D02*
Y407972D01*
X316535Y412992D02*
X322638D01*
Y415551*
Y418110D02*
Y430477D01*
X333499Y441339*
X336713*
X344685Y415551D02*
Y418110D01*
Y412992D02*
X350000D01*
X351181Y414173*
X354331*
X344685Y410433D02*
X350000D01*
X350197Y410630*
X354331*
X378937Y416339D02*
X369519D01*
X368141Y417717*
X352756*
X384843Y416339D02*
Y430118D01*
X387402Y432677*
X393936*
X395445Y434186*
Y438386*
X388780Y416339D02*
Y422638D01*
X387795Y423622*
X390748Y416339D02*
X390715D01*
Y425197*
X390551*
X390945Y409843D02*
X389961D01*
X386811Y412992*
Y416339*
X392717D02*
Y422638D01*
X393307Y423228*
X394685Y416339D02*
Y420778D01*
X395788Y421881*
Y425865*
X396654Y416339D02*
Y419529D01*
X398150Y421026*
X408465Y416339D02*
X416500D01*
X417484Y417323*
X423228*
X464173Y409291D02*
Y409544D01*
X453937*
Y410335*
X329921Y424803D02*
X336713D01*
Y425000*
X387795Y428346D02*
X388189Y428740D01*
X396422*
X398150Y421026D02*
Y427012D01*
X396422Y428740*
X395788Y425865D02*
X395669Y425984D01*
X413780Y423228D02*
Y429724D01*
X413878*
X430709Y426378D02*
X436417D01*
Y426476*
X424606Y426673D02*
X420347D01*
X419291Y427729*
Y428078*
X417645Y429724*
X413878*
X448425Y419295D02*
X453937D01*
Y419587*
X448819Y419291D02*
X448425D01*
Y419295*
X464173Y419291D02*
X453937D01*
Y419587*
X329528Y430315D02*
Y431102D01*
X331693Y433268*
X336713*
X436417Y435728D02*
X435765D01*
Y439495*
X433898Y441363*
Y446063*
X417717Y448031D02*
Y448425D01*
X421260Y451969*
X432094*
X432953Y452828*
Y456496*
X341701Y433268D02*
X343898D01*
X350228D02*
X348031D01*
X341701Y425000D02*
X343898D01*
X350228D02*
X348031D01*
X341701Y441339D02*
X343898D01*
X350228D02*
X348031D01*
X345965Y446094D02*
Y443898D01*
X344291Y369654D02*
Y371850D01*
Y378181D02*
Y375984D01*
X339535Y373917D02*
X341732D01*
X352854Y365913D02*
Y368110D01*
X357118Y370669D02*
X354921D01*
X352854Y375425D02*
Y373228D01*
X369094Y429362D02*
Y427165D01*
X364339Y425098D02*
X366535D01*
X369094Y420835D02*
Y423031D01*
X373850Y425098D02*
X371654D01*
X424606Y431661D02*
Y433858D01*
X429362Y435925D02*
X427165D01*
X424606Y440189D02*
Y437992D01*
X419850Y435925D02*
X422047D01*
X363220Y325787D02*
X361024D01*
X359528Y330484D02*
Y328287D01*
Y321091D02*
Y323287D01*
X354528Y330484D02*
Y328287D01*
X350835Y325787D02*
X353031D01*
X354528Y321091D02*
Y323287D01*
X408890Y429724D02*
X406693D01*
X404626Y424969D02*
Y427165D01*
X373000Y356299D02*
X375197D01*
X377264Y361055D02*
Y358858D01*
X409614Y438386D02*
X411811D01*
X418142D02*
X415945D01*
X413878Y443142D02*
Y440945D01*
X376575Y449378D02*
Y451575D01*
X381331Y453642D02*
X379134D01*
X371819D02*
X374016D01*
X339437Y418110D02*
X341634D01*
X376575Y464795D02*
Y462598D01*
X371819Y460531D02*
X374016D01*
X381331D02*
X379134D01*
X411742Y406496D02*
X413939D01*
X375660D02*
X373463D01*
X405539Y449043D02*
X407736D01*
X410236Y443846D02*
Y446043D01*
G54D35*
X432843Y325786D02*
X437978D01*
X439586Y327394*
Y330944*
X401260Y337441D02*
X411457D01*
X414961Y340945*
X439586*
Y337634*
Y334084*
Y330944*
X432843Y336026D02*
X437978D01*
X439586Y337634*
X432843Y332476D02*
X437978D01*
X439586Y334084*
X432843Y329336D02*
X437978D01*
X439586Y330944*
X335531Y344488D02*
Y352559D01*
X352756Y339370D02*
X361713Y348327D01*
X368701*
X352756Y339370D02*
X335906D01*
X335531Y339745*
Y344488*
X368701Y348327D02*
X368012D01*
Y356299*
X439586Y340945D02*
X442126Y343485D01*
Y347638*
X368012Y356299D02*
Y365059D01*
X367717Y365354*
X448819Y359252D02*
Y363405D01*
X447263Y364961*
X426457*
X425098Y366320*
Y371063*
X359843Y377953D02*
X357874D01*
X352657Y383169*
X350787*
X434350Y371063D02*
Y375806D01*
X433779Y376378*
X428740*
X444882Y370177D02*
X443996Y371063D01*
X434350*
X344291Y383169D02*
X350787D01*
X437795Y379528D02*
X438189Y380315D01*
X443996*
X444882Y379429D02*
X443996Y380315D01*
X423228Y408661D02*
Y417323D01*
Y420276*
X424606Y421654*
Y426673*
X433858Y417224D02*
X426083D01*
X425984Y417323*
X423228*
X433858Y417224D02*
X442323D01*
Y421850*
X444094Y423622*
X362992Y434252D02*
Y434350D01*
X369094*
X386445Y438386D02*
Y439586D01*
X377165*
Y444390*
X376575*
X395445Y438386D02*
X404626D01*
X376575Y444390D02*
X370866D01*
X370768Y444488*
X363189*
G54D36*
X330610Y374016D02*
Y382677D01*
X337008*
X399213Y449043D02*
X387402D01*
Y449803*
X400138Y458043D02*
Y469094D01*
X399803*
X399213Y458043D02*
X400138D01*
X410236D02*
Y469094D01*
X409803*
X363189Y464173D02*
X368799Y469783D01*
X376575*
X387402Y466732D02*
Y469783D01*
X376575*
G54D37*
X392126Y317323D03*
X416142Y323622D03*
Y327559D03*
X370079Y333858D03*
X415748Y332283D03*
Y336220D03*
X418110Y353543D03*
X354331Y361024D03*
X359449D03*
X367717Y365354D03*
X374016D03*
X390945Y366535D03*
X399606Y361024D03*
X394882Y364173D03*
X419291Y366535D03*
X420079Y362992D03*
X427559Y361417D03*
X454331Y365354D03*
X316535Y374409D03*
X359843Y377953D03*
X366929Y372835D03*
X396850Y376772D03*
X418110Y374409D03*
X428740Y376378D03*
X316535Y382677D03*
X355906Y387008D03*
X366142Y382677D03*
X363386Y387008D03*
X376772Y380709D03*
X424409Y384646D03*
X429921Y379528D03*
X427559Y381890D03*
X437795Y379528D03*
X450394Y384252D03*
X314173Y397638D03*
X316535Y394488D03*
X351575Y398819D03*
X356693Y395669D03*
X354724Y391732D03*
X351969Y394882D03*
X366142Y389764D03*
X425984Y393701D03*
X424409Y390551D03*
X450394Y392520D03*
X316929Y407874D03*
X316535Y402756D03*
X360236Y401575D03*
X360630Y407874D03*
X356693Y401575D03*
X364961Y408661D03*
X398819Y402362D03*
X427165Y405512D03*
X423228Y408661D03*
X433858Y402756D03*
X316535Y412992D03*
X354331Y414173D03*
Y410630D03*
X359449Y413780D03*
X352756Y417717D03*
X390945Y409843D03*
X418898Y411811D03*
X329921Y424803D03*
X387795Y428346D03*
Y423622D03*
X390551Y425197D03*
X393307Y423228D03*
X395669Y425984D03*
X413780Y423228D03*
X430709Y426378D03*
X448819Y419291D03*
X444094Y423622D03*
X329528Y430315D03*
X362992Y434252D03*
X417717Y448031D03*
G54D38*
X471076Y393504D02*
G75*
G03X471076I-7887J0D01*
G01X455342Y337748D02*
G03Y449653I-61641J55953D01*
X455108Y449696I-145J-132*
G01X448061Y456560D02*
G03X455108Y449696I4695J-2229D01*
G01X448061Y456560D02*
G03X448012Y456793I-178J84D01*
X368805Y473140I-54311J-63092*
X368864Y472755I59J-188*
G01X371891*
G03X372065Y472861I-0J197*
G01X374016Y474047D02*
G03X372065Y472861I-0J-2197D01*
G01X374016Y474047D02*
X379134D01*
X381084Y472861D02*
G03X379134Y474047I-1950J-1011D01*
G01X381084Y472861D02*
G03X381259Y472755I175J91D01*
G01X381783*
G03X381962Y472869I0J197*
G01X383957Y474146D02*
G03X381962Y472869I-0J-2197D01*
G01X383957Y474146D02*
X390846D01*
X393043Y471949D02*
G03X390846Y474146I-2197J-0D01*
G01X393043Y471949D02*
Y461516D01*
X390846Y459319D02*
G03X393043Y461516I0J2197D01*
G01X390846Y459319D02*
X383957D01*
X381760Y461516D02*
G03X383957Y459319I2197J-0D01*
G01X381760Y461516D02*
Y466615D01*
G03X381563Y466812I-197J-0*
G01X381259*
G03X381084Y466706I0J-197*
G01X379134Y465520D02*
G03X381084Y466706I-0J2197D01*
G01X379134Y465520D02*
X374016D01*
X372065Y466706D02*
G03X374016Y465520I1951J1011D01*
G01X372065Y466706D02*
G03X371891Y466812I-174J-91D01*
G01X370112*
G03X369972Y466754I-0J-197*
G01X368377Y465158*
G03X368322Y464988I139J-139*
G01X365316Y459432D02*
G03X368322Y464988I-2127J4741D01*
G01X365316Y459432D02*
G03Y459072I81J-180D01*
G01X366127Y450044D02*
G03X365316Y459072I-2938J4287D01*
G01X366127Y450044D02*
G03X366234Y449685I111J-163D01*
G01X368386Y447488D02*
G03X366234Y449685I-2197J0D01*
G01X368386Y447488D02*
Y447066D01*
G03X368583Y446869I197J0*
G01X370768*
X371419Y446778D02*
G03X370768Y446869I-651J-2290D01*
G01X371419Y446778D02*
G03X371473Y446771I54J190D01*
G01X371677*
G03X371870Y446926I0J197*
G01X374016Y448654D02*
G03X371870Y446926I-0J-2197D01*
G01X374016Y448654D02*
X379134D01*
X381331Y446457D02*
G03X379134Y448654I-2197J-0D01*
G01X381331Y446457D02*
Y442323D01*
Y442319*
X381331*
G03X381685Y442201I197J-0*
G01X382319Y442772D02*
G03X381685Y442201I1126J-1886D01*
G01X382319Y442772D02*
G03X382361Y443077I-101J169D01*
G01X381760Y444587D02*
G03X382361Y443077I2197J-0D01*
G01X381760Y444587D02*
Y455020D01*
X383957Y457217D02*
G03X381760Y455020I-0J-2197D01*
G01X383957Y457217D02*
X390846D01*
X393043Y455020D02*
G03X390846Y457217I-2197J-0D01*
G01X393043Y455020D02*
Y452212D01*
G03X393240Y452015I197J-0*
G01X394325*
G03X394521Y452198I-0J197*
G01X395001Y453420D02*
G03X394521Y452198I1712J-1377D01*
G01X395001Y453420D02*
G03Y453667I-154J123D01*
G01X394516Y455043D02*
G03X395001Y453667I2197J0D01*
G01X394516Y455043D02*
Y461043D01*
X396713Y463240D02*
G03X394516Y461043I-0J-2197D01*
G01X396713Y463240D02*
X396969D01*
G03X397166Y463437I0J197*
G01Y463552*
G03X396969Y463749I-197J0*
G01X396655*
X394458Y465946D02*
G03X396655Y463749I2197J0D01*
G01X394458Y465946D02*
Y472243D01*
X396655Y474440D02*
G03X394458Y472243I-0J-2197D01*
G01X396655Y474440D02*
X402951D01*
X405145Y472370D02*
G03X402951Y474440I-2194J-127D01*
G01X405145Y472370D02*
G03X405500Y472265I196J12D01*
G01X413277Y465032D02*
G03X405500Y472265I-3474J4062D01*
G01X413277Y465032D02*
G03X413208Y464882I128J-150D01*
G01Y463342*
G03X413350Y463153I197J-0*
G01X414933Y461043D02*
G03X413350Y463153I-2197J0D01*
G01X414933Y461043D02*
Y455043D01*
X414448Y453667D02*
G03X414933Y455043I-1712J1376D01*
G01X414448Y453667D02*
G03Y453420I154J-124D01*
G01X414933Y452043D02*
G03X414448Y453420I-2197J0D01*
G01X414933Y452043D02*
Y450499D01*
G03X415272Y450363I197J0*
G01X417919Y451403D02*
G03X415272Y450363I-202J-3372D01*
G01X417919Y451403D02*
G03X418069Y451461I11J197D01*
G01X419919Y453310*
X421260Y453865D02*
G03X419919Y453310I-0J-1896D01*
G01X421260Y453865D02*
X423636D01*
G03X423829Y454100I0J197*
G01X423787Y454528D02*
G03X423829Y454100I2197J-0D01*
G01X423787Y454528D02*
Y458465D01*
X425984Y460661D02*
G03X423787Y458465I0J-2196D01*
G01X425984Y460661D02*
X429921D01*
X431093Y460323D02*
G03X429921Y460661I-1172J-1858D01*
G01X431093Y460323D02*
G03X431277Y460309I105J167D01*
G01X435340Y459910D02*
G03X431277Y460309I-2387J-3414D01*
G01X435340Y459910D02*
G03X435566I113J161D01*
G01Y453083D02*
G03Y459910I2387J3413D01*
G01Y453083D02*
G03X435340I-113J-162D01*
G01X434946Y452839D02*
G03X435340Y453083I-1993J3657D01*
G01X434946Y452839D02*
G03X434844Y452681I94J-173D01*
G01X434359Y451555D02*
G03X434844Y452681I-1406J1273D01*
G01X434359Y451555D02*
G03X434483Y451227I146J-133D01*
G01X438336Y448767D02*
G03X434483Y451227I-4438J-2704D01*
G01X438336Y448767D02*
G03X438701Y448869I168J102D01*
G01Y449063*
X440898Y451260D02*
G03X438701Y449063I-0J-2197D01*
G01X440898Y451260D02*
X446898D01*
X449095Y449063D02*
G03X446898Y451260I-2197J-0D01*
G01X449095Y449063D02*
Y443063D01*
X446898Y440866D02*
G03X449095Y443063I-0J2197D01*
G01X446898Y440866D02*
X440898D01*
X438701Y443063D02*
G03X440898Y440866I2197J-0D01*
G01X438701Y443063D02*
Y443257D01*
G03X438336Y443359I-197J-0*
G01X436638Y441647D02*
G03X438336Y443359I-2740J4416D01*
G01X436638Y441647D02*
G03X436602Y441341I104J-167D01*
G01X437107Y440837*
X437555Y440124D02*
G03X437107Y440837I-1790J-629D01*
G01X437555Y440124D02*
G03X437741Y439992I186J65D01*
G01X438976*
X441173Y437795D02*
G03X438976Y439992I-2197J0D01*
G01X441173Y437795D02*
Y433661D01*
X438976Y431465D02*
G03X441173Y433661I0J2196D01*
G01X438976Y431465D02*
X433858D01*
X431661Y433661D02*
G03X433858Y431465I2197J0D01*
G01X431661Y433661D02*
Y437795D01*
X432630Y439617D02*
G03X431661Y437795I1228J-1822D01*
G01X432630Y439617D02*
G03X432659Y439919I-110J163D01*
G01X432556Y440022*
X432018Y441111D02*
G03X432556Y440022I1880J252D01*
G01X432018Y441111D02*
G03X431898Y441266I-195J-27D01*
G01X429080Y444114D02*
G03X431898Y441266I4818J1949D01*
G01X429080Y444114D02*
G03X428715I-182J-74D01*
G01X418897Y444650D02*
G03X428715Y444114I5001J1413D01*
G01X418896Y444650D02*
G03X418653Y444786I-189J-53D01*
G01X415234Y445740D02*
G03X418653Y444786I2483J2291D01*
G01X415234Y445740D02*
G03X414896Y445643I-144J-133D01*
G01X412736Y443846D02*
G03X414896Y445643I0J2197D01*
G01X412736Y443846D02*
X407736D01*
X405539Y446043D02*
G03X407736Y443846I2197J0D01*
G01X405539Y446043D02*
Y452043D01*
X406024Y453420D02*
G03X405539Y452043I1712J-1377D01*
G01X406024Y453420D02*
G03Y453667I-153J123D01*
G01X405539Y455043D02*
G03X406024Y453667I2197J0D01*
G01X405539Y455043D02*
Y461043D01*
X407123Y463153D02*
G03X405539Y461043I613J-2110D01*
G01X407123Y463153D02*
G03X407265Y463342I-55J189D01*
G01Y464275*
G03X407165Y464446I-197J-0*
G01X405500Y465924D02*
G03X407165Y464446I4303J3170D01*
G01X405500Y465924D02*
G03X405145Y465819I-159J-117D01*
G01X403277Y463774D02*
G03X405145Y465819I-326J2172D01*
G01X403277Y463774D02*
G03X403109Y463579I29J-195D01*
G01Y462829*
G03X403175Y462682I197J0*
G01X403909Y461043D02*
G03X403175Y462682I-2196J0D01*
G01X403909Y461043D02*
Y455043D01*
X403425Y453667D02*
G03X403909Y455043I-1712J1376D01*
G01X403425Y453667D02*
G03Y453420I153J-124D01*
G01X403909Y452043D02*
G03X403425Y453420I-2196J0D01*
G01X403909Y452043D02*
Y446043D01*
X401713Y443846D02*
G03X403909Y446043I-0J2197D01*
G01X401713Y443846D02*
X396713D01*
X394521Y445889D02*
G03X396713Y443846I2192J154D01*
G01X394521Y445889D02*
G03X394325Y446072I-196J-14D01*
G01X393240*
G03X393043Y445875I0J-197*
G01Y444587*
X392687Y443387D02*
G03X393043Y444587I-1841J1200D01*
G01X392687Y443387D02*
G03X392852Y443083I165J-107D01*
G01X398445*
X400317Y442036D02*
G03X398445Y443083I-1872J-1150D01*
G01X400317Y442036D02*
G03X400655Y442041I167J103D01*
G01X402559Y443142D02*
G03X400655Y442041I0J-2197D01*
G01X402559Y443142D02*
X406693D01*
X408890Y440945D02*
G03X406693Y443142I-2197J-0D01*
G01X408890Y440945D02*
Y435827D01*
X408170Y434201D02*
G03X408890Y435827I-1477J1626D01*
G01X408170Y434201D02*
G03Y433909I133J-146D01*
G01X408890Y432283D02*
G03X408170Y433909I-2197J0D01*
G01X408890Y432283D02*
Y427165D01*
X406693Y424968D02*
G03X408890Y427165I-0J2197D01*
G01X406693Y424968D02*
X402559D01*
X400434Y426606D02*
G03X402559Y424968I2125J559D01*
G01X400434Y426606D02*
G03X400047Y426556I-190J-50D01*
G01Y421112*
G03X400267Y420917I197J0*
G01X401510Y420780D02*
G03X400267Y420917I-919J-2641D01*
G01X401510Y420780D02*
G03X401640I65J186D01*
G01X403479D02*
G03X401640I-920J-2641D01*
G01X403479D02*
G03X403608I64J186D01*
G01X405447D02*
G03X403608I-919J-2641D01*
G01X405447D02*
G03X405577I65J186D01*
G01X407467Y420762D02*
G03X405577Y420780I-971J-2623D01*
G01X407467Y420762D02*
G03X407597Y420759I68J184D01*
G01X411236Y418411D02*
G03X407597Y420759I-2771J-301D01*
G01X411236Y418411D02*
G03X411431Y418235I195J21D01*
G01X415632*
G03X415772Y418293I0J197*
G01X416143Y418664*
X417484Y419220D02*
G03X416143Y418664I-0J-1897D01*
G01X417484Y419220D02*
X420650D01*
G03X420847Y419417I0J197*
G01Y420276*
X421545Y421959D02*
G03X420847Y420276I1683J-1683D01*
G01X421545Y421959D02*
X421707Y422122D01*
G03X421607Y422454I-139J139*
G01X419850Y424606D02*
G03X421607Y422454I2197J0D01*
G01X419850Y424606D02*
Y424698D01*
G03X419719Y424884I-196J-0*
G01X419006Y425332D02*
G03X419719Y424884I1341J1341D01*
G01X419006Y425332D02*
X418183Y426154D01*
G03X417872Y426110I-139J-139*
G01X416822Y425151D02*
G03X417872Y426110I-877J2014D01*
G01X416822Y425151D02*
G03X416729Y424875I79J-180D01*
G01X410870Y424945D02*
G03X416729Y424875I2910J-1717D01*
G01X410870Y424945D02*
G03X410792Y425219I-169J100D01*
G01X409614Y427165D02*
G03X410792Y425219I2197J0D01*
G01X409614Y427165D02*
Y432283D01*
X410334Y433909D02*
G03X409614Y432283I1477J-1626D01*
G01X410334Y433909D02*
G03Y434201I-133J146D01*
G01X409614Y435827D02*
G03X410334Y434201I2197J-0D01*
G01X409614Y435827D02*
Y440945D01*
X411811Y443142D02*
G03X409614Y440945I0J-2197D01*
G01X411811Y443142D02*
X415945D01*
X418142Y440945D02*
G03X415945Y443142I-2197J-0D01*
G01X418142Y440945D02*
Y435827D01*
X417422Y434201D02*
G03X418142Y435827I-1477J1626D01*
G01X417422Y434201D02*
G03Y433909I133J-146D01*
G01X418142Y432283D02*
G03X417422Y433909I-2197J0D01*
G01X418142Y432283D02*
Y431700D01*
G03X418273Y431514I197J-0*
G01X418986Y431066D02*
G03X418273Y431514I-1341J-1342D01*
G01X418986Y431066D02*
X420002Y430050D01*
G03X420298Y430070I140J139*
G01X422047Y430937D02*
G03X420298Y430070I0J-2197D01*
G01X422047Y430937D02*
X427165D01*
X429182Y429612D02*
G03X427165Y430937I-2017J-872D01*
G01X429182Y429612D02*
G03X429437Y429507I181J78D01*
G01X431748Y429592D02*
G03X429437Y429507I-1039J-3214D01*
G01X431748Y429592D02*
G03X431977Y429678I60J187D01*
G01X433858Y430740D02*
G03X431977Y429678I0J-2197D01*
G01X433858Y430740D02*
X438976D01*
X441173Y428543D02*
G03X438976Y430740I-2197J0D01*
G01X441173Y428543D02*
Y425937D01*
G03X441520Y425809I197J-0*
G01X447338Y422680D02*
G03X441520Y425809I-3244J942D01*
G01X447338Y422680D02*
G03X447598Y422441I189J-55D01*
G01X449269Y422639D02*
G03X447598Y422441I-450J-3348D01*
G01X449269Y422639D02*
G03X449467Y422737I27J195D01*
G01X451378Y423850D02*
G03X449467Y422737I-0J-2196D01*
G01X451378Y423850D02*
X456496D01*
X458469Y422619D02*
G03X456496Y423850I-1973J-965D01*
G01X458469Y422619D02*
G03X458842Y422684I177J87D01*
G01X461025Y424637D02*
G03X458842Y422684I-0J-2197D01*
G01X461025Y424637D02*
X467322D01*
X469518Y422440D02*
G03X467322Y424637I-2196J-0D01*
G01X469518Y422440D02*
Y416143D01*
X467449Y413950D02*
G03X469518Y416143I-127J2193D01*
G01X467449Y413950D02*
G03X467344Y413595I11J-197D01*
G01X459132Y407515D02*
G03X467344Y413595I5041J1776D01*
G01X459132Y407515D02*
G03X458946Y407647I-186J-65D01*
G01X458746*
G03X458561Y407517I-0J-197*
G01X456496Y406071D02*
G03X458561Y407517I0J2197D01*
G01X456496Y406071D02*
X456031D01*
G03X455834Y405874I-0J-197*
G01Y401450*
X455278Y400108D02*
G03X455834Y401450I-1341J1342D01*
G01X455278Y400108D02*
X451260Y396090D01*
G03X451343Y395761I139J-140*
G01X452346Y389763D02*
G03X451343Y395761I-1952J2757D01*
G01X452346Y389763D02*
G03X452321Y389463I114J-160D01*
G01X455278Y386506*
X455800Y385521D02*
G03X455278Y386506I-1863J-356D01*
G01X455800Y385521D02*
G03X455993Y385361I193J37D01*
G01X456932*
X458273Y384806D02*
G03X456932Y385361I-1341J-1341D01*
G01X458273Y384806D02*
X461550Y381529D01*
G03X461763Y381486I139J139*
G01X466950Y372232D02*
G03X461763Y381486I-3170J4303D01*
G01X466950Y372232D02*
G03X467055Y371877I117J-159D01*
G01X469125Y369684D02*
G03X467055Y371877I-2197J-0D01*
G01X469125Y369684D02*
Y363387D01*
X466928Y361190D02*
G03X469125Y363387I-0J2197D01*
G01X466928Y361190D02*
X460631D01*
X458437Y363271D02*
G03X460631Y361190I2194J116D01*
G01X458437Y363271D02*
G03X458241Y363457I-196J-10D01*
G01X457228*
G03X457069Y363376I0J-196*
G01X453115Y362203D02*
G03X457069Y363376I1216J3151D01*
G01X453115Y362203D02*
G03X452858Y361953I-71J-184D01*
G01X452984Y361220D02*
G03X452858Y361953I-2197J0D01*
G01X452984Y361220D02*
Y357283D01*
X450787Y355087D02*
G03X452984Y357283I0J2196D01*
G01X450787Y355087D02*
X446850D01*
X445679Y355425D02*
G03X446850Y355087I1171J1858D01*
G01X445679Y355425D02*
G03X445495Y355439I-105J-167D01*
G01X441432Y355839D02*
G03X445495Y355439I2387J3413D01*
G01X441432Y355839D02*
G03X441206I-113J-162D01*
G01X436432D02*
G03X441206I2387J3413D01*
G01X436432D02*
G03X436206I-113J-162D01*
G01X429727Y358474D02*
G03X436206Y355839I4092J778D01*
G01X429727Y358474D02*
G03X429425Y358601I-194J-37D01*
G01X424821Y359439D02*
G03X429425Y358601I2738J1978D01*
G01X424821Y359439D02*
G03X424662Y359520I-159J-115D01*
G01X424213*
G03X424073Y359463I-0J-196*
G01X421537Y356926*
X420476Y356392D02*
G03X421537Y356926I-280J1876D01*
G01X420476Y356392D02*
G03X420374Y356051I29J-195D01*
G01X421309Y352457D02*
G03X420374Y356051I-3199J1086D01*
G01X421309Y352457D02*
G03X421492Y352197I186J-64D01*
G01X423612Y350428D02*
G03X421492Y352197I-2155J-428D01*
G01X423612Y350428D02*
G03X423955Y350338I193J38D01*
G01X429513Y351051D02*
G03X423955Y350338I-2387J-3413D01*
G01X429513Y351051D02*
G03X429739I113J162D01*
G01X434513D02*
G03X429739I-2387J-3413D01*
G01X434513D02*
G03X434739I113J162D01*
G01X438802Y351451D02*
G03X434739Y351051I-1676J-3813D01*
G01X438802Y351451D02*
G03X438986Y351465I79J180D01*
G01X440157Y351803D02*
G03X438986Y351465I0J-2197D01*
G01X440157Y351803D02*
X444094D01*
X446291Y349606D02*
G03X444094Y351803I-2197J0D01*
G01X446291Y349606D02*
Y345669D01*
X444651Y343544D02*
G03X446291Y345669I-557J2125D01*
G01X444651Y343544D02*
G03X444504Y343364I50J-190D01*
G01X443810Y341801D02*
G03X444504Y343364I-1684J1684D01*
G01X443810Y341801D02*
X442025Y340016D01*
G03X441967Y339877I139J-139*
G01Y337634*
Y334084*
Y330944*
Y327394*
X441545Y326041D02*
G03X441967Y327394I-1959J1353D01*
G01X441545Y326041D02*
G03X441821Y325768I162J-112D01*
X448012Y330608I-48120J67933*
X448061Y330842I-129J149*
G01X455108Y337705D02*
G03X448061Y330842I-2352J-4634D01*
G01X455108Y337705D02*
G03X455342Y337748I89J176D01*
G01X365631Y361197D02*
Y362603D01*
G03X365560Y362755I-197J0*
G01X364356Y365697D02*
G03X365560Y362755I3361J-343D01*
G01X364356Y365697D02*
G03X364160Y365913I-196J20D01*
G01X360039*
X357842Y368110D02*
G03X360039Y365913I2197J0D01*
G01X357842Y368110D02*
Y373228D01*
X358361Y374645D02*
G03X357842Y373228I1678J-1417D01*
G01X358361Y374645D02*
G03X358300Y374947I-151J127D01*
G01X357440Y375578D02*
G03X358300Y374948I2403J2375D01*
G01X357440Y375578D02*
G03X357344Y375631I-140J-139D01*
G01X356190Y376269D02*
G03X357344Y375631I1684J1684D01*
G01X356190Y376269D02*
X351729Y380731D01*
G03X351590Y380788I-139J-140*
G01X350787*
X349189*
G03X348997Y380633I-0J-197*
G01X346850Y378905D02*
G03X348997Y380633I0J2197D01*
G01X346850Y378905D02*
X341732D01*
X340118Y379612D02*
G03X341732Y378905I1614J1490D01*
G01X340118Y379612D02*
G03X339840Y379623I-144J-134D01*
G01X334862Y379107D02*
G03X339840Y379623I2146J3570D01*
G01X334862Y379107D02*
G03X334589Y379036I-102J-168D01*
G01X334154Y378492D02*
G03X334589Y379036I-1477J1626D01*
G01X334154Y378492D02*
G03Y378201I133J-146D01*
G01X334874Y376575D02*
G03X334154Y378201I-2197J-0D01*
G01X334874Y376575D02*
Y371457D01*
X332677Y369260D02*
G03X334874Y371457I0J2197D01*
G01X332677Y369260D02*
X328543D01*
X326346Y371457D02*
G03X328543Y369260I2197J-0D01*
G01X326346Y371457D02*
Y376575D01*
X327066Y378201D02*
G03X326346Y376575I1477J-1626D01*
G01X327066Y378201D02*
G03Y378492I-132J145D01*
G01X326346Y380118D02*
G03X327066Y378492I2197J0D01*
G01X326346Y380118D02*
Y385236D01*
X327404Y387115D02*
G03X326346Y385236I1139J-1879D01*
G01X327404Y387115D02*
G03X327442Y387422I-102J168D01*
G01X327210Y387653*
G03X326958Y387675I-139J-139*
G01X325689Y387272D02*
G03X326958Y387675I-0J2197D01*
G01X325689Y387272D02*
X324958D01*
G03X324832Y386924I0J-197*
G01X325622Y385236D02*
G03X324832Y386924I-2197J0D01*
G01X325622Y385236D02*
Y380118D01*
X324903Y378492D02*
G03X325622Y380118I-1478J1626D01*
G01X324903Y378492D02*
G03Y378201I132J-146D01*
G01X325622Y376575D02*
G03X324903Y378201I-2197J-0D01*
G01X325622Y376575D02*
Y371457D01*
X323425Y369260D02*
G03X325622Y371457I0J2197D01*
G01X323425Y369260D02*
X319291D01*
X317163Y370910D02*
G03X319291Y369260I2128J547D01*
G01X317163Y370910D02*
G03X316949Y371057I-190J-49D01*
G01X313475Y372979D02*
G03X316949Y371057I3060J1430D01*
G01X313475Y372979D02*
G03X313106Y372846I-178J-83D01*
X332059Y337748I80595J20855*
X332294Y337705I146J133*
G01X333432Y338124D02*
G03X332294Y337705I1214J-5053D01*
G01X333432Y338124D02*
G03X333550Y338425I-46J191D01*
G01X333155Y339601D02*
G03X333550Y338425I2376J144D01*
G01X333155Y339601D02*
G03X333000Y339782I-197J-11D01*
G01X331268Y341929D02*
G03X333000Y339782I2197J0D01*
G01X331268Y341929D02*
Y347047D01*
X331735Y348402D02*
G03X331268Y347047I1730J-1355D01*
G01X331735Y348402D02*
G03Y348645I-155J122D01*
G01X331268Y350000D02*
G03X331735Y348645I2197J0D01*
G01X331268Y350000D02*
Y355118D01*
X333465Y357315D02*
G03X331268Y355118I-0J-2197D01*
G01X333465Y357315D02*
X337598D01*
X339795Y355118D02*
G03X337598Y357315I-2197J0D01*
G01X339795Y355118D02*
Y350000D01*
X339328Y348645D02*
G03X339795Y350000I-1730J1355D01*
G01X339328Y348645D02*
G03Y348402I155J-121D01*
G01X339795Y347047D02*
G03X339328Y348402I-2197J0D01*
G01X339795Y347047D02*
Y341948D01*
G03X339992Y341751I197J0*
G01X340323*
G03X340520Y341948I-0J197*
G01Y347047*
X340987Y348402D02*
G03X340520Y347047I1730J-1355D01*
G01X340987Y348402D02*
G03Y348645I-155J122D01*
G01X340520Y350000D02*
G03X340987Y348645I2197J0D01*
G01X340520Y350000D02*
Y355118D01*
X342717Y357315D02*
G03X340520Y355118I-0J-2197D01*
G01X342717Y357315D02*
X346850D01*
X348771Y356185D02*
G03X346850Y357315I-1921J-1067D01*
G01X348771Y356185D02*
G03X349082Y356142I172J96D01*
G01X349990Y357050*
X350703Y357498D02*
G03X349990Y357050I628J-1789D01*
G01X350703Y357498D02*
G03X350835Y357684I-65J186D01*
G01Y358209*
X351226Y359460D02*
G03X350835Y358209I1805J-1251D01*
G01X351226Y359460D02*
G03X351244Y359652I-162J112D01*
G01X356749Y363382D02*
G03X351244Y359652I-2418J-2358D01*
G01X356749Y363382D02*
G03X357031I141J138D01*
G01X362624Y359870D02*
G03X357031Y363382I-3175J1154D01*
G01X362624Y359870D02*
G03X362662Y359672I185J-67D01*
G01X363220Y358209D02*
G03X362662Y359672I-2196J-0D01*
G01X363220Y358209D02*
Y353209D01*
X361619Y351094D02*
G03X363220Y353209I-595J2115D01*
G01X361619Y351094D02*
G03X361675Y350708I53J-190D01*
G01X361713D02*
G03X361675I-0J-2381D01*
G01X361713D02*
X363803D01*
G03X363996Y350863I0J197*
G01X364486Y351837D02*
G03X363996Y350863I1656J-1443D01*
G01X364486Y351837D02*
G03X364470Y352112I-149J130D01*
G01X363748Y353740D02*
G03X364470Y352112I2197J0D01*
G01X363748Y353740D02*
Y358858D01*
X365476Y361004D02*
G03X363748Y358858I469J-2146D01*
G01X365476Y361004D02*
G03X365631Y361197I-42J193D01*
G01X385395Y433353D02*
G03X385256Y433689I-139J139D01*
G01X383445*
X381248Y435886D02*
G03X383445Y433689I2197J-0D01*
G01X381248Y435886D02*
Y437008D01*
G03X381051Y437205I-197J-0*
G01X377165*
X374784Y439586D02*
G03X377165Y437205I2381J-0D01*
G01X374784Y439586D02*
Y439929D01*
G03X374587Y440126I-197J0*
G01X374016*
X371870Y441854D02*
G03X374016Y440126I2146J469D01*
G01X371870Y441854D02*
G03X371677Y442009I-193J-42D01*
G01X370866*
X370214Y442100D02*
G03X370866Y442009I652J2290D01*
G01X370214Y442100D02*
G03X370161Y442107I-53J-190D01*
G01X368583*
G03X368386Y441910I-0J-197*
G01Y441488*
X366189Y439291D02*
G03X368386Y441488I-0J2197D01*
G01X366189Y439291D02*
X360189D01*
X357992Y441488D02*
G03X360189Y439291I2197J0D01*
G01X357992Y441488D02*
Y447488D01*
X360144Y449685D02*
G03X357992Y447488I45J-2197D01*
G01X360144Y449685D02*
G03X360251Y450044I-4J196D01*
G01X361062Y459072D02*
G03X360251Y450044I2127J-4741D01*
G01X361062Y459072D02*
G03Y459432I-81J180D01*
G01X364004Y469306D02*
G03X361062Y459432I-815J-5133D01*
G01X364004Y469306D02*
G03X364174Y469361I31J194D01*
G01X366698Y471885*
X366995Y472145D02*
G03X366698Y471885I1804J-2362D01*
G01X366995Y472145D02*
G03X366812Y472488I-119J156D01*
X339390Y456793I26889J-78787*
X339340Y456560I128J-149*
G01X332294Y449696D02*
G03X339340Y456560I2352J4635D01*
G01X332294Y449696D02*
G03X332059Y449653I-89J-175D01*
X313106Y414555I61642J-55952*
X313475Y414423I191J-49*
G01X317198Y416305D02*
G03X313475Y414423I-663J-3313D01*
G01X317198Y416305D02*
G03X317430Y416460I38J193D01*
G01X317512Y416766D02*
G03X317430Y416460I2075J-723D01*
G01X317512Y416766D02*
G03Y416895I-186J65D01*
G01X317390Y417618D02*
G03X317512Y416895I2197J0D01*
G01X317390Y417618D02*
Y418602D01*
X319587Y420799D02*
G03X317390Y418602I-0J-2197D01*
G01X319587Y420799D02*
X320544D01*
G03X320741Y420996I0J197*
G01Y430477*
X321297Y431819D02*
G03X320741Y430477I1341J-1342D01*
G01X321297Y431819D02*
X332158Y442680D01*
X332369Y442862D02*
G03X332158Y442680I1130J-1523D01*
G01X332369Y442862D02*
G03X332449Y443020I-117J158D01*
G01Y443898*
X334646Y446095D02*
G03X332449Y443898I-0J-2197D01*
G01X334646Y446095D02*
X338780D01*
X340976Y443898D02*
G03X338780Y446095I-2196J-0D01*
G01X340976Y443898D02*
Y438780D01*
X340509Y437425D02*
G03X340976Y438780I-1729J1355D01*
G01X340509Y437425D02*
G03Y437182I155J-122D01*
G01X340976Y435827D02*
G03X340509Y437182I-2196J-0D01*
G01X340976Y435827D02*
Y430709D01*
X340434Y429263D02*
G03X340976Y430709I-1654J1446D01*
G01X340434Y429263D02*
G03Y429004I148J-129D01*
G01X340976Y427559D02*
G03X340434Y429004I-2196J0D01*
G01X340976Y427559D02*
Y422441D01*
X340161Y420733D02*
G03X340976Y422441I-1381J1708D01*
G01X340161Y420733D02*
G03X340105Y420659I124J-153D01*
X340018Y420626I24J-195*
G01X338780Y420244D02*
G03X340018Y420626I-0J2197D01*
G01X338780Y420244D02*
X334646D01*
X332470Y422139D02*
G03X334646Y420244I2176J302D01*
G01X332470Y422139D02*
G03X332145Y422260I-195J-27D01*
G01X327597Y427255D02*
G03X332145Y422260I2324J-2452D01*
G01X327597Y427255D02*
G03X327576Y427558I-135J142D01*
G01X326191Y430845D02*
G03X327576Y427558I3337J-530D01*
G01X326191Y430845D02*
G03X325858Y431015I-194J31D01*
G01X324592Y429749*
G03X324535Y429610I140J-139*
G01Y420996*
G03X324732Y420799I197J0*
G01X325689*
X327886Y418602D02*
G03X325689Y420799I-2197J0D01*
G01X327886Y418602D02*
Y417618D01*
X327764Y416895D02*
G03X327886Y417618I-2075J723D01*
G01X327764Y416895D02*
G03Y416766I185J-64D01*
G01X327778Y416723D02*
G03X327764Y416766I-2089J-680D01*
G01X327778Y416723D02*
G03X327965Y416587I187J60D01*
G01X339357*
G03X339545Y416723I0J196*
G01X339559Y416766D02*
G03X339545Y416723I2075J-723D01*
G01X339559Y416766D02*
G03Y416895I-186J65D01*
G01X339437Y417618D02*
G03X339559Y416895I2197J0D01*
G01X339437Y417618D02*
Y418602D01*
X340253Y420311D02*
G03X339437Y418602I1381J-1709D01*
G01X340253Y420311D02*
G03X340309Y420384I-124J153D01*
X340396Y420417I-24J196*
G01X341634Y420799D02*
G03X340396Y420417I-0J-2197D01*
G01X341634Y420799D02*
X341989D01*
G03X342146Y421115I0J197*
G01X341701Y422441D02*
G03X342146Y421115I2197J-0D01*
G01X341701Y422441D02*
Y427559D01*
X342243Y429004D02*
G03X341701Y427559I1655J-1445D01*
G01X342243Y429004D02*
G03Y429263I-148J130D01*
G01X341701Y430709D02*
G03X342243Y429263I2197J-0D01*
G01X341701Y430709D02*
Y435827D01*
X342168Y437182D02*
G03X341701Y435827I1730J-1355D01*
G01X342168Y437182D02*
G03Y437425I-155J121D01*
G01X341701Y438780D02*
G03X342168Y437425I2197J-0D01*
G01X341701Y438780D02*
Y443898D01*
X343898Y446095D02*
G03X341701Y443898I-0J-2197D01*
G01X343898Y446095D02*
X348031D01*
X350228Y443898D02*
G03X348031Y446095I-2197J-0D01*
G01X350228Y443898D02*
Y438780D01*
X349761Y437425D02*
G03X350228Y438780I-1730J1355D01*
G01X349761Y437425D02*
G03Y437182I155J-122D01*
G01X350228Y435827D02*
G03X349761Y437182I-2197J-0D01*
G01X350228Y435827D02*
Y430709D01*
X349686Y429263D02*
G03X350228Y430709I-1655J1446D01*
G01X349686Y429263D02*
G03Y429004I148J-129D01*
G01X350228Y427559D02*
G03X349686Y429004I-2197J0D01*
G01X350228Y427559D02*
Y422441D01*
X349198Y420579D02*
G03X350228Y422441I-1167J1862D01*
G01X349198Y420579D02*
G03X349174Y420264I104J-166D01*
G01X349656Y419671D02*
G03X349174Y420264I-1920J-1069D01*
G01X349656Y419671D02*
G03X349989Y419654I172J96D01*
G01X355494Y419695D02*
G03X349989Y419654I-2738J-1978D01*
G01X355494Y419695D02*
G03X355653Y419613I159J115D01*
G01X368141*
X369483Y419058D02*
G03X368141Y419613I-1342J-1341D01*
G01X369483Y419058D02*
X370247Y418293D01*
G03X370387Y418235I140J139*
G01X375958*
G03X376154Y418413I-0J197*
G01X379857Y420780D02*
G03X376154Y418413I-920J-2641D01*
G01X379857Y420780D02*
G03X379986I64J186D01*
G01X381825D02*
G03X379986I-919J-2641D01*
G01X381825D02*
G03X381954I65J186D01*
G01X382757Y420933D02*
G03X381954Y420780I117J-2794D01*
G01X382757Y420933D02*
G03X382946Y421130I-8J197D01*
G01Y430118*
X383501Y431459D02*
G03X382946Y430118I1342J-1341D01*
G01X383501Y431459D02*
X385395Y433353D01*
X411998Y409635D02*
G03X411820Y409914I-178J82D01*
G01X403229*
G03X403090Y409856I0J-197*
G01X398585Y405352*
X397244Y404796D02*
G03X398585Y405352I0J1897D01*
G01X397244Y404796D02*
X388420D01*
X387078Y405352D02*
G03X388420Y404796I1342J1341D01*
G01X387078Y405352D02*
X381533Y410897D01*
X381084Y411610D02*
G03X381533Y410897I1790J629D01*
G01X381084Y411610D02*
G03X380899Y411742I-185J-65D01*
G01X379986Y411897D02*
G03X380899Y411742I920J2642D01*
G01X379986Y411897D02*
G03X379857I-65J-186D01*
G01X376154Y414264D02*
G03X379857Y411897I2783J275D01*
G01X376154Y414264D02*
G03X375958Y414442I-196J-19D01*
G01X370544*
G03X370404Y414106I-0J-197*
G01X372404Y412106*
X372854Y411388D02*
G03X372404Y412106I-1791J-623D01*
G01X372854Y411388D02*
G03X373029Y411257I186J65D01*
G01X375504Y407545D02*
G03X373029Y411257I-2641J920D01*
G01X375504Y407545D02*
G03Y407416I186J-65D01*
G01Y405577D02*
G03Y407416I-2641J919D01*
G01Y405577D02*
G03Y405447I186J-65D01*
G01Y403608D02*
G03Y405447I-2641J920D01*
G01Y403608D02*
G03Y403479I186J-65D01*
G01Y401640D02*
G03Y403479I-2641J919D01*
G01Y401640D02*
G03Y401510I186J-65D01*
G01Y399671D02*
G03Y401510I-2641J920D01*
G01Y399671D02*
G03Y399542I186J-65D01*
G01Y397703D02*
G03Y399542I-2641J919D01*
G01Y397703D02*
G03Y397573I186J-65D01*
G01Y395734D02*
G03Y397573I-2641J920D01*
G01Y395734D02*
G03Y395605I186J-65D01*
G01Y393766D02*
G03Y395605I-2641J919D01*
G01Y393766D02*
G03Y393636I186J-65D01*
G01Y391797D02*
G03Y393636I-2641J920D01*
G01Y391797D02*
G03Y391668I186J-65D01*
G01Y389828D02*
G03Y391668I-2641J920D01*
G01Y389828D02*
G03Y389699I186J-64D01*
G01Y387860D02*
G03Y389699I-2641J920D01*
G01Y387860D02*
G03Y387731I186J-65D01*
G01X375657Y386928D02*
G03X375504Y387731I-2794J-117D01*
G01X375657Y386928D02*
G03X375854Y386739I197J8D01*
G01X376540*
X377882Y386184D02*
G03X376540Y386739I-1342J-1341D01*
G01X377882Y386184D02*
X380988Y383078D01*
X381543Y381736D02*
G03X380988Y383078I-1897J0D01*
G01X381543Y381736D02*
Y379346D01*
G03X381879Y379206I197J-0*
G01X383542Y380869*
X384883Y381424D02*
G03X383542Y380869I0J-1896D01*
G01X384883Y381424D02*
X407394D01*
X408735Y380869D02*
G03X407394Y381424I-1341J-1341D01*
G01X408735Y380869D02*
X411483Y378121D01*
G03X411814Y378305I139J139*
G01X411897Y379857D02*
G03X411814Y378305I2642J-920D01*
G01X411897Y379857D02*
G03Y379986I-186J64D01*
G01Y381825D02*
G03Y379986I2642J-919D01*
G01Y381825D02*
G03Y381954I-186J65D01*
G01Y383794D02*
G03Y381954I2642J-920D01*
G01Y383794D02*
G03Y383923I-186J64D01*
G01Y385762D02*
G03Y383923I2642J-919D01*
G01Y385762D02*
G03Y385891I-186J65D01*
G01Y387731D02*
G03Y385891I2642J-920D01*
G01Y387731D02*
G03Y387860I-186J64D01*
G01Y389699D02*
G03Y387860I2642J-919D01*
G01Y389699D02*
G03Y389828I-186J65D01*
G01Y391668D02*
G03Y389829I2642J-920D01*
G01Y391668D02*
G03Y391797I-186J64D01*
G01Y393636D02*
G03Y391797I2642J-919D01*
G01Y393636D02*
G03Y393766I-186J65D01*
G01Y395605D02*
G03Y393766I2642J-920D01*
G01Y395605D02*
G03Y395734I-186J64D01*
G01Y397573D02*
G03Y395734I2642J-919D01*
G01Y397573D02*
G03Y397703I-186J65D01*
G01Y399542D02*
G03Y397703I2642J-920D01*
G01Y399542D02*
G03Y399671I-186J64D01*
G01Y401510D02*
G03Y399671I2642J-919D01*
G01Y401510D02*
G03Y401640I-186J65D01*
G01Y403479D02*
G03Y401640I2642J-920D01*
G01Y403479D02*
G03Y403608I-186J64D01*
G01Y405447D02*
G03Y403608I2642J-919D01*
G01Y405447D02*
G03Y405577I-186J65D01*
G01Y407416D02*
G03Y405577I2642J-920D01*
G01Y407416D02*
G03Y407545I-186J64D01*
G01X411998Y409635D02*
G03X411897Y407545I2541J-1170D01*
G01X435869Y321922D02*
G03X435770Y322289I-99J170D01*
G01X429893*
X428654Y322671D02*
G03X429893Y322289I1239J1815D01*
G01X428654Y322671D02*
G03X428432I-111J-162D01*
G01X427193Y322289D02*
G03X428432Y322671I0J2197D01*
G01X427193Y322289D02*
X421293D01*
X419754Y322919D02*
G03X421293Y322289I1539J1567D01*
G01X419754Y322919D02*
G03X419424Y322825I-138J-141D01*
G01X415408Y320325D02*
G03X419424Y322825I734J3297D01*
G01X415408Y320325D02*
G03X415226Y320272I-43J-192D01*
G01X410935Y315982*
X409594Y315426D02*
G03X410935Y315982I0J1897D01*
G01X409594Y315426D02*
X395024D01*
G03X394864Y315344I-0J-197*
G01X392177Y320700D02*
G03X394864Y315344I-51J-3377D01*
G01X392177Y320700D02*
G03X392364Y320967I3J197D01*
G01X392846Y324828D02*
G03X392364Y320967I3414J-2387D01*
G01X392846Y324828D02*
G03Y325054I-161J113D01*
G01Y329828D02*
G03Y325054I3414J-2387D01*
G01Y329828D02*
G03Y330054I-161J113D01*
G01Y334828D02*
G03Y330054I3414J-2387D01*
G01Y334828D02*
G03Y335054I-161J113D01*
G01X392606Y335442D02*
G03X392846Y335054I3654J1999D01*
G01X392606Y335442D02*
G03X392433Y335544I-173J-95D01*
G01X388269*
G03X388130Y335486I-0J-197*
G01X385160Y332517*
X383819Y331961D02*
G03X385160Y332517I-0J1897D01*
G01X383819Y331961D02*
X372976D01*
G03X372817Y331880I0J-196*
G01X366777Y334573D02*
G03X372817Y331880I3302J-715D01*
G01X366777Y334573D02*
G03X366585Y334811I-192J41D01*
G01X366142*
X363945Y337008D02*
G03X366142Y334811I2197J-0D01*
G01X363945Y337008D02*
Y341142D01*
X366142Y343339D02*
G03X363945Y341142I-0J-2197D01*
G01X366142Y343339D02*
X371260D01*
X373457Y341166D02*
G03X371260Y343339I-2197J-24D01*
G01X373457Y341166D02*
G03X373653Y340972I196J3D01*
G01X377184*
G03X377323Y341029I-0J197*
G01X379519Y343225*
G03X379417Y343558I-139J140*
G01X376620Y351223D02*
G03X379417Y343558I3695J-2995D01*
G01X376620Y351223D02*
G03X376467Y351543I-153J123D01*
G01X375197*
X373000Y353740D02*
G03X375197Y351543I2197J0D01*
G01X373000Y353740D02*
Y358858D01*
X375197Y361055D02*
G03X373000Y358858I-0J-2197D01*
G01X375197Y361055D02*
X377189D01*
G03X377329Y361391I0J197*
G01X376175Y362544*
G03X375925Y362568I-139J-139*
G01X371040Y363756D02*
G03X375925Y362568I2976J1598D01*
G01X371040Y363756D02*
G03X370693I-174J-93D01*
G01X370432Y363345D02*
G03X370693Y363756I-2715J2009D01*
G01X370432Y363345D02*
G03X370393Y363227I158J-118D01*
G01Y361197*
G03X370548Y361004I197J-0*
G01X372276Y358858D02*
G03X370548Y361004I-2197J0D01*
G01X372276Y358858D02*
Y353740D01*
X372011Y352695D02*
G03X372276Y353740I-1932J1045D01*
G01X372011Y352695D02*
G03X372108Y352420I173J-93D01*
G01X373457Y350394D02*
G03X372108Y352420I-2197J-0D01*
G01X373457Y350394D02*
Y346260D01*
X371260Y344063D02*
G03X373457Y346260I-0J2197D01*
G01X371260Y344063D02*
X366142D01*
X363996Y345791D02*
G03X366142Y344063I2146J469D01*
G01X363996Y345791D02*
G03X363803Y345946I-193J-42D01*
G01X362780*
G03X362641Y345888I0J-197*
G01X354440Y337686*
X352756Y336989D02*
G03X354440Y337686I-0J2381D01*
G01X352756Y336989D02*
X338550D01*
G03X338408Y336656I0J-197*
G01X339340Y330842D02*
G03X338408Y336656I-4694J2229D01*
G01X339340Y330842D02*
G03X339390Y330608I178J-85D01*
X350628Y322461I54311J63093*
X350919Y322684I102J168*
G01X350835Y323287D02*
G03X350919Y322684I2196J0D01*
G01X350835Y323287D02*
Y328287D01*
X353031Y330484D02*
G03X350835Y328287I0J-2197D01*
G01X353031Y330484D02*
X356024D01*
X356945Y330282D02*
G03X356024Y330484I-921J-1995D01*
G01X356945Y330282D02*
G03X357110I83J178D01*
G01X358031Y330484D02*
G03X357110Y330282I0J-2197D01*
G01X358031Y330484D02*
X361024D01*
X363220Y328287D02*
G03X361024Y330484I-2196J0D01*
G01X363220Y328287D02*
Y323287D01*
X361024Y321091D02*
G03X363220Y323287I-0J2196D01*
G01X361024Y321091D02*
X358031D01*
X357110Y321293D02*
G03X358031Y321091I921J1994D01*
G01X357110Y321293D02*
G03X356945I-82J-179D01*
G01X356024Y321091D02*
G03X356945Y321293I-0J2196D01*
G01X356024Y321091D02*
X353741D01*
G03X353647Y320721I0J-197*
X435869Y321922I40054J72980*
G01X471076Y393504D02*
G03X471076I-7887J0D01*
G01X429362Y437992D02*
Y433858D01*
X427165Y431661D02*
G03X429362Y433858I0J2197D01*
G01X427165Y431661D02*
X422047D01*
X419850Y433858D02*
G03X422047Y431661I2197J0D01*
G01X419850Y433858D02*
Y437992D01*
X422047Y440189D02*
G03X419850Y437992I0J-2197D01*
G01X422047Y440189D02*
X427165D01*
X429362Y437992D02*
G03X427165Y440189I-2197J0D01*
G01X381331Y462598D02*
Y458465D01*
X380930Y457200D02*
G03X381331Y458465I-1796J1265D01*
G01X380930Y457200D02*
G03Y456973I161J-113D01*
G01X381331Y455709D02*
G03X380930Y456973I-2197J-0D01*
G01X381331Y455709D02*
Y451575D01*
X379134Y449378D02*
G03X381331Y451575I-0J2197D01*
G01X379134Y449378D02*
X374016D01*
X371819Y451575D02*
G03X374016Y449378I2197J-0D01*
G01X371819Y451575D02*
Y455709D01*
X372219Y456973D02*
G03X371819Y455709I1797J-1264D01*
G01X372219Y456973D02*
G03Y457200I-161J114D01*
G01X371819Y458465D02*
G03X372219Y457200I2197J-0D01*
G01X371819Y458465D02*
Y462598D01*
X374016Y464795D02*
G03X371819Y462598I-0J-2197D01*
G01X374016Y464795D02*
X379134D01*
X381331Y462598D02*
G03X379134Y464795I-2197J0D01*
G01X357118Y373228D02*
Y368110D01*
X354921Y365913D02*
G03X357118Y368110I0J2197D01*
G01X354921Y365913D02*
X350787D01*
X348591Y368110D02*
G03X350787Y365913I2196J0D01*
G01X348591Y368110D02*
Y370021D01*
G03X348267Y370171I-197J-0*
G01X346850Y369654D02*
G03X348267Y370171I0J2196D01*
G01X346850Y369654D02*
X341732D01*
X339535Y371850D02*
G03X341732Y369654I2197J0D01*
G01X339535Y371850D02*
Y375984D01*
X341732Y378181D02*
G03X339535Y375984I0J-2197D01*
G01X341732Y378181D02*
X346850D01*
X349047Y375984D02*
G03X346850Y378181I-2197J0D01*
G01X349047Y375984D02*
Y375058D01*
G03X349371Y374908I197J0*
G01X350787Y375425D02*
G03X349371Y374908I0J-2197D01*
G01X350787Y375425D02*
X354921D01*
X357118Y373228D02*
G03X354921Y375425I-2197J0D01*
G01X336208Y360215D02*
G03Y366556I4304J3171D01*
G01Y360215D02*
G03X335853Y360110I-158J-116D01*
G01X333660Y358041D02*
G03X335853Y360110I0J2196D01*
G01X333660Y358041D02*
X327363D01*
X325167Y360237D02*
G03X327363Y358041I2196J0D01*
G01X325167Y360237D02*
Y366534D01*
X327363Y368731D02*
G03X325167Y366534I0J-2197D01*
G01X327363Y368731D02*
X333660D01*
X335853Y366662D02*
G03X333660Y368731I-2193J-128D01*
G01X335853Y366662D02*
G03X336208Y366556I197J11D01*
G01X373850Y427165D02*
Y423031D01*
X371654Y420835D02*
G03X373850Y423031I-0J2196D01*
G01X371654Y420835D02*
X366535D01*
X364339Y423031D02*
G03X366535Y420835I2196J0D01*
G01X364339Y423031D02*
Y427165D01*
X366535Y429362D02*
G03X364339Y427165I0J-2197D01*
G01X366535Y429362D02*
X371654D01*
X373850Y427165D02*
G03X371654Y429362I-2196J0D01*
G01X373850Y436417D02*
Y432283D01*
X371654Y430087D02*
G03X373850Y432283I-0J2196D01*
G01X371654Y430087D02*
X366535D01*
X364673Y431118D02*
G03X366535Y430087I1862J1165D01*
G01X364673Y431118D02*
G03X364423Y431192I-167J-104D01*
G01X364338Y437350D02*
G03X364423Y431192I-1346J-3098D01*
G01X364338Y437350D02*
G03X364591Y437439I78J181D01*
G01X366535Y438614D02*
G03X364591Y437439I0J-2197D01*
G01X366535Y438614D02*
X371654D01*
X373850Y436417D02*
G03X371654Y438614I-2196J0D01*
G01X383071Y317094D02*
G03Y326606I-0J4756D01*
G01Y317094D02*
X380315D01*
Y326606D02*
G03Y317094I-0J-4756D01*
G01Y326606D02*
X383071D01*
X471071Y393762D02*
X476950D01*
X471075Y393408D02*
X476949D01*
X471052Y394117D02*
X476949D01*
X471063Y393054D02*
X476947D01*
X471016Y394471D02*
X476946D01*
X471034Y392699D02*
X476944D01*
X470964Y394825D02*
X476942D01*
X470990Y392345D02*
X476939D01*
X470896Y395180D02*
X476936D01*
X470929Y391991D02*
X476932D01*
X470810Y395534D02*
X476929D01*
X470851Y391636D02*
X476924D01*
X470707Y395888D02*
X476921D01*
X470756Y391282D02*
X476914D01*
X470585Y396243D02*
X476911D01*
X470643Y390928D02*
X476903D01*
X470444Y396597D02*
X476899D01*
X470511Y390573D02*
X476891D01*
X470282Y396951D02*
X476886D01*
X470359Y390219D02*
X476877D01*
X470099Y397306D02*
X476871D01*
X470186Y389865D02*
X476861D01*
X469892Y397660D02*
X476855D01*
X469990Y389510D02*
X476844D01*
X469658Y398014D02*
X476838D01*
X469769Y389156D02*
X476825D01*
X469396Y398369D02*
X476819D01*
X469521Y388802D02*
X476805D01*
X469102Y398723D02*
X476798D01*
X469241Y388447D02*
X476784D01*
X468769Y399077D02*
X476776D01*
X468927Y388093D02*
X476761D01*
X468391Y399432D02*
X476752D01*
X468571Y387739D02*
X476736D01*
X467957Y399786D02*
X476727D01*
X468164Y387384D02*
X476710D01*
X467450Y400140D02*
X476700D01*
X467693Y387030D02*
X476682D01*
X466840Y400495D02*
X476672D01*
X467136Y386676D02*
X476653D01*
X466061Y400849D02*
X476642D01*
X466447Y386322D02*
X476622D01*
X464897Y401203D02*
X476611D01*
X465512Y385967D02*
X476590D01*
X455834Y401558D02*
X476578D01*
X455780Y385613D02*
X476556D01*
X455834Y401912D02*
X476544D01*
X457548Y385259D02*
X476520D01*
X455834Y402266D02*
X476508D01*
X458167Y384904D02*
X476484D01*
X455834Y402621D02*
X476470D01*
X458529Y384550D02*
X476445D01*
X455834Y402975D02*
X476431D01*
X458883Y384196D02*
X476405D01*
X455834Y403329D02*
X476391D01*
X459238Y383841D02*
X476364D01*
X455834Y403684D02*
X476349D01*
X459592Y383487D02*
X476321D01*
X465160Y404038D02*
X476305D01*
X459946Y383133D02*
X476276D01*
X466311Y404392D02*
X476260D01*
X460301Y382778D02*
X476230D01*
X466987Y404747D02*
X476214D01*
X460655Y382424D02*
X476182D01*
X467492Y405101D02*
X476165D01*
X461009Y382070D02*
X476133D01*
X467896Y405455D02*
X476116D01*
X465099Y381715D02*
X476082D01*
X468229Y405810D02*
X476064D01*
X466079Y381361D02*
X476030D01*
X468508Y406164D02*
X476011D01*
X466709Y381007D02*
X475976D01*
X468743Y406518D02*
X475957D01*
X467189Y380652D02*
X475921D01*
X468940Y406873D02*
X475901D01*
X467576Y380298D02*
X475864D01*
X469104Y407227D02*
X475843D01*
X467897Y379944D02*
X475805D01*
X469238Y407581D02*
X475784D01*
X468167Y379589D02*
X475745D01*
X469344Y407936D02*
X475724D01*
X468393Y379235D02*
X475683D01*
X469424Y408290D02*
X475661D01*
X468583Y378881D02*
X475620D01*
X469479Y408644D02*
X475597D01*
X468740Y378526D02*
X475555D01*
X469510Y408999D02*
X475532D01*
X468868Y378172D02*
X475488D01*
X469518Y409353D02*
X475465D01*
X468969Y377818D02*
X475420D01*
X469502Y409707D02*
X475396D01*
X469044Y377463D02*
X475351D01*
X469463Y410062D02*
X475326D01*
X469094Y377109D02*
X475279D01*
X469399Y410416D02*
X475254D01*
X469120Y376755D02*
X475207D01*
X469310Y410770D02*
X475181D01*
X469123Y376400D02*
X475132D01*
X469194Y411125D02*
X475106D01*
X469102Y376046D02*
X475056D01*
X469050Y411479D02*
X475029D01*
X469058Y375692D02*
X474978D01*
X468875Y411833D02*
X474951D01*
X468989Y375337D02*
X474899D01*
X468666Y412188D02*
X474871D01*
X468894Y374983D02*
X474818D01*
X468416Y412542D02*
X474789D01*
X468773Y374629D02*
X474735D01*
X468120Y412896D02*
X474706D01*
X468623Y374274D02*
X474651D01*
X467764Y413251D02*
X474622D01*
X468441Y373920D02*
X474565D01*
X467331Y413605D02*
X474535D01*
X468224Y373566D02*
X474478D01*
X467562Y413959D02*
X474447D01*
X467965Y373211D02*
X474389D01*
X468538Y414314D02*
X474357D01*
X467658Y372857D02*
X474298D01*
X468950Y414668D02*
X474266D01*
X467288Y372503D02*
X474205D01*
X469211Y415022D02*
X474173D01*
X466885Y372148D02*
X474111D01*
X469380Y415377D02*
X474078D01*
X467539Y371794D02*
X474015D01*
X469479Y415731D02*
X473982D01*
X468248Y371440D02*
X473918D01*
X469518Y416085D02*
X473884D01*
X468620Y371085D02*
X473819D01*
X469518Y416440D02*
X473784D01*
X468859Y370731D02*
X473718D01*
X469518Y416794D02*
X473682D01*
X469013Y370377D02*
X473615D01*
X469518Y417148D02*
X473579D01*
X469098Y370022D02*
X473511D01*
X469518Y417503D02*
X473474D01*
X469125Y369668D02*
X473405D01*
X469518Y417857D02*
X473368D01*
X469125Y369314D02*
X473297D01*
X469518Y418211D02*
X473260D01*
X469125Y368959D02*
X473188D01*
X469518Y418566D02*
X473150D01*
X469125Y368605D02*
X473077D01*
X469518Y418920D02*
X473038D01*
X469125Y368251D02*
X472964D01*
X469518Y419274D02*
X472924D01*
X469125Y367896D02*
X472849D01*
X469518Y419629D02*
X472809D01*
X469125Y367542D02*
X472733D01*
X469518Y419983D02*
X472692D01*
X469125Y367188D02*
X472615D01*
X469518Y420337D02*
X472573D01*
X469125Y366833D02*
X472495D01*
X469518Y420692D02*
X472453D01*
X469125Y366479D02*
X472373D01*
X469518Y421046D02*
X472330D01*
X469125Y366125D02*
X472250D01*
X469518Y421400D02*
X472206D01*
X469125Y365770D02*
X472124D01*
X469518Y421755D02*
X472080D01*
X469125Y365416D02*
X471997D01*
X469518Y422109D02*
X471953D01*
X469125Y365062D02*
X471868D01*
X469518Y422463D02*
X471823D01*
X469125Y364707D02*
X471738D01*
X469486Y422818D02*
X471692D01*
X469125Y364353D02*
X471605D01*
X469393Y423172D02*
X471558D01*
X469125Y363999D02*
X471471D01*
X469231Y423526D02*
X471423D01*
X469125Y363644D02*
X471334D01*
X468980Y423881D02*
X471287D01*
X469123Y363290D02*
X471196D01*
X468588Y424235D02*
X471148D01*
X469078Y362936D02*
X471056D01*
X467775Y424589D02*
X471007D01*
X468972Y362581D02*
X470914D01*
X447203Y424944D02*
X470865D01*
X468793Y362227D02*
X470771D01*
X447027Y425298D02*
X470720D01*
X468519Y361873D02*
X470625D01*
X446794Y425652D02*
X470574D01*
X468083Y361518D02*
X470477D01*
X446487Y426007D02*
X470426D01*
X452984Y361164D02*
X470328D01*
X446072Y426361D02*
X470275D01*
X452984Y360810D02*
X470177D01*
X445452Y426715D02*
X470123D01*
X452984Y360455D02*
X470023D01*
X441173Y427070D02*
X469969D01*
X452984Y360101D02*
X469868D01*
X441173Y427424D02*
X469813D01*
X452984Y359747D02*
X469711D01*
X441173Y427778D02*
X469655D01*
X452984Y359392D02*
X469551D01*
X441173Y428133D02*
X469495D01*
X452984Y359038D02*
X469390D01*
X441173Y428487D02*
X469333D01*
X452984Y358684D02*
X469227D01*
X441153Y428841D02*
X469169D01*
X452984Y358329D02*
X469061D01*
X441074Y429196D02*
X469003D01*
X452984Y357975D02*
X468894D01*
X440929Y429550D02*
X468835D01*
X452984Y357621D02*
X468725D01*
X440701Y429904D02*
X468665D01*
X452984Y357266D02*
X468553D01*
X440349Y430259D02*
X468493D01*
X452953Y356912D02*
X468380D01*
X439713Y430613D02*
X468319D01*
X452861Y356558D02*
X468204D01*
X419085Y430967D02*
X468143D01*
X452700Y356203D02*
X468026D01*
X418668Y431322D02*
X467964D01*
X452451Y355849D02*
X467847D01*
X439916Y431676D02*
X467784D01*
X452063Y355495D02*
X467665D01*
X440448Y432030D02*
X467601D01*
X451271Y355140D02*
X467481D01*
X440764Y432384D02*
X467416D01*
X421251Y354786D02*
X467294D01*
X440970Y432739D02*
X467229D01*
X421369Y354432D02*
X467106D01*
X441098Y433093D02*
X467040D01*
X421446Y354077D02*
X466915D01*
X441163Y433447D02*
X466848D01*
X421483Y353723D02*
X466722D01*
X441173Y433802D02*
X466655D01*
X421484Y353369D02*
X466527D01*
X441173Y434156D02*
X466459D01*
X421447Y353014D02*
X466330D01*
X441173Y434510D02*
X466261D01*
X421371Y352660D02*
X466130D01*
X441173Y434865D02*
X466060D01*
X421319Y352306D02*
X465928D01*
X441173Y435219D02*
X465857D01*
X422466Y351951D02*
X465724D01*
X441173Y435573D02*
X465652D01*
X445023Y351597D02*
X465518D01*
X441173Y435928D02*
X465445D01*
X445560Y351243D02*
X465309D01*
X441173Y436282D02*
X465235D01*
X445878Y350888D02*
X465097D01*
X441173Y436636D02*
X465023D01*
X446086Y350534D02*
X464884D01*
X441173Y436991D02*
X464809D01*
X446215Y350180D02*
X464668D01*
X441173Y437345D02*
X464592D01*
X446280Y349825D02*
X464449D01*
X441173Y437699D02*
X464372D01*
X446291Y349471D02*
X464228D01*
X441158Y438054D02*
X464151D01*
X446291Y349117D02*
X464005D01*
X441086Y438408D02*
X463926D01*
X446291Y348762D02*
X463779D01*
X440949Y438762D02*
X463699D01*
X446291Y348408D02*
X463550D01*
X440731Y439117D02*
X463470D01*
X446291Y348054D02*
X463319D01*
X440397Y439471D02*
X463238D01*
X455834Y404038D02*
X463186D01*
X446291Y347699D02*
X463086D01*
X439816Y439825D02*
X463004D01*
X446291Y347345D02*
X462849D01*
X437534Y440180D02*
X462766D01*
X446291Y346991D02*
X462610D01*
X437352Y440534D02*
X462527D01*
X461364Y381715D02*
X462460D01*
X446291Y346636D02*
X462369D01*
X447210Y440888D02*
X462284D01*
X446291Y346282D02*
X462125D01*
X448128Y441243D02*
X462039D01*
X455834Y404392D02*
X462035D01*
X446291Y345928D02*
X461878D01*
X448534Y441597D02*
X461791D01*
X446289Y345573D02*
X461628D01*
X448793Y441951D02*
X461541D01*
X455818Y401203D02*
X461481D01*
X446245Y345219D02*
X461376D01*
X455834Y404747D02*
X461359D01*
X448960Y442306D02*
X461287D01*
X446139Y344865D02*
X461120D01*
X449057Y442660D02*
X461031D01*
X455656Y385967D02*
X460866D01*
X445961Y344510D02*
X460862D01*
X455834Y405101D02*
X460855D01*
X449094Y443014D02*
X460772D01*
X445687Y344156D02*
X460601D01*
X447331Y424589D02*
X460571D01*
X449095Y443369D02*
X460510D01*
X455834Y405455D02*
X460451D01*
X445252Y343802D02*
X460338D01*
X455736Y400849D02*
X460317D01*
X449095Y443723D02*
X460245D01*
X455834Y405810D02*
X460117D01*
X444528Y343447D02*
X460071D01*
X449095Y444077D02*
X459977D01*
X455440Y386322D02*
X459931D01*
X457129Y406164D02*
X459838D01*
X444475Y343093D02*
X459801D01*
X447416Y424235D02*
X459759D01*
X449095Y444432D02*
X459706D01*
X457825Y406518D02*
X459604D01*
X455576Y400495D02*
X459538D01*
X444387Y342739D02*
X459528D01*
X452964Y361518D02*
X459476D01*
X449095Y444786D02*
X459432D01*
X458193Y406873D02*
X459407D01*
X447463Y423881D02*
X459367D01*
X444238Y342384D02*
X459252D01*
X458431Y407227D02*
X459243D01*
X455108Y386676D02*
X459242D01*
X449095Y445140D02*
X459156D01*
X457645Y423526D02*
X459116D01*
X458599Y407581D02*
X459093D01*
X452885Y361873D02*
X459040D01*
X444011Y342030D02*
X458973D01*
X458084Y423172D02*
X458954D01*
X455310Y400140D02*
X458928D01*
X449095Y445495D02*
X458876D01*
X458359Y422818D02*
X458861D01*
X455608Y362227D02*
X458766D01*
X443684Y341676D02*
X458691D01*
X454754Y387030D02*
X458685D01*
X449095Y445849D02*
X458592D01*
X456260Y362581D02*
X458587D01*
X456689Y362936D02*
X458481D01*
X457005Y363290D02*
X458435D01*
X454956Y399786D02*
X458421D01*
X443330Y341322D02*
X458406D01*
X449095Y446203D02*
X458306D01*
X454400Y387384D02*
X458214D01*
X442976Y340967D02*
X458118D01*
X449095Y446558D02*
X458016D01*
X454602Y399432D02*
X457987D01*
X442621Y340613D02*
X457826D01*
X454045Y387739D02*
X457807D01*
X449095Y446912D02*
X457724D01*
X454247Y399077D02*
X457609D01*
X442267Y340259D02*
X457531D01*
X453691Y388093D02*
X457451D01*
X449095Y447266D02*
X457427D01*
X453893Y398723D02*
X457276D01*
X441969Y339904D02*
X457233D01*
X453337Y388447D02*
X457137D01*
X449095Y447621D02*
X457128D01*
X453539Y398369D02*
X456982D01*
X441967Y339550D02*
X456931D01*
X452982Y388802D02*
X456857D01*
X449095Y447975D02*
X456825D01*
X453184Y398014D02*
X456719D01*
X441967Y339196D02*
X456626D01*
X452628Y389156D02*
X456609D01*
X449095Y448329D02*
X456519D01*
X452830Y397660D02*
X456486D01*
X452286Y389510D02*
X456388D01*
X441967Y338841D02*
X456317D01*
X452476Y397306D02*
X456279D01*
X449095Y448684D02*
X456209D01*
X452482Y389865D02*
X456192D01*
X452121Y396951D02*
X456096D01*
X452867Y390219D02*
X456019D01*
X441967Y338487D02*
X456005D01*
X451767Y396597D02*
X455934D01*
X449095Y449038D02*
X455895D01*
X453155Y390573D02*
X455867D01*
X451413Y396243D02*
X455793D01*
X453373Y390928D02*
X455735D01*
X453934Y338133D02*
X455689D01*
X451212Y395888D02*
X455671D01*
X453537Y391282D02*
X455622D01*
X454375Y449392D02*
X455578D01*
X451918Y395534D02*
X455568D01*
X453654Y391636D02*
X455527D01*
X452476Y395180D02*
X455482D01*
X453730Y391991D02*
X455449D01*
X452862Y394825D02*
X455414D01*
X453767Y392345D02*
X455388D01*
X454958Y337778D02*
X455369D01*
X453151Y394471D02*
X455362D01*
X453767Y392699D02*
X455343D01*
X453370Y394117D02*
X455326D01*
X453729Y393054D02*
X455315D01*
X453535Y393762D02*
X455307D01*
X453653Y393408D02*
X455303D01*
X441967Y338133D02*
X451578D01*
X449070Y449392D02*
X451137D01*
X441967Y337778D02*
X450554D01*
X448985Y449747D02*
X450308D01*
X447471Y423526D02*
X450229D01*
X441967Y337424D02*
X449917D01*
X447442Y423172D02*
X449790D01*
X448834Y450101D02*
X449736D01*
X447375Y422818D02*
X449515D01*
X441967Y337070D02*
X449437D01*
X448597Y450455D02*
X449293D01*
X441967Y336715D02*
X449051D01*
X448230Y450810D02*
X448934D01*
X441967Y336361D02*
X448733D01*
X447539Y451164D02*
X448635D01*
X441967Y336007D02*
X448468D01*
X434333Y451518D02*
X448386D01*
X441967Y335652D02*
X448245D01*
X434592Y451873D02*
X448177D01*
X441967Y330692D02*
X448069D01*
X441967Y335298D02*
X448060D01*
X442118Y456479D02*
X448024D01*
X434752Y452227D02*
X448004D01*
X441967Y331046D02*
X447970D01*
X442104Y456833D02*
X447965D01*
X441967Y334944D02*
X447908D01*
X442102Y456125D02*
X447878D01*
X439376Y452581D02*
X447862D01*
X441967Y331400D02*
X447835D01*
X441967Y334589D02*
X447786D01*
X442054Y455770D02*
X447762D01*
X440115Y452936D02*
X447750D01*
X441967Y331755D02*
X447728D01*
X441967Y330337D02*
X447695D01*
X441967Y334235D02*
X447691D01*
X441976Y455416D02*
X447674D01*
X440612Y453290D02*
X447664D01*
X447415Y422463D02*
X447657D01*
X441967Y332109D02*
X447649D01*
X441967Y333881D02*
X447622D01*
X441863Y455062D02*
X447611D01*
X440989Y453644D02*
X447605D01*
X441967Y332463D02*
X447595D01*
X441967Y333526D02*
X447579D01*
X441715Y454707D02*
X447573D01*
X441286Y453999D02*
X447570D01*
X441967Y332818D02*
X447565D01*
X441967Y333172D02*
X447560D01*
X441525Y454353D02*
X447559D01*
X442060Y457188D02*
X447550D01*
X441967Y329983D02*
X447277D01*
X441985Y457542D02*
X447130D01*
X441967Y329629D02*
X446853D01*
X441876Y457896D02*
X446704D01*
X441967Y329274D02*
X446423D01*
X444486Y355140D02*
X446367D01*
X441731Y458251D02*
X446271D01*
X441967Y328920D02*
X445987D01*
X441545Y458605D02*
X445833D01*
X441967Y328566D02*
X445544D01*
X441312Y458959D02*
X445389D01*
X441967Y328211D02*
X445096D01*
X441021Y459314D02*
X444939D01*
X441967Y327857D02*
X444641D01*
X440653Y459668D02*
X444482D01*
X441967Y327503D02*
X444180D01*
X440170Y460022D02*
X444018D01*
X441954Y327148D02*
X443712D01*
X439467Y460377D02*
X443548D01*
X441890Y326794D02*
X443237D01*
X439486Y355140D02*
X443152D01*
X414933Y460731D02*
X443070D01*
X441767Y326440D02*
X442755D01*
X441173Y426715D02*
X442737D01*
X414933Y461085D02*
X442585D01*
X441575Y326085D02*
X442265D01*
X441173Y426361D02*
X442117D01*
X414897Y461440D02*
X442093D01*
X440617Y355495D02*
X442021D01*
X441173Y426007D02*
X441702D01*
X414801Y461794D02*
X441593D01*
X441223Y355849D02*
X441415D01*
X414635Y462148D02*
X441085D01*
X437055Y440888D02*
X440585D01*
X414378Y462503D02*
X440569D01*
X434891Y451164D02*
X440256D01*
X413976Y462857D02*
X440045D01*
X436700Y441243D02*
X439668D01*
X436013Y450810D02*
X439565D01*
X413257Y463211D02*
X439512D01*
X436583Y441597D02*
X439261D01*
X438420Y351597D02*
X439229D01*
X436675Y450455D02*
X439198D01*
X437076Y441951D02*
X439003D01*
X413208Y463566D02*
X438970D01*
X437169Y450101D02*
X438961D01*
X437488Y442306D02*
X438835D01*
X437563Y449747D02*
X438810D01*
X437825Y442660D02*
X438738D01*
X437888Y449392D02*
X438726D01*
X438106Y443014D02*
X438701D01*
X438159Y449038D02*
X438701D01*
X438342Y443369D02*
X438666D01*
X438438Y448684D02*
X438570D01*
X413208Y463920D02*
X438418D01*
X434486Y355140D02*
X438152D01*
X413208Y464274D02*
X437857D01*
X413208Y464629D02*
X437285D01*
X435617Y355495D02*
X437021D01*
X413236Y464983D02*
X436703D01*
X434834Y452581D02*
X436530D01*
X434467Y460377D02*
X436439D01*
X436223Y355849D02*
X436415D01*
X413605Y465337D02*
X436110D01*
X433420Y351597D02*
X435832D01*
X435115Y452936D02*
X435791D01*
X435170Y460022D02*
X435736D01*
X413925Y465692D02*
X435506D01*
X434213Y351243D02*
X435039D01*
X414194Y466046D02*
X434890D01*
X414420Y466400D02*
X434261D01*
X414609Y466755D02*
X433620D01*
X421087Y355140D02*
X433152D01*
X428314Y430613D02*
X433121D01*
X414766Y467109D02*
X432964D01*
X427417Y431676D02*
X432918D01*
X428376Y439825D02*
X432711D01*
X428753Y430259D02*
X432486D01*
X428790Y439471D02*
X432438D01*
X427366Y440180D02*
X432415D01*
X428384Y432030D02*
X432387D01*
X414893Y467463D02*
X432294D01*
X418142Y440534D02*
X432191D01*
X429028Y429904D02*
X432134D01*
X429053Y439117D02*
X432103D01*
X428795Y432384D02*
X432071D01*
X424379Y440888D02*
X432061D01*
X420868Y355495D02*
X432021D01*
X425840Y441243D02*
X431939D01*
X429223Y438762D02*
X431886D01*
X429056Y432739D02*
X431865D01*
X429322Y438408D02*
X431749D01*
X429225Y433093D02*
X431736D01*
X429361Y438054D02*
X431677D01*
X429323Y433447D02*
X431672D01*
X429362Y437699D02*
X431661D01*
X429362Y437345D02*
X431661D01*
X429362Y436991D02*
X431661D01*
X429362Y436636D02*
X431661D01*
X429362Y436282D02*
X431661D01*
X429362Y435928D02*
X431661D01*
X429362Y435573D02*
X431661D01*
X429362Y435219D02*
X431661D01*
X429362Y434865D02*
X431661D01*
X429362Y434510D02*
X431661D01*
X429362Y434156D02*
X431661D01*
X429362Y433802D02*
X431661D01*
X414994Y467818D02*
X431609D01*
X431003Y460377D02*
X431439D01*
X420579Y355849D02*
X431417D01*
X426555Y441597D02*
X431240D01*
X420309Y356203D02*
X430980D01*
X415068Y468172D02*
X430909D01*
X428420Y351597D02*
X430832D01*
X427076Y441951D02*
X430719D01*
X421017Y356558D02*
X430642D01*
X421523Y356912D02*
X430373D01*
X427488Y442306D02*
X430307D01*
X415118Y468526D02*
X430191D01*
X421877Y357266D02*
X430157D01*
X429213Y351243D02*
X430039D01*
X422231Y357621D02*
X429986D01*
X427825Y442660D02*
X429970D01*
X422586Y357975D02*
X429854D01*
X428928Y358329D02*
X429757D01*
X428106Y443014D02*
X429689D01*
X429224Y429550D02*
X429547D01*
X415144Y468881D02*
X429455D01*
X428342Y443369D02*
X429454D01*
X428538Y443723D02*
X429257D01*
X428700Y444077D02*
X429095D01*
X415147Y469235D02*
X428700D01*
X415125Y469589D02*
X427925D01*
X415080Y469944D02*
X427128D01*
X415011Y470298D02*
X426308D01*
X422940Y358329D02*
X426190D01*
X422965Y351597D02*
X425832D01*
X423294Y358684D02*
X425575D01*
X414916Y470652D02*
X425463D01*
X423649Y359038D02*
X425161D01*
X423268Y351243D02*
X425039D01*
X414933Y460377D02*
X424902D01*
X424003Y359392D02*
X424855D01*
X414795Y471007D02*
X424591D01*
X423466Y350888D02*
X424521D01*
X414933Y460022D02*
X424435D01*
X414933Y459668D02*
X424146D01*
X423588Y350534D02*
X424132D01*
X414933Y459314D02*
X423958D01*
X414933Y458959D02*
X423844D01*
X414669Y453999D02*
X423823D01*
X414822Y454353D02*
X423794D01*
X414933Y458605D02*
X423792D01*
X414933Y458251D02*
X423787D01*
X414933Y457896D02*
X423787D01*
X414933Y457542D02*
X423787D01*
X414933Y457188D02*
X423787D01*
X414933Y456833D02*
X423787D01*
X414933Y456479D02*
X423787D01*
X414933Y456125D02*
X423787D01*
X414933Y455770D02*
X423787D01*
X414933Y455416D02*
X423787D01*
X414933Y455062D02*
X423787D01*
X414907Y454707D02*
X423787D01*
X414644Y471361D02*
X423689D01*
X418142Y440888D02*
X423417D01*
X414462Y471715D02*
X422754D01*
X418121Y441243D02*
X421955D01*
X418142Y440180D02*
X421846D01*
X418143Y431676D02*
X421796D01*
X414244Y472070D02*
X421785D01*
X416967Y422109D02*
X421694D01*
X417070Y422463D02*
X421564D01*
X416819Y421755D02*
X421362D01*
X418043Y441597D02*
X421240D01*
X416620Y421400D02*
X421130D01*
X416358Y421046D02*
X420975D01*
X419439Y430613D02*
X420899D01*
X416010Y420692D02*
X420884D01*
X415527Y420337D02*
X420848D01*
X414717Y419983D02*
X420847D01*
X410802Y419629D02*
X420847D01*
X418142Y439825D02*
X420837D01*
X418142Y432030D02*
X420829D01*
X410997Y419274D02*
X420786D01*
X413985Y472424D02*
X420775D01*
X417132Y422818D02*
X420772D01*
X417898Y441951D02*
X420719D01*
X419793Y430259D02*
X420460D01*
X418142Y439471D02*
X420423D01*
X418139Y432384D02*
X420418D01*
X417157Y423172D02*
X420383D01*
X414433Y453644D02*
X420371D01*
X417669Y442306D02*
X420307D01*
X418142Y439117D02*
X420160D01*
X418094Y432739D02*
X420157D01*
X417144Y423526D02*
X420134D01*
X418142Y438762D02*
X419990D01*
X417987Y433093D02*
X419988D01*
X417094Y423881D02*
X419974D01*
X417318Y442660D02*
X419970D01*
X414545Y453290D02*
X419899D01*
X418142Y438408D02*
X419890D01*
X417808Y433447D02*
X419889D01*
X417004Y424235D02*
X419882D01*
X418142Y438054D02*
X419851D01*
X417533Y433802D02*
X419851D01*
X416871Y424589D02*
X419850D01*
X418142Y437699D02*
X419850D01*
X418142Y437345D02*
X419850D01*
X418142Y436991D02*
X419850D01*
X418142Y436636D02*
X419850D01*
X418142Y436282D02*
X419850D01*
X418142Y435928D02*
X419850D01*
X418127Y435573D02*
X419850D01*
X418056Y435219D02*
X419850D01*
X417920Y434865D02*
X419850D01*
X417704Y434510D02*
X419850D01*
X417386Y434156D02*
X419850D01*
X413676Y472778D02*
X419722D01*
X416682Y443014D02*
X419689D01*
X416706Y424944D02*
X419569D01*
X414744Y452936D02*
X419544D01*
X392676Y443369D02*
X419454D01*
X392866Y443723D02*
X419257D01*
X414866Y452581D02*
X419190D01*
X413717Y444077D02*
X419095D01*
X417102Y425298D02*
X419041D01*
X414229Y444432D02*
X418963D01*
X414925Y452227D02*
X418836D01*
X418654Y444786D02*
X418761D01*
X417538Y425652D02*
X418686D01*
X413305Y473133D02*
X418620D01*
X414933Y451873D02*
X418481D01*
X417811Y426007D02*
X418331D01*
X414933Y451518D02*
X418127D01*
X412849Y473487D02*
X417461D01*
X414538Y444786D02*
X416780D01*
X411132Y418920D02*
X416460D01*
X414933Y451164D02*
X416452D01*
X412261Y473841D02*
X416237D01*
X411215Y418566D02*
X416044D01*
X414739Y445140D02*
X415969D01*
X414933Y450810D02*
X415795D01*
X414863Y445495D02*
X415486D01*
X414938Y450455D02*
X415364D01*
X411400Y474196D02*
X414937D01*
X373857Y474550D02*
X413545D01*
X410529Y419983D02*
X412843D01*
X375360Y474904D02*
X412041D01*
X410141Y420337D02*
X412032D01*
X409516Y420692D02*
X411549D01*
X400059Y421046D02*
X411201D01*
X407430Y443014D02*
X411074D01*
X400047Y421400D02*
X410939D01*
X400047Y424944D02*
X410869D01*
X400047Y421755D02*
X410740D01*
X400047Y424589D02*
X410688D01*
X407850Y425298D02*
X410654D01*
X400047Y422109D02*
X410592D01*
X400047Y424235D02*
X410555D01*
X400047Y422463D02*
X410489D01*
X400047Y423881D02*
X410465D01*
X408066Y442660D02*
X410438D01*
X400047Y422818D02*
X410427D01*
X400047Y423526D02*
X410415D01*
X400047Y423172D02*
X410402D01*
X377006Y475259D02*
X410395D01*
X408134Y434156D02*
X410370D01*
X408281Y433802D02*
X410223D01*
X408286Y425652D02*
X410218D01*
X408418Y442306D02*
X410086D01*
X408452Y434510D02*
X410052D01*
X408556Y433447D02*
X409948D01*
X408559Y426007D02*
X409945D01*
X408646Y441951D02*
X409858D01*
X408668Y434865D02*
X409836D01*
X408735Y433093D02*
X409769D01*
X408737Y426361D02*
X409767D01*
X408791Y441597D02*
X409713D01*
X408804Y435219D02*
X409700D01*
X408842Y432739D02*
X409662D01*
X408843Y426715D02*
X409661D01*
X408869Y441243D02*
X409634D01*
X408875Y435573D02*
X409629D01*
X408887Y432384D02*
X409616D01*
X408888Y427070D02*
X409616D01*
X408890Y440888D02*
X409614D01*
X408890Y440534D02*
X409614D01*
X408890Y440180D02*
X409614D01*
X408890Y439825D02*
X409614D01*
X408890Y439471D02*
X409614D01*
X408890Y439117D02*
X409614D01*
X408890Y438762D02*
X409614D01*
X408890Y438408D02*
X409614D01*
X408890Y438054D02*
X409614D01*
X408890Y437699D02*
X409614D01*
X408890Y437345D02*
X409614D01*
X408890Y436991D02*
X409614D01*
X408890Y436636D02*
X409614D01*
X408890Y436282D02*
X409614D01*
X408890Y435928D02*
X409614D01*
X408890Y432030D02*
X409614D01*
X408890Y431676D02*
X409614D01*
X408890Y431322D02*
X409614D01*
X408890Y430967D02*
X409614D01*
X408890Y430613D02*
X409614D01*
X408890Y430259D02*
X409614D01*
X408890Y429904D02*
X409614D01*
X408890Y429550D02*
X409614D01*
X408890Y429196D02*
X409614D01*
X408890Y428841D02*
X409614D01*
X408890Y428487D02*
X409614D01*
X408890Y428133D02*
X409614D01*
X408890Y427778D02*
X409614D01*
X408890Y427424D02*
X409614D01*
X378842Y475613D02*
X408559D01*
X403958Y474196D02*
X408206D01*
X404459Y473841D02*
X407345D01*
X404377Y464274D02*
X407265D01*
X403800Y463920D02*
X407265D01*
X403109Y463566D02*
X407265D01*
X403109Y463211D02*
X407215D01*
X404709Y464629D02*
X406866D01*
X404762Y473487D02*
X406757D01*
X402693Y444077D02*
X406756D01*
X403109Y462857D02*
X406496D01*
X380949Y475967D02*
X406452D01*
X404926Y464983D02*
X406388D01*
X404960Y473133D02*
X406301D01*
X403206Y444432D02*
X406243D01*
X403355Y462503D02*
X406094D01*
X403409Y453644D02*
X406040D01*
X405062Y465337D02*
X406001D01*
X403514Y444786D02*
X405935D01*
X405082Y472778D02*
X405930D01*
X403521Y453290D02*
X405927D01*
X403611Y462148D02*
X405837D01*
X403645Y453999D02*
X405804D01*
X403715Y445140D02*
X405733D01*
X403720Y452936D02*
X405729D01*
X405134Y465692D02*
X405681D01*
X403777Y461794D02*
X405672D01*
X403798Y454353D02*
X405651D01*
X405141Y472424D02*
X405621D01*
X403840Y445495D02*
X405609D01*
X403843Y452581D02*
X405606D01*
X403873Y461440D02*
X405575D01*
X403884Y454707D02*
X405565D01*
X403901Y445849D02*
X405548D01*
X403902Y452227D02*
X405547D01*
X403909Y461085D02*
X405540D01*
X403909Y460731D02*
X405539D01*
X403909Y460377D02*
X405539D01*
X403909Y460022D02*
X405539D01*
X403909Y459668D02*
X405539D01*
X403909Y459314D02*
X405539D01*
X403909Y458959D02*
X405539D01*
X403909Y458605D02*
X405539D01*
X403909Y458251D02*
X405539D01*
X403909Y457896D02*
X405539D01*
X403909Y457542D02*
X405539D01*
X403909Y457188D02*
X405539D01*
X403909Y456833D02*
X405539D01*
X403909Y456479D02*
X405539D01*
X403909Y456125D02*
X405539D01*
X403909Y455770D02*
X405539D01*
X403909Y455416D02*
X405539D01*
X403909Y455062D02*
X405539D01*
X403909Y451873D02*
X405539D01*
X403909Y451518D02*
X405539D01*
X403909Y451164D02*
X405539D01*
X403909Y450810D02*
X405539D01*
X403909Y450455D02*
X405539D01*
X403909Y450101D02*
X405539D01*
X403909Y449747D02*
X405539D01*
X403909Y449392D02*
X405539D01*
X403909Y449038D02*
X405539D01*
X403909Y448684D02*
X405539D01*
X403909Y448329D02*
X405539D01*
X403909Y447975D02*
X405539D01*
X403909Y447621D02*
X405539D01*
X403909Y447266D02*
X405539D01*
X403909Y446912D02*
X405539D01*
X403909Y446558D02*
X405539D01*
X403909Y446203D02*
X405539D01*
X383494Y476322D02*
X403908D01*
X398988Y443014D02*
X401822D01*
X400047Y425298D02*
X401402D01*
X399740Y442660D02*
X401186D01*
X400047Y425652D02*
X400966D01*
X400121Y442306D02*
X400834D01*
X400047Y426007D02*
X400693D01*
X400424Y441951D02*
X400544D01*
X400047Y426361D02*
X400515D01*
X386955Y476676D02*
X400446D01*
X400128Y426715D02*
X400360D01*
X393043Y463566D02*
X397166D01*
X393043Y463211D02*
X396357D01*
X393043Y463920D02*
X395806D01*
X392984Y444077D02*
X395732D01*
X372465Y474196D02*
X395648D01*
X393043Y462857D02*
X395473D01*
X393043Y464274D02*
X395230D01*
X393038Y444432D02*
X395220D01*
X391962Y473841D02*
X395148D01*
X393043Y462503D02*
X395070D01*
X393043Y453644D02*
X395016D01*
X393043Y444786D02*
X394911D01*
X393043Y453290D02*
X394904D01*
X393043Y464629D02*
X394897D01*
X392415Y473487D02*
X394844D01*
X393043Y462148D02*
X394814D01*
X393043Y453999D02*
X394780D01*
X393043Y445140D02*
X394710D01*
X393043Y452936D02*
X394705D01*
X393043Y464983D02*
X394680D01*
X393043Y461794D02*
X394648D01*
X392697Y473133D02*
X394646D01*
X393043Y454353D02*
X394627D01*
X393043Y445495D02*
X394585D01*
X393043Y452581D02*
X394583D01*
X393042Y461440D02*
X394552D01*
X393043Y465337D02*
X394544D01*
X393043Y454707D02*
X394542D01*
X393043Y445849D02*
X394524D01*
X392881Y472778D02*
X394524D01*
X393043Y452227D02*
X394523D01*
X393001Y461085D02*
X394516D01*
X392898Y460731D02*
X394516D01*
X392725Y460377D02*
X394516D01*
X392458Y460022D02*
X394516D01*
X392035Y459668D02*
X394516D01*
X381331Y459314D02*
X394516D01*
X381331Y458959D02*
X394516D01*
X381331Y458605D02*
X394516D01*
X381320Y458251D02*
X394516D01*
X381256Y457896D02*
X394516D01*
X381128Y457542D02*
X394516D01*
X391202Y457188D02*
X394516D01*
X392086Y456833D02*
X394516D01*
X392489Y456479D02*
X394516D01*
X392745Y456125D02*
X394516D01*
X392911Y455770D02*
X394516D01*
X393007Y455416D02*
X394516D01*
X393043Y455062D02*
X394516D01*
X393043Y465692D02*
X394473D01*
X392991Y472424D02*
X394465D01*
X393040Y472070D02*
X394458D01*
X393043Y471715D02*
X394458D01*
X393043Y471361D02*
X394458D01*
X393043Y471007D02*
X394458D01*
X393043Y470652D02*
X394458D01*
X393043Y470298D02*
X394458D01*
X393043Y469944D02*
X394458D01*
X393043Y469589D02*
X394458D01*
X393043Y469235D02*
X394458D01*
X393043Y468881D02*
X394458D01*
X393043Y468526D02*
X394458D01*
X393043Y468172D02*
X394458D01*
X393043Y467818D02*
X394458D01*
X393043Y467463D02*
X394458D01*
X393043Y467109D02*
X394458D01*
X393043Y466755D02*
X394458D01*
X393043Y466400D02*
X394458D01*
X393043Y466046D02*
X394458D01*
X380922Y457188D02*
X383601D01*
X380063Y473841D02*
X382841D01*
X381331Y459668D02*
X382768D01*
X381021Y456833D02*
X382717D01*
X381331Y443014D02*
X382401D01*
X380600Y473487D02*
X382388D01*
X381331Y460022D02*
X382346D01*
X381191Y456479D02*
X382315D01*
X381331Y442660D02*
X382149D01*
X381331Y443369D02*
X382128D01*
X380918Y473133D02*
X382106D01*
X381331Y460377D02*
X382078D01*
X381291Y456125D02*
X382058D01*
X381331Y443723D02*
X381937D01*
X381331Y460731D02*
X381905D01*
X381330Y455770D02*
X381892D01*
X381167Y472778D02*
X381876D01*
X381331Y444077D02*
X381820D01*
X381331Y461085D02*
X381802D01*
X381331Y455416D02*
X381796D01*
X381331Y442306D02*
X381769D01*
X381331Y444432D02*
X381765D01*
X381331Y461440D02*
X381761D01*
X381331Y455062D02*
X381760D01*
X380893Y466400D02*
X381760D01*
X380560Y466046D02*
X381760D01*
X379986Y465692D02*
X381760D01*
X368556Y465337D02*
X381760D01*
X368322Y464983D02*
X381760D01*
X379973Y464629D02*
X381760D01*
X380554Y464274D02*
X381760D01*
X380889Y463920D02*
X381760D01*
X381106Y463566D02*
X381760D01*
X381244Y463211D02*
X381760D01*
X381315Y462857D02*
X381760D01*
X381331Y462503D02*
X381760D01*
X381331Y462148D02*
X381760D01*
X381331Y461794D02*
X381760D01*
X381331Y454707D02*
X381760D01*
X381331Y454353D02*
X381760D01*
X381331Y453999D02*
X381760D01*
X381331Y453644D02*
X381760D01*
X381331Y453290D02*
X381760D01*
X381331Y452936D02*
X381760D01*
X381331Y452581D02*
X381760D01*
X381331Y452227D02*
X381760D01*
X381331Y451873D02*
X381760D01*
X381330Y451518D02*
X381760D01*
X381292Y451164D02*
X381760D01*
X381193Y450810D02*
X381760D01*
X381024Y450455D02*
X381760D01*
X380763Y450101D02*
X381760D01*
X380352Y449747D02*
X381760D01*
X379385Y449392D02*
X381760D01*
X367746Y449038D02*
X381760D01*
X368032Y448684D02*
X381760D01*
X380282Y448329D02*
X381760D01*
X380722Y447975D02*
X381760D01*
X380997Y447621D02*
X381760D01*
X381176Y447266D02*
X381760D01*
X381283Y446912D02*
X381760D01*
X381328Y446558D02*
X381760D01*
X381331Y446203D02*
X381760D01*
X381331Y445849D02*
X381760D01*
X381331Y445495D02*
X381760D01*
X381331Y445140D02*
X381760D01*
X381331Y444786D02*
X381760D01*
X381120Y466755D02*
X381702D01*
X367285Y449392D02*
X373764D01*
X368366Y464629D02*
X373176D01*
X368910Y465692D02*
X373164D01*
X371165Y473841D02*
X373087D01*
X368218Y448329D02*
X372867D01*
X366094Y449747D02*
X372797D01*
X368385Y464274D02*
X372595D01*
X369264Y466046D02*
X372589D01*
X369941Y473487D02*
X372550D01*
X368331Y447975D02*
X372428D01*
X366208Y450101D02*
X372387D01*
X368380Y463920D02*
X372261D01*
X369619Y466400D02*
X372257D01*
X368785Y473133D02*
X372232D01*
X367530Y457188D02*
X372227D01*
X368382Y447621D02*
X372153D01*
X367744Y456833D02*
X372129D01*
X366652Y450455D02*
X372125D01*
X368350Y463566D02*
X372043D01*
X369973Y466755D02*
X372029D01*
X367275Y457542D02*
X372022D01*
X368771Y472778D02*
X371983D01*
X368386Y447266D02*
X371974D01*
X367921Y456479D02*
X371958D01*
X367011Y450810D02*
X371956D01*
X368296Y463211D02*
X371906D01*
X366970Y457896D02*
X371894D01*
X368460Y446912D02*
X371866D01*
X368066Y456125D02*
X371859D01*
X367310Y451164D02*
X371858D01*
X368216Y462857D02*
X371834D01*
X366601Y458251D02*
X371829D01*
X368182Y455770D02*
X371820D01*
X367559Y451518D02*
X371820D01*
X368110Y462503D02*
X371819D01*
X367975Y462148D02*
X371819D01*
X367809Y461794D02*
X371819D01*
X367609Y461440D02*
X371819D01*
X367369Y461085D02*
X371819D01*
X367082Y460731D02*
X371819D01*
X366738Y460377D02*
X371819D01*
X366316Y460022D02*
X371819D01*
X365779Y459668D02*
X371819D01*
X365210Y459314D02*
X371819D01*
X365552Y458959D02*
X371819D01*
X366145Y458605D02*
X371819D01*
X368271Y455416D02*
X371819D01*
X368334Y455062D02*
X371819D01*
X368372Y454707D02*
X371819D01*
X368386Y454353D02*
X371819D01*
X368375Y453999D02*
X371819D01*
X368340Y453644D02*
X371819D01*
X368281Y453290D02*
X371819D01*
X368195Y452936D02*
X371819D01*
X368083Y452581D02*
X371819D01*
X367941Y452227D02*
X371819D01*
X367768Y451873D02*
X371819D01*
X362494Y362486D02*
X365631D01*
X362640Y362131D02*
X365631D01*
X362742Y361777D02*
X365631D01*
X362803Y361423D02*
X365631D01*
X362826Y361068D02*
X365583D01*
X362297Y362840D02*
X365461D01*
X362037Y363194D02*
X365119D01*
X361693Y363549D02*
X364862D01*
X362813Y360714D02*
X364769D01*
X361215Y363903D02*
X364666D01*
X360425Y364257D02*
X364522D01*
X362755Y351856D02*
X364500D01*
X345715Y364612D02*
X364421D01*
X362980Y352210D02*
X364368D01*
X345618Y364966D02*
X364361D01*
X345342Y365675D02*
X364354D01*
X362761Y360360D02*
X364341D01*
X345495Y365320D02*
X364339D01*
X362406Y351501D02*
X364245D01*
X363124Y352564D02*
X364089D01*
X361783Y351147D02*
X364078D01*
X362670Y360005D02*
X364071D01*
X361510Y350793D02*
X363965D01*
X363201Y352919D02*
X363907D01*
X362681Y359651D02*
X363896D01*
X363220Y353273D02*
X363798D01*
X362932Y359297D02*
X363792D01*
X363220Y353627D02*
X363751D01*
X363094Y358942D02*
X363750D01*
X363187Y358588D02*
X363748D01*
X363220Y358234D02*
X363748D01*
X363220Y357879D02*
X363748D01*
X363220Y357525D02*
X363748D01*
X363220Y357171D02*
X363748D01*
X363220Y356816D02*
X363748D01*
X363220Y356462D02*
X363748D01*
X363220Y356108D02*
X363748D01*
X363220Y355753D02*
X363748D01*
X363220Y355399D02*
X363748D01*
X363220Y355045D02*
X363748D01*
X363220Y354690D02*
X363748D01*
X363220Y354336D02*
X363748D01*
X363220Y353982D02*
X363748D01*
X355625Y366029D02*
X359336D01*
X356279Y366383D02*
X358681D01*
X355307Y364257D02*
X358472D01*
X356361Y374887D02*
X358370D01*
X356637Y366738D02*
X358324D01*
X356689Y374533D02*
X358272D01*
X356868Y367092D02*
X358093D01*
X356902Y374179D02*
X358059D01*
X357015Y367446D02*
X357945D01*
X357036Y373824D02*
X357925D01*
X357096Y367801D02*
X357864D01*
X357105Y373470D02*
X357856D01*
X357118Y373116D02*
X357842D01*
X357118Y372761D02*
X357842D01*
X357118Y372407D02*
X357842D01*
X357118Y372053D02*
X357842D01*
X357118Y371698D02*
X357842D01*
X357118Y371344D02*
X357842D01*
X357118Y370990D02*
X357842D01*
X357118Y370635D02*
X357842D01*
X357118Y370281D02*
X357842D01*
X357118Y369927D02*
X357842D01*
X357118Y369572D02*
X357842D01*
X357118Y369218D02*
X357842D01*
X357118Y368864D02*
X357842D01*
X357118Y368509D02*
X357842D01*
X357118Y368155D02*
X357842D01*
X355800Y375242D02*
X357827D01*
X356097Y363903D02*
X357683D01*
X349047Y375596D02*
X357420D01*
X356575Y363549D02*
X357205D01*
X349047Y375950D02*
X356586D01*
X349024Y376305D02*
X356155D01*
X348941Y376659D02*
X355800D01*
X348791Y377013D02*
X355446D01*
X348557Y377368D02*
X355092D01*
X348195Y377722D02*
X354737D01*
X347521Y378076D02*
X354383D01*
X334109Y378431D02*
X354029D01*
X338491Y378785D02*
X353674D01*
X345785Y364257D02*
X353354D01*
X347837Y379139D02*
X353320D01*
X348346Y379494D02*
X352966D01*
X348654Y379848D02*
X352611D01*
X345832Y363903D02*
X352564D01*
X348854Y380202D02*
X352257D01*
X345855Y363549D02*
X352087D01*
X348978Y380557D02*
X351903D01*
X345854Y363194D02*
X351743D01*
X345829Y362840D02*
X351483D01*
X345781Y362486D02*
X351286D01*
X344336Y359651D02*
X351244D01*
X345708Y362131D02*
X351140D01*
X343954Y359297D02*
X351123D01*
X344652Y360005D02*
X351110D01*
X345609Y361777D02*
X351038D01*
X344918Y360360D02*
X351019D01*
X345483Y361423D02*
X350976D01*
X345141Y360714D02*
X350967D01*
X343483Y358942D02*
X350961D01*
X345329Y361068D02*
X350953D01*
X342868Y358588D02*
X350868D01*
X341936Y358234D02*
X350835D01*
X318553Y357879D02*
X350835D01*
X318723Y357525D02*
X350754D01*
X347633Y357171D02*
X350123D01*
X345158Y366029D02*
X350084D01*
X349047Y375242D02*
X349908D01*
X348244Y356816D02*
X349757D01*
X344937Y366383D02*
X349429D01*
X348588Y356462D02*
X349402D01*
X349146Y374887D02*
X349342D01*
X344675Y366738D02*
X349072D01*
X348849Y356108D02*
X349036D01*
X344363Y367092D02*
X348841D01*
X343988Y367446D02*
X348693D01*
X343525Y367801D02*
X348612D01*
X347911Y369927D02*
X348591D01*
X333807Y369572D02*
X348591D01*
X314133Y369218D02*
X348591D01*
X314243Y368864D02*
X348591D01*
X342035Y368509D02*
X348591D01*
X342926Y368155D02*
X348591D01*
X338381Y357171D02*
X341934D01*
X338992Y356816D02*
X341323D01*
X334281Y378076D02*
X341062D01*
X339336Y356462D02*
X340979D01*
X339345Y348667D02*
X340970D01*
X339394Y348312D02*
X340921D01*
X339560Y356108D02*
X340755D01*
X339565Y349021D02*
X340750D01*
X339206Y379139D02*
X340746D01*
X339598Y347958D02*
X340717D01*
X334254Y369927D02*
X340671D01*
X339701Y355753D02*
X340614D01*
X339705Y349375D02*
X340610D01*
X339724Y347604D02*
X340591D01*
X339777Y355399D02*
X340538D01*
X339779Y349730D02*
X340536D01*
X339786Y347249D02*
X340529D01*
X339795Y355045D02*
X340520D01*
X339795Y354690D02*
X340520D01*
X339795Y354336D02*
X340520D01*
X339795Y353982D02*
X340520D01*
X339795Y353627D02*
X340520D01*
X339795Y353273D02*
X340520D01*
X339795Y352919D02*
X340520D01*
X339795Y352564D02*
X340520D01*
X339795Y352210D02*
X340520D01*
X339795Y351856D02*
X340520D01*
X339795Y351501D02*
X340520D01*
X339795Y351147D02*
X340520D01*
X339795Y350793D02*
X340520D01*
X339795Y350438D02*
X340520D01*
X339795Y350084D02*
X340520D01*
X339795Y346895D02*
X340520D01*
X339795Y346541D02*
X340520D01*
X339795Y346187D02*
X340520D01*
X339795Y345832D02*
X340520D01*
X339795Y345478D02*
X340520D01*
X339795Y345124D02*
X340520D01*
X339795Y344769D02*
X340520D01*
X339795Y344415D02*
X340520D01*
X339795Y344061D02*
X340520D01*
X339795Y343706D02*
X340520D01*
X339795Y343352D02*
X340520D01*
X339795Y342998D02*
X340520D01*
X339795Y342643D02*
X340520D01*
X339795Y342289D02*
X340520D01*
X339796Y341935D02*
X340519D01*
X334551Y377722D02*
X340388D01*
X339694Y379494D02*
X340236D01*
X334533Y370281D02*
X340195D01*
X334726Y377368D02*
X340026D01*
X334715Y370635D02*
X339902D01*
X334830Y377013D02*
X339791D01*
X334824Y370990D02*
X339711D01*
X334872Y376659D02*
X339642D01*
X334871Y371344D02*
X339595D01*
X334874Y376305D02*
X339559D01*
X334874Y371698D02*
X339541D01*
X334874Y375950D02*
X339535D01*
X334874Y375596D02*
X339535D01*
X334874Y375242D02*
X339535D01*
X334874Y374887D02*
X339535D01*
X334874Y374533D02*
X339535D01*
X334874Y374179D02*
X339535D01*
X334874Y373824D02*
X339535D01*
X334874Y373470D02*
X339535D01*
X334874Y373116D02*
X339535D01*
X334874Y372761D02*
X339535D01*
X334874Y372407D02*
X339535D01*
X334874Y372053D02*
X339535D01*
X334561Y358234D02*
X339088D01*
X334622Y368509D02*
X338988D01*
X335111Y358588D02*
X338155D01*
X335143Y368155D02*
X338098D01*
X335435Y358942D02*
X337541D01*
X335455Y367801D02*
X337498D01*
X335645Y359297D02*
X337069D01*
X335659Y367446D02*
X337036D01*
X335777Y359651D02*
X336688D01*
X335785Y367092D02*
X336660D01*
X335845Y360005D02*
X336371D01*
X335848Y366738D02*
X336348D01*
X334423Y378785D02*
X335524D01*
X331482Y338391D02*
X333568D01*
X331169Y338746D02*
X333370D01*
X330859Y339100D02*
X333239D01*
X330553Y339454D02*
X333168D01*
X331798Y338037D02*
X333114D01*
X330250Y339809D02*
X332891D01*
X318895Y357171D02*
X332682D01*
X329951Y340163D02*
X332158D01*
X319069Y356816D02*
X332071D01*
X329655Y340517D02*
X331781D01*
X319245Y356462D02*
X331727D01*
X323684Y348667D02*
X331718D01*
X323914Y348312D02*
X331669D01*
X329362Y340872D02*
X331539D01*
X319423Y356108D02*
X331503D01*
X323458Y349021D02*
X331498D01*
X324145Y347958D02*
X331465D01*
X329073Y341226D02*
X331383D01*
X319604Y355753D02*
X331362D01*
X323234Y349375D02*
X331358D01*
X324380Y347604D02*
X331339D01*
X328787Y341580D02*
X331296D01*
X319786Y355399D02*
X331286D01*
X323012Y349730D02*
X331284D01*
X324616Y347249D02*
X331277D01*
X319971Y355045D02*
X331268D01*
X320158Y354690D02*
X331268D01*
X320347Y354336D02*
X331268D01*
X320538Y353982D02*
X331268D01*
X320732Y353627D02*
X331268D01*
X320927Y353273D02*
X331268D01*
X321125Y352919D02*
X331268D01*
X321326Y352564D02*
X331268D01*
X321528Y352210D02*
X331268D01*
X321733Y351856D02*
X331268D01*
X321940Y351501D02*
X331268D01*
X322150Y351147D02*
X331268D01*
X322362Y350793D02*
X331268D01*
X322576Y350438D02*
X331268D01*
X322793Y350084D02*
X331268D01*
X324856Y346895D02*
X331268D01*
X325098Y346541D02*
X331268D01*
X325343Y346187D02*
X331268D01*
X325591Y345832D02*
X331268D01*
X325841Y345478D02*
X331268D01*
X326094Y345124D02*
X331268D01*
X326351Y344769D02*
X331268D01*
X326609Y344415D02*
X331268D01*
X326871Y344061D02*
X331268D01*
X327136Y343706D02*
X331268D01*
X327403Y343352D02*
X331268D01*
X327674Y342998D02*
X331268D01*
X327948Y342643D02*
X331268D01*
X328224Y342289D02*
X331268D01*
X328504Y341935D02*
X331268D01*
X325964Y387289D02*
X327499D01*
X324555Y369572D02*
X327414D01*
X326911Y387643D02*
X327221D01*
X324820Y386935D02*
X327150D01*
X324857Y378431D02*
X327112D01*
X325002Y369927D02*
X326967D01*
X325029Y378076D02*
X326940D01*
X325163Y386580D02*
X326806D01*
X325171Y378785D02*
X326797D01*
X325281Y370281D02*
X326688D01*
X325299Y377722D02*
X326670D01*
X325387Y386226D02*
X326582D01*
X325392Y379139D02*
X326577D01*
X325463Y370635D02*
X326506D01*
X325474Y377368D02*
X326494D01*
X318385Y358234D02*
X326463D01*
X325528Y385872D02*
X326440D01*
X325531Y379494D02*
X326437D01*
X314355Y368509D02*
X326402D01*
X325572Y370990D02*
X326397D01*
X325578Y377013D02*
X326391D01*
X325604Y385517D02*
X326364D01*
X325605Y379848D02*
X326363D01*
X325619Y371344D02*
X326349D01*
X325620Y376659D02*
X326348D01*
X325622Y385163D02*
X326346D01*
X325622Y384809D02*
X326346D01*
X325622Y384454D02*
X326346D01*
X325622Y384100D02*
X326346D01*
X325622Y383746D02*
X326346D01*
X325622Y383391D02*
X326346D01*
X325622Y383037D02*
X326346D01*
X325622Y382683D02*
X326346D01*
X325622Y382328D02*
X326346D01*
X325622Y381974D02*
X326346D01*
X325622Y381620D02*
X326346D01*
X325622Y381265D02*
X326346D01*
X325622Y380911D02*
X326346D01*
X325622Y380557D02*
X326346D01*
X325622Y380202D02*
X326346D01*
X325622Y376305D02*
X326346D01*
X325622Y375950D02*
X326346D01*
X325622Y375596D02*
X326346D01*
X325622Y375242D02*
X326346D01*
X325622Y374887D02*
X326346D01*
X325622Y374533D02*
X326346D01*
X325622Y374179D02*
X326346D01*
X325622Y373824D02*
X326346D01*
X325622Y373470D02*
X326346D01*
X325622Y373116D02*
X326346D01*
X325622Y372761D02*
X326346D01*
X325622Y372407D02*
X326346D01*
X325622Y372053D02*
X326346D01*
X325622Y371698D02*
X326346D01*
X318219Y358588D02*
X325912D01*
X314468Y368155D02*
X325881D01*
X318055Y358942D02*
X325589D01*
X314583Y367801D02*
X325568D01*
X317894Y359297D02*
X325378D01*
X314700Y367446D02*
X325365D01*
X317734Y359651D02*
X325246D01*
X314819Y367092D02*
X325239D01*
X317576Y360005D02*
X325179D01*
X314939Y366738D02*
X325176D01*
X315062Y366383D02*
X325167D01*
X315186Y366029D02*
X325167D01*
X315311Y365675D02*
X325167D01*
X315439Y365320D02*
X325167D01*
X315568Y364966D02*
X325167D01*
X315700Y364612D02*
X325167D01*
X315833Y364257D02*
X325167D01*
X315968Y363903D02*
X325167D01*
X316104Y363549D02*
X325167D01*
X316243Y363194D02*
X325167D01*
X316383Y362840D02*
X325167D01*
X316526Y362486D02*
X325167D01*
X316670Y362131D02*
X325167D01*
X316816Y361777D02*
X325167D01*
X316964Y361423D02*
X325167D01*
X317114Y361068D02*
X325167D01*
X317266Y360714D02*
X325167D01*
X317420Y360360D02*
X325167D01*
X314025Y369572D02*
X318162D01*
X313919Y369927D02*
X317715D01*
X313814Y370281D02*
X317436D01*
X313711Y370635D02*
X317254D01*
X313610Y370990D02*
X317122D01*
X313510Y371344D02*
X315116D01*
X313412Y371698D02*
X314520D01*
X313316Y372053D02*
X314115D01*
X313221Y372407D02*
X313815D01*
X313128Y372761D02*
X313587D01*
X373850Y433442D02*
X385446D01*
X373850Y433087D02*
X385129D01*
X373850Y432733D02*
X384775D01*
X373850Y432379D02*
X384421D01*
X373835Y432024D02*
X384066D01*
X373763Y431670D02*
X383712D01*
X373626Y431316D02*
X383372D01*
X373408Y430961D02*
X383143D01*
X373073Y430607D02*
X383010D01*
X372492Y430253D02*
X382950D01*
X350074Y429898D02*
X382946D01*
X349894Y429544D02*
X382946D01*
X372507Y429190D02*
X382946D01*
X373081Y428835D02*
X382946D01*
X373413Y428481D02*
X382946D01*
X373629Y428127D02*
X382946D01*
X373765Y427772D02*
X382946D01*
X373836Y427418D02*
X382946D01*
X373850Y427064D02*
X382946D01*
X373850Y426709D02*
X382946D01*
X373850Y426355D02*
X382946D01*
X373850Y426001D02*
X382946D01*
X373850Y425646D02*
X382946D01*
X373850Y425292D02*
X382946D01*
X373850Y424938D02*
X382946D01*
X373850Y424584D02*
X382946D01*
X373850Y424229D02*
X382946D01*
X373850Y423875D02*
X382946D01*
X373850Y423521D02*
X382946D01*
X373850Y423166D02*
X382946D01*
X373839Y422812D02*
X382946D01*
X373774Y422458D02*
X382946D01*
X373645Y422103D02*
X382946D01*
X373437Y421749D02*
X382946D01*
X373119Y421395D02*
X382946D01*
X372581Y421040D02*
X382924D01*
X373850Y433796D02*
X382767D01*
X373850Y434150D02*
X382098D01*
X373850Y434505D02*
X381736D01*
X373850Y434859D02*
X381503D01*
X373850Y435213D02*
X381353D01*
X373850Y435568D02*
X381271D01*
X373776Y436985D02*
X381248D01*
X373840Y436631D02*
X381248D01*
X373850Y436276D02*
X381248D01*
X373850Y435922D02*
X381248D01*
X354366Y420686D02*
X377782D01*
X354894Y420332D02*
X377201D01*
X355266Y419977D02*
X376829D01*
X355593Y419623D02*
X376566D01*
X369232Y419269D02*
X376379D01*
X373648Y437339D02*
X376376D01*
X369626Y418914D02*
X376250D01*
X369981Y418560D02*
X376172D01*
X373442Y437694D02*
X375720D01*
X373126Y438048D02*
X375347D01*
X372595Y438402D02*
X375099D01*
X350228Y438757D02*
X374933D01*
X350228Y439111D02*
X374832D01*
X367046Y439465D02*
X374787D01*
X367618Y439820D02*
X374784D01*
X367949Y440174D02*
X373559D01*
X368165Y440528D02*
X372748D01*
X368301Y440883D02*
X372357D01*
X368371Y441237D02*
X372106D01*
X368386Y441591D02*
X371944D01*
X368389Y441946D02*
X371821D01*
X366609Y472418D02*
X367034D01*
X365601Y472064D02*
X366894D01*
X364632Y471709D02*
X366523D01*
X363698Y471355D02*
X366168D01*
X362797Y471001D02*
X365814D01*
X350181Y430253D02*
X365697D01*
X349646Y429190D02*
X365682D01*
X353359Y421040D02*
X365608D01*
X350196Y438402D02*
X365594D01*
X361925Y470646D02*
X365460D01*
X350226Y430607D02*
X365116D01*
X349820Y428835D02*
X365108D01*
X361080Y470292D02*
X365105D01*
X349963Y421395D02*
X365070D01*
X350103Y438048D02*
X365063D01*
X363756Y430961D02*
X364781D01*
X350025Y428481D02*
X364776D01*
X350117Y421749D02*
X364752D01*
X360260Y469938D02*
X364751D01*
X349941Y437694D02*
X364747D01*
X350154Y428127D02*
X364560D01*
X350202Y422103D02*
X364544D01*
X364370Y437339D02*
X364463D01*
X350218Y427772D02*
X364424D01*
X350228Y422458D02*
X364415D01*
X359464Y469584D02*
X364397D01*
X350228Y427418D02*
X364353D01*
X350228Y422812D02*
X364350D01*
X350228Y427064D02*
X364339D01*
X350228Y426709D02*
X364339D01*
X350228Y426355D02*
X364339D01*
X350228Y426001D02*
X364339D01*
X350228Y425646D02*
X364339D01*
X350228Y425292D02*
X364339D01*
X350228Y424938D02*
X364339D01*
X350228Y424584D02*
X364339D01*
X350228Y424229D02*
X364339D01*
X350228Y423875D02*
X364339D01*
X350228Y423521D02*
X364339D01*
X350228Y423166D02*
X364339D01*
X350228Y430961D02*
X362228D01*
X358689Y469229D02*
X361987D01*
X349722Y437339D02*
X361622D01*
X350228Y431316D02*
X361322D01*
X342456Y459308D02*
X361170D01*
X349898Y436985D02*
X361007D01*
X357935Y468875D02*
X360975D01*
X342005Y458954D02*
X360815D01*
X350228Y431670D02*
X360814D01*
X342913Y459662D02*
X360609D01*
X350076Y436631D02*
X360594D01*
X350228Y432024D02*
X360453D01*
X357199Y468521D02*
X360341D01*
X350182Y436276D02*
X360288D01*
X337083Y449741D02*
X360278D01*
X341561Y458599D02*
X360225D01*
X350228Y432379D02*
X360181D01*
X337657Y450095D02*
X360178D01*
X343376Y460017D02*
X360070D01*
X350226Y435922D02*
X360056D01*
X350228Y432733D02*
X359975D01*
X350228Y435568D02*
X359881D01*
X356482Y468166D02*
X359863D01*
X350228Y433087D02*
X359821D01*
X341123Y458245D02*
X359770D01*
X350228Y435213D02*
X359754D01*
X338102Y450450D02*
X359733D01*
X350228Y433442D02*
X359713D01*
X350228Y434859D02*
X359669D01*
X343846Y460371D02*
X359646D01*
X350228Y433796D02*
X359645D01*
X350228Y434505D02*
X359624D01*
X350228Y434150D02*
X359616D01*
X355781Y467812D02*
X359478D01*
X340691Y457891D02*
X359403D01*
X338463Y450804D02*
X359372D01*
X350228Y439465D02*
X359332D01*
X344324Y460725D02*
X359301D01*
X355096Y467458D02*
X359161D01*
X340265Y457536D02*
X359099D01*
X336247Y449387D02*
X359083D01*
X338762Y451158D02*
X359073D01*
X344808Y461080D02*
X359013D01*
X354427Y467103D02*
X358897D01*
X339844Y457182D02*
X358844D01*
X339012Y451513D02*
X358823D01*
X345300Y461434D02*
X358773D01*
X350228Y439820D02*
X358760D01*
X353772Y466749D02*
X358675D01*
X339430Y456828D02*
X358631D01*
X331501Y449032D02*
X358626D01*
X339221Y451867D02*
X358613D01*
X345800Y461788D02*
X358572D01*
X353130Y466395D02*
X358491D01*
X339380Y456473D02*
X358454D01*
X339395Y452221D02*
X358439D01*
X350228Y440174D02*
X358428D01*
X346308Y462143D02*
X358405D01*
X331188Y448678D02*
X358342D01*
X352502Y466040D02*
X358339D01*
X339525Y456119D02*
X358309D01*
X339537Y452576D02*
X358297D01*
X346824Y462497D02*
X358270D01*
X351886Y465686D02*
X358217D01*
X350228Y440528D02*
X358213D01*
X339641Y455765D02*
X358194D01*
X339650Y452930D02*
X358184D01*
X347348Y462851D02*
X358163D01*
X330878Y448324D02*
X358157D01*
X351281Y465332D02*
X358123D01*
X339729Y455410D02*
X358105D01*
X339736Y453284D02*
X358099D01*
X347881Y463206D02*
X358083D01*
X350228Y440883D02*
X358077D01*
X350689Y464977D02*
X358055D01*
X330572Y447969D02*
X358045D01*
X339792Y455056D02*
X358043D01*
X339796Y453639D02*
X358038D01*
X348423Y463560D02*
X358028D01*
X350107Y464623D02*
X358012D01*
X350228Y441237D02*
X358007D01*
X339829Y454702D02*
X358005D01*
X339832Y453993D02*
X358003D01*
X348975Y463914D02*
X357999D01*
X330269Y447615D02*
X357996D01*
X349536Y464269D02*
X357993D01*
X339843Y454347D02*
X357992D01*
X329969Y447261D02*
X357992D01*
X329673Y446906D02*
X357992D01*
X329380Y446552D02*
X357992D01*
X329091Y446198D02*
X357992D01*
X349052Y445843D02*
X357992D01*
X349546Y445489D02*
X357992D01*
X349847Y445135D02*
X357992D01*
X350043Y444780D02*
X357992D01*
X350164Y444426D02*
X357992D01*
X350221Y444072D02*
X357992D01*
X350228Y443717D02*
X357992D01*
X350228Y443363D02*
X357992D01*
X350228Y443009D02*
X357992D01*
X350228Y442654D02*
X357992D01*
X350228Y442300D02*
X357992D01*
X350228Y441946D02*
X357992D01*
X350228Y441591D02*
X357992D01*
X349724Y421040D02*
X352153D01*
X349353Y420686D02*
X351145D01*
X349123Y420332D02*
X350618D01*
X349450Y419977D02*
X350246D01*
X349693Y419623D02*
X349962D01*
X339800Y445843D02*
X342878D01*
X340294Y445489D02*
X342383D01*
X340394Y429190D02*
X342284D01*
X340470Y437339D02*
X342207D01*
X340472Y421040D02*
X342181D01*
X340568Y428835D02*
X342110D01*
X340595Y445135D02*
X342082D01*
X340642Y429544D02*
X342035D01*
X340646Y436985D02*
X342031D01*
X340689Y437694D02*
X341988D01*
X340711Y421395D02*
X341966D01*
X340774Y428481D02*
X341904D01*
X340791Y444780D02*
X341886D01*
X340822Y429898D02*
X341856D01*
X340824Y436631D02*
X341853D01*
X340851Y438048D02*
X341826D01*
X340865Y421749D02*
X341813D01*
X340902Y428127D02*
X341775D01*
X340912Y444426D02*
X341765D01*
X340929Y430253D02*
X341749D01*
X340930Y436276D02*
X341747D01*
X340944Y438402D02*
X341733D01*
X340950Y422103D02*
X341727D01*
X340966Y427772D02*
X341711D01*
X340969Y444072D02*
X341708D01*
X340974Y430607D02*
X341703D01*
X340974Y435922D02*
X341703D01*
X340976Y438757D02*
X341701D01*
X340976Y443717D02*
X341701D01*
X340976Y443363D02*
X341701D01*
X340976Y443009D02*
X341701D01*
X340976Y442654D02*
X341701D01*
X340976Y442300D02*
X341701D01*
X340976Y441946D02*
X341701D01*
X340976Y441591D02*
X341701D01*
X340976Y441237D02*
X341701D01*
X340976Y440883D02*
X341701D01*
X340976Y440528D02*
X341701D01*
X340976Y440174D02*
X341701D01*
X340976Y439820D02*
X341701D01*
X340976Y439465D02*
X341701D01*
X340976Y439111D02*
X341701D01*
X340976Y435568D02*
X341701D01*
X340976Y435213D02*
X341701D01*
X340976Y434859D02*
X341701D01*
X340976Y434505D02*
X341701D01*
X340976Y434150D02*
X341701D01*
X340976Y433796D02*
X341701D01*
X340976Y433442D02*
X341701D01*
X340976Y433087D02*
X341701D01*
X340976Y432733D02*
X341701D01*
X340976Y432379D02*
X341701D01*
X340976Y432024D02*
X341701D01*
X340976Y431670D02*
X341701D01*
X340976Y431316D02*
X341701D01*
X340976Y430961D02*
X341701D01*
X340976Y427418D02*
X341701D01*
X340976Y427064D02*
X341701D01*
X340976Y426709D02*
X341701D01*
X340976Y426355D02*
X341701D01*
X340976Y426001D02*
X341701D01*
X340976Y425646D02*
X341701D01*
X340976Y425292D02*
X341701D01*
X340976Y424938D02*
X341701D01*
X340976Y424584D02*
X341701D01*
X340976Y424229D02*
X341701D01*
X340976Y423875D02*
X341701D01*
X340976Y423521D02*
X341701D01*
X340976Y423166D02*
X341701D01*
X340976Y422812D02*
X341701D01*
X340976Y422458D02*
X341701D01*
X340119Y420686D02*
X340937D01*
X339393Y420332D02*
X340275D01*
X327402Y419977D02*
X339920D01*
X327634Y419623D02*
X339688D01*
X327757Y416788D02*
X339566D01*
X327782Y419269D02*
X339540D01*
X327834Y417143D02*
X339489D01*
X327864Y418914D02*
X339459D01*
X327883Y417497D02*
X339440D01*
X327886Y418560D02*
X339437D01*
X327886Y418206D02*
X339437D01*
X327886Y417851D02*
X339437D01*
X327044Y420332D02*
X334032D01*
X328805Y445843D02*
X333626D01*
X326386Y420686D02*
X333324D01*
X328521Y445489D02*
X333131D01*
X331818Y449387D02*
X333044D01*
X324535Y421040D02*
X332953D01*
X328242Y445135D02*
X332830D01*
X324535Y421395D02*
X332714D01*
X327965Y444780D02*
X332634D01*
X331364Y421749D02*
X332561D01*
X327691Y444426D02*
X332513D01*
X331951Y422103D02*
X332475D01*
X327420Y444072D02*
X332456D01*
X327152Y443717D02*
X332449D01*
X326887Y443363D02*
X332449D01*
X326626Y443009D02*
X332448D01*
X326366Y442654D02*
X332132D01*
X326110Y442300D02*
X331778D01*
X325857Y441946D02*
X331424D01*
X325606Y441591D02*
X331069D01*
X325359Y441237D02*
X330715D01*
X325113Y440883D02*
X330361D01*
X324871Y440528D02*
X330006D01*
X324631Y440174D02*
X329652D01*
X324394Y439820D02*
X329298D01*
X324160Y439465D02*
X328943D01*
X323928Y439111D02*
X328589D01*
X324535Y421749D02*
X328478D01*
X323698Y438757D02*
X328235D01*
X324535Y422103D02*
X327891D01*
X323472Y438402D02*
X327880D01*
X324535Y427418D02*
X327658D01*
X323247Y438048D02*
X327526D01*
X324535Y422458D02*
X327490D01*
X324535Y427064D02*
X327411D01*
X324535Y427772D02*
X327303D01*
X324535Y422812D02*
X327193D01*
X323026Y437694D02*
X327172D01*
X324535Y426709D02*
X327133D01*
X324535Y423166D02*
X326966D01*
X324535Y428127D02*
X326954D01*
X324535Y426355D02*
X326921D01*
X322806Y437339D02*
X326817D01*
X324535Y423521D02*
X326796D01*
X324535Y426001D02*
X326763D01*
X324535Y428481D02*
X326691D01*
X324535Y423875D02*
X326673D01*
X324535Y425646D02*
X326650D01*
X324535Y424229D02*
X326592D01*
X324535Y425292D02*
X326579D01*
X324535Y424584D02*
X326550D01*
X324535Y424938D02*
X326546D01*
X324535Y428835D02*
X326491D01*
X322589Y436985D02*
X326463D01*
X324535Y429190D02*
X326342D01*
X324535Y429544D02*
X326239D01*
X324742Y429898D02*
X326175D01*
X325805Y430961D02*
X326174D01*
X325450Y430607D02*
X326162D01*
X325096Y430253D02*
X326150D01*
X322375Y436631D02*
X326109D01*
X322163Y436276D02*
X325754D01*
X321953Y435922D02*
X325400D01*
X321746Y435568D02*
X325046D01*
X321541Y435213D02*
X324691D01*
X321338Y434859D02*
X324337D01*
X321138Y434505D02*
X323983D01*
X320940Y434150D02*
X323628D01*
X320744Y433796D02*
X323274D01*
X320550Y433442D02*
X322920D01*
X320359Y433087D02*
X322565D01*
X320170Y432733D02*
X322211D01*
X319983Y432379D02*
X321857D01*
X319798Y432024D02*
X321502D01*
X319615Y431670D02*
X321163D01*
X319435Y431316D02*
X320936D01*
X319256Y430961D02*
X320804D01*
X319080Y430607D02*
X320745D01*
X318906Y430253D02*
X320741D01*
X318734Y429898D02*
X320741D01*
X318563Y429544D02*
X320741D01*
X318395Y429190D02*
X320741D01*
X318229Y428835D02*
X320741D01*
X318066Y428481D02*
X320741D01*
X317904Y428127D02*
X320741D01*
X317744Y427772D02*
X320741D01*
X317586Y427418D02*
X320741D01*
X317430Y427064D02*
X320741D01*
X317276Y426709D02*
X320741D01*
X317124Y426355D02*
X320741D01*
X316974Y426001D02*
X320741D01*
X316825Y425646D02*
X320741D01*
X316679Y425292D02*
X320741D01*
X316535Y424938D02*
X320741D01*
X316392Y424584D02*
X320741D01*
X316252Y424229D02*
X320741D01*
X316113Y423875D02*
X320741D01*
X315976Y423521D02*
X320741D01*
X315841Y423166D02*
X320741D01*
X315708Y422812D02*
X320741D01*
X315576Y422458D02*
X320741D01*
X315447Y422103D02*
X320741D01*
X315319Y421749D02*
X320741D01*
X315193Y421395D02*
X320741D01*
X315069Y421040D02*
X320741D01*
X314947Y420686D02*
X318890D01*
X314826Y420332D02*
X318232D01*
X314708Y419977D02*
X317873D01*
X314591Y419623D02*
X317641D01*
X313717Y416788D02*
X317518D01*
X314475Y419269D02*
X317493D01*
X313821Y417143D02*
X317442D01*
X313616Y416434D02*
X317423D01*
X314362Y418914D02*
X317412D01*
X313925Y417497D02*
X317393D01*
X314250Y418560D02*
X317390D01*
X314140Y418206D02*
X317390D01*
X314032Y417851D02*
X317390D01*
X313516Y416080D02*
X315165D01*
X313418Y415725D02*
X314550D01*
X313322Y415371D02*
X314137D01*
X313227Y415017D02*
X313831D01*
X313134Y414662D02*
X313599D01*
X402831Y409597D02*
X411981D01*
X400705Y407472D02*
X411908D01*
X375494Y389755D02*
X411908D01*
X378208Y385857D02*
X411906D01*
X375496Y403574D02*
X411906D01*
X375499Y393653D02*
X411902D01*
X375506Y399676D02*
X411895D01*
X381530Y381960D02*
X411895D01*
X375512Y397550D02*
X411889D01*
X409770Y379834D02*
X411889D01*
X375519Y395779D02*
X411882D01*
X375525Y401448D02*
X411876D01*
X380334Y383731D02*
X411876D01*
X375532Y391881D02*
X411869D01*
X398579Y405346D02*
X411864D01*
X375538Y387629D02*
X411864D01*
X398934Y405700D02*
X411857D01*
X375544Y387983D02*
X411857D01*
X375549Y391527D02*
X411852D01*
X402477Y409243D02*
X411852D01*
X379980Y384086D02*
X411846D01*
X375556Y401802D02*
X411846D01*
X375560Y395424D02*
X411841D01*
X409416Y380188D02*
X411835D01*
X375566Y397905D02*
X411835D01*
X381543Y381605D02*
X411831D01*
X375571Y399322D02*
X411831D01*
X375576Y394007D02*
X411825D01*
X378562Y385503D02*
X411821D01*
X375581Y403220D02*
X411821D01*
X375586Y390109D02*
X411816D01*
X401060Y407826D02*
X411816D01*
X375590Y389401D02*
X411812D01*
X400351Y407117D02*
X411812D01*
X375595Y403928D02*
X411807D01*
X377853Y386212D02*
X411807D01*
X375599Y393298D02*
X411803D01*
X375603Y400031D02*
X411798D01*
X381453Y382314D02*
X411798D01*
X410125Y379479D02*
X411795D01*
X375607Y397196D02*
X411795D01*
X375611Y396133D02*
X411791D01*
X411188Y378416D02*
X411791D01*
X375614Y401094D02*
X411787D01*
X380688Y383377D02*
X411787D01*
X375618Y392235D02*
X411783D01*
X398082Y404991D02*
X411780D01*
X375621Y387275D02*
X411780D01*
X399288Y406054D02*
X411777D01*
X375625Y388338D02*
X411777D01*
X375627Y391172D02*
X411774D01*
X402123Y408889D02*
X411774D01*
X379625Y384440D02*
X411771D01*
X375631Y402157D02*
X411771D01*
X375633Y395070D02*
X411768D01*
X409062Y380542D02*
X411765D01*
X375636Y398259D02*
X411765D01*
X408186Y381251D02*
X411763D01*
X375638Y398968D02*
X411763D01*
X375641Y394361D02*
X411761D01*
X378917Y385149D02*
X411759D01*
X375643Y402865D02*
X411759D01*
X375645Y390464D02*
X411756D01*
X401414Y408180D02*
X411756D01*
X399997Y406763D02*
X411754D01*
X375647Y389046D02*
X411754D01*
X375649Y404283D02*
X411752D01*
X377333Y386566D02*
X411752D01*
X375651Y392944D02*
X411751D01*
X375652Y400385D02*
X411749D01*
X381299Y382668D02*
X411749D01*
X375654Y396842D02*
X411748D01*
X410479Y379125D02*
X411748D01*
X375655Y396487D02*
X411747D01*
X410833Y378771D02*
X411747D01*
X375656Y400739D02*
X411746D01*
X381041Y383023D02*
X411746D01*
X375657Y392590D02*
X411745D01*
X375658Y404637D02*
X411744D01*
X375658Y386920D02*
X411744D01*
X399642Y406409D02*
X411743D01*
X375658Y388692D02*
X411743D01*
X375659Y390818D02*
X411743D01*
X401768Y408535D02*
X411743D01*
X379271Y384794D02*
X411742D01*
X375659Y402511D02*
X411742D01*
X375660Y394716D02*
X411742D01*
X408707Y380897D02*
X411742D01*
X375660Y398613D02*
X411742D01*
X375621Y404991D02*
X387582D01*
X375538Y405346D02*
X387085D01*
X375544Y405700D02*
X386730D01*
X375625Y406054D02*
X386376D01*
X375658Y406409D02*
X386021D01*
X375647Y406763D02*
X385667D01*
X375590Y407117D02*
X385313D01*
X375494Y407472D02*
X384959D01*
X375586Y407826D02*
X384604D01*
X375645Y408180D02*
X384250D01*
X381543Y381251D02*
X384091D01*
X375659Y408535D02*
X383896D01*
X381543Y380897D02*
X383570D01*
X375627Y408889D02*
X383541D01*
X381543Y380542D02*
X383215D01*
X375549Y409243D02*
X383187D01*
X381543Y380188D02*
X382861D01*
X375420Y409597D02*
X382833D01*
X381543Y379834D02*
X382507D01*
X375232Y409952D02*
X382478D01*
X381543Y379479D02*
X382152D01*
X374968Y410306D02*
X382124D01*
X374595Y410660D02*
X381770D01*
X374011Y411015D02*
X381425D01*
X372862Y411369D02*
X381188D01*
X372700Y411723D02*
X380981D01*
X372432Y412078D02*
X377608D01*
X372078Y412432D02*
X377097D01*
X371724Y412786D02*
X376757D01*
X371369Y413141D02*
X376514D01*
X371015Y413495D02*
X376342D01*
X370661Y413849D02*
X376226D01*
X370351Y414204D02*
X376160D01*
X419179Y322144D02*
X435959D01*
X418979Y321789D02*
X435642D01*
X418716Y321435D02*
X435029D01*
X418367Y321081D02*
X434403D01*
X417881Y320726D02*
X433764D01*
X417062Y320372D02*
X433112D01*
X414971Y320018D02*
X432445D01*
X414617Y319663D02*
X431764D01*
X414263Y319309D02*
X431067D01*
X413908Y318955D02*
X430353D01*
X413554Y318600D02*
X429621D01*
X428129Y322498D02*
X428957D01*
X413200Y318246D02*
X428871D01*
X412845Y317892D02*
X428100D01*
X412491Y317537D02*
X427309D01*
X412137Y317183D02*
X426494D01*
X411782Y316829D02*
X425654D01*
X411428Y316474D02*
X424788D01*
X411074Y316120D02*
X423893D01*
X410677Y315766D02*
X422966D01*
X394949Y315411D02*
X422005D01*
X394631Y315057D02*
X421005D01*
X419327Y322498D02*
X420358D01*
X394258Y314703D02*
X419962D01*
X419433Y322852D02*
X419824D01*
X393727Y314348D02*
X418871D01*
X392700Y313994D02*
X417726D01*
X370885Y313640D02*
X416517D01*
X372167Y313285D02*
X415235D01*
X373536Y312931D02*
X413865D01*
X375013Y312577D02*
X412389D01*
X376624Y312222D02*
X410778D01*
X378412Y311868D02*
X408990D01*
X380448Y311514D02*
X406954D01*
X382872Y311159D02*
X404530D01*
X386042Y310805D02*
X401359D01*
X362472Y329939D02*
X392882D01*
X386654Y324978D02*
X392878D01*
X387543Y334899D02*
X392878D01*
X387897Y335254D02*
X392715D01*
X386934Y324624D02*
X392712D01*
X361920Y330293D02*
X392691D01*
X362797Y329585D02*
X392688D01*
X386310Y325333D02*
X392667D01*
X387188Y334545D02*
X392665D01*
X387166Y324270D02*
X392517D01*
X371128Y330648D02*
X392500D01*
X363008Y329230D02*
X392498D01*
X385882Y325687D02*
X392482D01*
X386834Y334191D02*
X392480D01*
X387355Y323915D02*
X392364D01*
X371882Y331002D02*
X392351D01*
X363140Y328876D02*
X392349D01*
X385319Y326041D02*
X392337D01*
X386480Y333837D02*
X392335D01*
X387764Y321081D02*
X392323D01*
X387692Y320726D02*
X392277D01*
X387509Y323561D02*
X392248D01*
X372348Y331356D02*
X392238D01*
X363208Y328522D02*
X392237D01*
X384471Y326396D02*
X392228D01*
X386125Y333482D02*
X392227D01*
X387809Y321435D02*
X392218D01*
X387629Y323207D02*
X392165D01*
X372686Y331711D02*
X392159D01*
X363220Y328167D02*
X392158D01*
X363220Y326750D02*
X392152D01*
X385771Y333128D02*
X392151D01*
X387826Y321789D02*
X392146D01*
X387720Y322852D02*
X392115D01*
X384437Y332065D02*
X392111D01*
X363220Y327813D02*
X392111D01*
X363220Y327104D02*
X392108D01*
X385417Y332774D02*
X392108D01*
X387818Y322144D02*
X392105D01*
X387783Y322498D02*
X392095D01*
X385055Y332419D02*
X392095D01*
X363220Y327459D02*
X392095D01*
X369676Y313994D02*
X391552D01*
X387591Y320372D02*
X390672D01*
X368530Y314348D02*
X390525D01*
X387459Y320018D02*
X390089D01*
X367439Y314703D02*
X389994D01*
X387294Y319663D02*
X389690D01*
X366397Y315057D02*
X389621D01*
X387091Y319309D02*
X389394D01*
X365397Y315411D02*
X389341D01*
X386844Y318955D02*
X389168D01*
X364435Y315766D02*
X389128D01*
X386543Y318600D02*
X388999D01*
X363508Y316120D02*
X388969D01*
X386174Y318246D02*
X388877D01*
X362613Y316474D02*
X388856D01*
X385707Y317892D02*
X388796D01*
X361747Y316829D02*
X388784D01*
X385075Y317537D02*
X388755D01*
X383984Y317183D02*
X388751D01*
X360157Y343403D02*
X379573D01*
X360908Y317183D02*
X379402D01*
X372350Y343049D02*
X379343D01*
X372814Y342695D02*
X378989D01*
X363220Y326396D02*
X378915D01*
X360511Y343758D02*
X378692D01*
X373101Y342340D02*
X378634D01*
X360093Y317537D02*
X378311D01*
X373288Y341986D02*
X378280D01*
X363220Y326041D02*
X378066D01*
X371722Y344112D02*
X377933D01*
X373401Y341632D02*
X377926D01*
X359301Y317892D02*
X377679D01*
X373453Y341277D02*
X377571D01*
X363220Y325687D02*
X377504D01*
X372529Y344466D02*
X377405D01*
X370409Y361120D02*
X377335D01*
X370393Y361474D02*
X377246D01*
X358531Y318246D02*
X377212D01*
X363220Y325333D02*
X377076D01*
X372920Y344821D02*
X376997D01*
X370393Y361829D02*
X376891D01*
X357780Y318600D02*
X376843D01*
X363220Y324978D02*
X376732D01*
X373170Y345175D02*
X376669D01*
X373304Y351199D02*
X376601D01*
X357049Y318955D02*
X376542D01*
X375179Y362183D02*
X376537D01*
X363220Y324624D02*
X376451D01*
X373332Y345529D02*
X376399D01*
X373410Y350844D02*
X376343D01*
X356335Y319309D02*
X376295D01*
X363220Y324270D02*
X376220D01*
X375880Y362537D02*
X376183D01*
X373424Y345884D02*
X376177D01*
X373455Y350490D02*
X376131D01*
X355638Y319663D02*
X376092D01*
X363220Y323915D02*
X376031D01*
X373457Y346238D02*
X375996D01*
X373457Y350136D02*
X375958D01*
X354956Y320018D02*
X375926D01*
X363220Y323561D02*
X375877D01*
X373457Y346592D02*
X375849D01*
X373457Y349781D02*
X375820D01*
X354290Y320372D02*
X375795D01*
X363219Y323207D02*
X375756D01*
X373457Y346947D02*
X375735D01*
X373457Y349427D02*
X375713D01*
X353638Y320726D02*
X375694D01*
X363177Y322852D02*
X375666D01*
X373457Y347301D02*
X375650D01*
X373457Y349073D02*
X375635D01*
X353680Y321081D02*
X375622D01*
X363074Y322498D02*
X375603D01*
X373457Y347655D02*
X375594D01*
X373457Y348718D02*
X375584D01*
X362205Y321435D02*
X375577D01*
X362899Y322144D02*
X375568D01*
X373457Y348010D02*
X375564D01*
X373457Y348364D02*
X375561D01*
X362630Y321789D02*
X375559D01*
X373126Y351553D02*
X374990D01*
X371169Y360766D02*
X374107D01*
X372852Y351907D02*
X373986D01*
X371633Y360411D02*
X373643D01*
X372416Y352262D02*
X373572D01*
X371920Y360057D02*
X373356D01*
X371988Y352616D02*
X373309D01*
X372107Y359703D02*
X373169D01*
X372136Y352970D02*
X373139D01*
X372220Y359348D02*
X373055D01*
X372236Y353325D02*
X373040D01*
X372271Y358994D02*
X373004D01*
X372275Y353679D02*
X373001D01*
X372276Y358640D02*
X373000D01*
X372276Y358285D02*
X373000D01*
X372276Y357931D02*
X373000D01*
X372276Y357577D02*
X373000D01*
X372276Y357222D02*
X373000D01*
X372276Y356868D02*
X373000D01*
X372276Y356514D02*
X373000D01*
X372276Y356159D02*
X373000D01*
X372276Y355805D02*
X373000D01*
X372276Y355451D02*
X373000D01*
X372276Y355096D02*
X373000D01*
X372276Y354742D02*
X373000D01*
X372276Y354388D02*
X373000D01*
X372276Y354033D02*
X373000D01*
X370393Y362183D02*
X372853D01*
X370393Y362537D02*
X372152D01*
X370393Y362892D02*
X371704D01*
X370394Y363246D02*
X371377D01*
X370603Y363600D02*
X371129D01*
X339355Y330648D02*
X369029D01*
X339413Y331002D02*
X368276D01*
X339552Y331356D02*
X367809D01*
X339661Y331711D02*
X367471D01*
X339744Y332065D02*
X367216D01*
X339802Y332419D02*
X367023D01*
X339834Y332774D02*
X366880D01*
X339842Y333128D02*
X366781D01*
X339629Y334545D02*
X366771D01*
X339826Y333482D02*
X366722D01*
X339720Y334191D02*
X366717D01*
X339786Y333837D02*
X366701D01*
X360865Y344112D02*
X365680D01*
X339510Y334899D02*
X365524D01*
X359802Y343049D02*
X365052D01*
X361220Y344466D02*
X364873D01*
X339362Y335254D02*
X364819D01*
X359448Y342695D02*
X364588D01*
X361574Y344821D02*
X364482D01*
X339181Y335608D02*
X364448D01*
X359094Y342340D02*
X364301D01*
X361928Y345175D02*
X364231D01*
X338964Y335962D02*
X364210D01*
X358739Y341986D02*
X364114D01*
X362283Y345529D02*
X364070D01*
X338704Y336317D02*
X364056D01*
X358385Y341632D02*
X364000D01*
X338395Y336671D02*
X363971D01*
X358031Y341277D02*
X363949D01*
X362637Y345884D02*
X363947D01*
X357676Y340923D02*
X363945D01*
X357322Y340569D02*
X363945D01*
X356968Y340214D02*
X363945D01*
X356613Y339860D02*
X363945D01*
X356259Y339506D02*
X363945D01*
X355905Y339151D02*
X363945D01*
X355550Y338797D02*
X363945D01*
X355196Y338443D02*
X363945D01*
X354842Y338088D02*
X363945D01*
X354487Y337734D02*
X363945D01*
X354063Y337380D02*
X363945D01*
X353171Y337025D02*
X363945D01*
X356920Y330293D02*
X357135D01*
X339758D02*
X352135D01*
X340177Y329939D02*
X351583D01*
X340602Y329585D02*
X351258D01*
X341033Y329230D02*
X351047D01*
X341470Y328876D02*
X350915D01*
X349988Y322852D02*
X350878D01*
X350567Y322498D02*
X350876D01*
X341912Y328522D02*
X350847D01*
X349418Y323207D02*
X350836D01*
X342362Y328167D02*
X350835D01*
X342817Y327813D02*
X350835D01*
X343279Y327459D02*
X350835D01*
X343748Y327104D02*
X350835D01*
X344224Y326750D02*
X350835D01*
X344707Y326396D02*
X350835D01*
X345198Y326041D02*
X350835D01*
X345696Y325687D02*
X350835D01*
X346202Y325333D02*
X350835D01*
X346716Y324978D02*
X350835D01*
X347238Y324624D02*
X350835D01*
X347770Y324270D02*
X350835D01*
X348310Y323915D02*
X350835D01*
X348859Y323561D02*
X350835D01*
X478346Y393701D02*
G03X478346I-84645J0D01*
G54D39*
G01X423898Y440866D02*
Y443063D01*
X433819Y355087D02*
Y357283D01*
X368386Y454331D02*
X366189D01*
X357992D02*
X360189D01*
X442118Y456496D02*
X439921D01*
X437953Y460661D02*
Y458465D01*
Y452331D02*
Y454528D01*
X345857Y363386D02*
X343660D01*
X340512Y368731D02*
Y366534D01*
Y358041D02*
Y360237D01*
X381693Y317094D02*
Y319291D01*
X387827Y321850D02*
X385630D01*
X381693Y326606D02*
Y324409D01*
X375559Y321850D02*
X377756D01*
X392094Y332441D02*
X394291D01*
X333661Y416587D02*
Y414390D01*
X427126Y351803D02*
Y349606D01*
G74*
X0Y0D02*
M02*
