*
*
G04 PADS 9.3 Build Number: 433611 generated Gerber (RS-274-X) file*
G04 PC Version=2.1*
*
%IN "LDC_Layout_20161209.pcb"*%
*
%MOIN*%
*
%FSLAX35Y35*%
*
*
*
*
G04 PC Standard Apertures*
*
*
G04 Thermal Relief Aperture macro.*
%AMTER*
1,1,$1,0,0*
1,0,$1-$2,0,0*
21,0,$3,$4,0,0,45*
21,0,$3,$4,0,0,135*
%
*
*
G04 Annular Aperture macro.*
%AMANN*
1,1,$1,0,0*
1,0,$2,0,0*
%
*
*
G04 Odd Aperture macro.*
%AMODD*
1,1,$1,0,0*
1,0,$1-0.005,0,0*
%
*
*
G04 PC Custom Aperture Macros*
*
*
*
*
*
*
G04 PC Aperture Table*
*
%ADD010C,0.001*%
%ADD035C,0.01*%
%ADD041C,0.00394*%
*
*
*
*
G04 PC Circuitry*
G04 Layer Name LDC_Layout_20161209.pcb - circuitry*
%LPD*%
*
*
G04 PC Custom Flashes*
G04 Layer Name LDC_Layout_20161209.pcb - flashes*
%LPD*%
*
*
G04 PC Circuitry*
G04 Layer Name LDC_Layout_20161209.pcb - circuitry*
%LPD*%
*
G54D10*
G54D35*
G01X346787Y450134D02*
X354787D01*
X346787Y458134*
X354787*
X346787Y450134*
X349543D02*
X357543D01*
X349543Y458134*
X357543*
X349543Y450134*
X350787Y455512D02*
G75*
G03Y452756I0J-1378D01*
G01X353543*
G03Y455512I0J1378*
G01X350787*
X346787Y423756D02*
X354787D01*
X346787Y431756*
X354787*
X346787Y423756*
X349543D02*
X357543D01*
X349543Y431756*
X357543*
X349543Y423756*
X350787Y429134D02*
G03Y426378I0J-1378D01*
G01X353543*
G03Y429134I0J1378*
G01X350787*
X411059Y411319D02*
X419059D01*
X415059Y407319D02*
Y415319D01*
X374150Y343244D02*
X382150D01*
Y351244*
X374150*
Y343244*
X378150Y347244D02*
Y351244D01*
X330646Y329071D02*
X338646D01*
Y337071*
X330646*
Y329071*
X334646Y333071D02*
Y337071D01*
X448756Y450331D02*
X456756D01*
Y458331*
X448756*
Y450331*
X452756Y454331D02*
Y458331D01*
X448756Y329071D02*
X456756D01*
Y337071*
X448756*
Y329071*
X452756Y333071D02*
Y337071D01*
X330646Y450331D02*
X338646D01*
Y458331*
X330646*
Y450331*
X334646Y454331D02*
Y458331D01*
X326181Y356236D02*
X330181Y360236D01*
X326181Y364236*
X322181Y360236*
X326181Y356236*
Y360236D02*
Y364236D01*
Y361236D02*
X330181Y365236D01*
X326181Y369236*
X322181Y365236*
X326181Y361236*
Y365236D02*
Y369236D01*
Y366236D02*
X330181Y370236D01*
X326181Y374236*
X322181Y370236*
X326181Y366236*
Y370236D02*
Y374236D01*
Y371236D02*
X330181Y375236D01*
X326181Y379236*
X322181Y375236*
X326181Y371236*
Y375236D02*
Y379236D01*
X336417Y424150D02*
X340417Y428150D01*
X336417Y432150*
X332417Y428150*
X336417Y424150*
Y428150D02*
Y432150D01*
X331417Y424150D02*
X335417Y428150D01*
X331417Y432150*
X327417Y428150*
X331417Y424150*
Y428150D02*
Y432150D01*
X336417Y429150D02*
X340417Y433150D01*
X336417Y437150*
X332417Y433150*
X336417Y429150*
Y433150D02*
Y437150D01*
X331417Y429150D02*
X335417Y433150D01*
X331417Y437150*
X327417Y433150*
X331417Y429150*
Y433150D02*
Y437150D01*
X336417Y434150D02*
X340417Y438150D01*
X336417Y442150*
X332417Y438150*
X336417Y434150*
Y438150D02*
Y442150D01*
X331417Y434150D02*
X335417Y438150D01*
X331417Y442150*
X327417Y438150*
X331417Y434150*
Y438150D02*
Y442150D01*
X455512Y386551D02*
X459512Y390551D01*
X455512Y394551*
X451512Y390551*
X455512Y386551*
Y390551D02*
Y394551D01*
Y381551D02*
X459512Y385551D01*
X455512Y389551*
X451512Y385551*
X455512Y381551*
Y385551D02*
Y389551D01*
Y376551D02*
X459512Y380551D01*
X455512Y384551*
X451512Y380551*
X455512Y376551*
Y380551D02*
Y384551D01*
Y371551D02*
X459512Y375551D01*
X455512Y379551*
X451512Y375551*
X455512Y371551*
Y375551D02*
Y379551D01*
Y366551D02*
X459512Y370551D01*
X455512Y374551*
X451512Y370551*
X455512Y366551*
Y370551D02*
Y374551D01*
Y361551D02*
X459512Y365551D01*
X455512Y369551*
X451512Y365551*
X455512Y361551*
Y365551D02*
Y369551D01*
X460512Y361551D02*
X464512Y365551D01*
X460512Y369551*
X456512Y365551*
X460512Y361551*
Y365551D02*
Y369551D01*
Y366551D02*
X464512Y370551D01*
X460512Y374551*
X456512Y370551*
X460512Y366551*
Y370551D02*
Y374551D01*
Y371551D02*
X464512Y375551D01*
X460512Y379551*
X456512Y375551*
X460512Y371551*
Y375551D02*
Y379551D01*
Y376551D02*
X464512Y380551D01*
X460512Y384551*
X456512Y380551*
X460512Y376551*
Y380551D02*
Y384551D01*
Y381551D02*
X464512Y385551D01*
X460512Y389551*
X456512Y385551*
X460512Y381551*
Y385551D02*
Y389551D01*
Y386551D02*
X464512Y390551D01*
X460512Y394551*
X456512Y390551*
X460512Y386551*
Y390551D02*
Y394551D01*
X385370Y468701D02*
X393370D01*
X389370Y464701D02*
Y472701D01*
X375370Y468701D02*
X383370D01*
X379370Y464701D02*
Y472701D01*
X367654Y319488D02*
X375654D01*
X371654Y315488D02*
Y323488D01*
X377654Y319488D02*
X385654D01*
X381654Y315488D02*
Y323488D01*
X391669Y319291D02*
X399669D01*
X395669Y315291D02*
Y323291D01*
X401669Y319291D02*
X409669D01*
X405669Y315291D02*
Y323291D01*
X423362Y317260D02*
X431362Y325260D01*
X423362D02*
X431362Y317260D01*
X338520Y334780D02*
X346520Y342780D01*
X338520D02*
X346520Y334780D01*
X351118Y334976D02*
X359118Y342976D01*
X351118D02*
X359118Y334976D01*
X387339Y338126D02*
X395339Y346126D01*
X387339D02*
X395339Y338126D01*
X408598Y337732D02*
X416598Y345732D01*
X408598D02*
X416598Y337732D01*
X334583Y351315D02*
X342583Y359315D01*
X334583D02*
X342583Y351315D01*
X365685Y350724D02*
X373685Y358724D01*
X365685D02*
X373685Y350724D01*
X382417Y348756D02*
X390417Y356756D01*
X382417D02*
X390417Y348756D01*
X387732Y347181D02*
X395732Y355181D01*
X387732D02*
X395732Y347181D01*
X408795D02*
X416795Y355181D01*
X408795D02*
X416795Y347181D01*
X425921Y343441D02*
X433921Y351441D01*
X425921D02*
X433921Y343441D01*
X436354D02*
X444354Y351441D01*
X436354D02*
X444354Y343441D01*
X432811Y343638D02*
X440811Y351638D01*
X432811D02*
X440811Y343638D01*
X429465D02*
X437465Y351638D01*
X429465D02*
X437465Y343638D01*
X451512D02*
X459512Y351638D01*
X451512D02*
X459512Y343638D01*
X448756Y346197D02*
X456756Y354197D01*
X448756D02*
X456756Y346197D01*
X456433Y347575D02*
X464433Y355575D01*
X456433D02*
X464433Y347575D01*
X459189Y351118D02*
X467189Y359118D01*
X459189D02*
X467189Y351118D01*
X334055Y360961D02*
X338055Y364961D01*
X334055Y368961*
X330055Y364961*
X334055Y360961*
Y364961D02*
Y368961D01*
X339504Y361945D02*
X347504Y369945D01*
X339504D02*
X347504Y361945D01*
X349740Y360764D02*
X357740Y368764D01*
X349740D02*
X357740Y360764D01*
X366142Y357220D02*
X370142Y361220D01*
X366142Y365220*
X362142Y361220*
X366142Y357220*
Y361220D02*
Y365220D01*
X371394Y355252D02*
X379394Y363252D01*
X371394D02*
X379394Y355252D01*
X374543Y356039D02*
X382543Y364039D01*
X374543D02*
X382543Y356039D01*
X379858Y360764D02*
X387858Y368764D01*
X379858D02*
X387858Y360764D01*
X389701Y356630D02*
X397701Y364630D01*
X389701D02*
X397701Y356630D01*
X394094Y352299D02*
X398094Y356299D01*
X394094Y360299*
X390094Y356299*
X394094Y352299*
Y356299D02*
Y360299D01*
X415157Y361354D02*
X419157Y365354D01*
X415157Y369354*
X411157Y365354*
X415157Y361354*
Y365354D02*
Y369354D01*
X428677Y357024D02*
X436677Y365024D01*
X428677D02*
X436677Y357024D01*
X432220Y357614D02*
X440220Y365614D01*
X432220D02*
X440220Y357614D01*
X441472Y357811D02*
X449472Y365811D01*
X441472D02*
X449472Y357811D01*
X467126Y356433D02*
X471126Y360433D01*
X467126Y364433*
X463126Y360433*
X467126Y356433*
Y360433D02*
Y364433D01*
X332024Y365291D02*
X340024Y373291D01*
X332024D02*
X340024Y365291D01*
X341866Y365882D02*
X349866Y373882D01*
X341866D02*
X349866Y365882D01*
X371591Y372181D02*
X379591Y380181D01*
X371591D02*
X379591Y372181D01*
X368441Y371591D02*
X376441Y379591D01*
X368441D02*
X376441Y371591D01*
X386748Y366472D02*
X394748Y374472D01*
X386748D02*
X394748Y366472D01*
X383008Y362929D02*
X391008Y370929D01*
X383008D02*
X391008Y362929D01*
X387339Y369622D02*
X395339Y377622D01*
X387339D02*
X395339Y369622D01*
X383008Y366669D02*
X391008Y374669D01*
X383008D02*
X391008Y366669D01*
X401118Y368244D02*
X409118Y376244D01*
X401118D02*
X409118Y368244D01*
X427890Y366866D02*
X435890Y374866D01*
X427890D02*
X435890Y366866D01*
X428480Y370213D02*
X436480Y378213D01*
X428480D02*
X436480Y370213D01*
X346394Y377890D02*
X354394Y385890D01*
X346394D02*
X354394Y377890D01*
X352890Y375528D02*
X360890Y383528D01*
X352890D02*
X360890Y375528D01*
X359189Y372575D02*
X367189Y380575D01*
X359189D02*
X367189Y372575D01*
X399213Y380449D02*
X403213Y384449D01*
X399213Y388449*
X395213Y384449*
X399213Y380449*
Y384449D02*
Y388449D01*
X423165Y376512D02*
X431165Y384512D01*
X423165D02*
X431165Y376512D01*
X432811Y378087D02*
X440811Y386087D01*
X432811D02*
X440811Y378087D01*
X446787Y372772D02*
X454787Y380772D01*
X446787D02*
X454787Y372772D01*
X309583Y384189D02*
X317583Y392189D01*
X309583D02*
X317583Y384189D01*
X351906Y388913D02*
X359906Y396913D01*
X351906D02*
X359906Y388913D01*
X358598Y387535D02*
X366598Y395535D01*
X358598D02*
X366598Y387535D01*
X371591Y382811D02*
X379591Y390811D01*
X371591D02*
X379591Y382811D01*
X380512Y386157D02*
X384512Y390157D01*
X380512Y394157*
X376512Y390157*
X380512Y386157*
Y390157D02*
Y394157D01*
X427299Y386354D02*
X435299Y394354D01*
X427299D02*
X435299Y386354D01*
X456236Y391669D02*
X464236Y399669D01*
X456236D02*
X464236Y391669D01*
X462535D02*
X470535Y399669D01*
X462535D02*
X470535Y391669D01*
X333598Y399346D02*
X341598Y407346D01*
X333598D02*
X341598Y399346D01*
X333598Y395606D02*
X341598Y403606D01*
X333598D02*
X341598Y395606D01*
X352102Y399346D02*
X360102Y407346D01*
X352102D02*
X360102Y399346D01*
X362339Y399150D02*
X370339Y407150D01*
X362339D02*
X370339Y399150D01*
X371984Y398953D02*
X379984Y406953D01*
X371984D02*
X379984Y398953D01*
X394425Y398362D02*
X402425Y406362D01*
X394425D02*
X402425Y398362D01*
X416276Y393047D02*
X424276Y401047D01*
X416276D02*
X424276Y393047D01*
X427693Y400724D02*
X435693Y408724D01*
X427693D02*
X435693Y400724D01*
X427890Y396591D02*
X435890Y404591D01*
X427890D02*
X435890Y396591D01*
X451709Y399150D02*
X459709Y407150D01*
X451709D02*
X459709Y399150D01*
X448953Y401315D02*
X456953Y409315D01*
X448953D02*
X456953Y401315D01*
X324346Y408795D02*
X332346Y416795D01*
X324346D02*
X332346Y408795D01*
X333402Y403283D02*
X341402Y411283D01*
X333402D02*
X341402Y403283D01*
X339307Y408598D02*
X347307Y416598D01*
X339307D02*
X347307Y408598D01*
X385370Y410173D02*
X393370Y418173D01*
X385370D02*
X393370Y410173D01*
X394425Y404858D02*
X402425Y412858D01*
X394425D02*
X402425Y404858D01*
X388323Y408205D02*
X396323Y416205D01*
X388323D02*
X396323Y408205D01*
X394031Y408402D02*
X402031Y416402D01*
X394031D02*
X402031Y408402D01*
X427496Y404071D02*
X435496Y412071D01*
X427496D02*
X435496Y404071D01*
X432283Y410567D02*
X436283Y414567D01*
X432283Y418567*
X428283Y414567*
X432283Y410567*
Y414567D02*
Y418567D01*
X449409Y408795D02*
X453409Y412795D01*
X449409Y416795*
X445409Y412795*
X449409Y408795*
Y412795D02*
Y416795D01*
X461614Y407811D02*
X465614Y411811D01*
X461614Y415811*
X457614Y411811*
X461614Y407811*
Y411811D02*
Y415811D01*
X316079Y419228D02*
X324079Y427228D01*
X316079D02*
X324079Y419228D01*
X317654Y416276D02*
X325654Y424276D01*
X317654D02*
X325654Y416276D01*
X320803Y413126D02*
X328803Y421126D01*
X320803D02*
X328803Y413126D01*
X346260Y418441D02*
X350260Y422441D01*
X346260Y426441*
X342260Y422441*
X346260Y418441*
Y422441D02*
Y426441D01*
X368898Y419425D02*
X372898Y423425D01*
X368898Y427425*
X364898Y423425*
X368898Y419425*
Y423425D02*
Y427425D01*
X374937Y417850D02*
X382937Y425850D01*
X374937D02*
X382937Y417850D01*
X368638D02*
X376638Y425850D01*
X368638D02*
X376638Y417850D01*
X394031Y413913D02*
X402031Y421913D01*
X394031D02*
X402031Y413913D01*
X390882Y420213D02*
X398882Y428213D01*
X390882D02*
X398882Y420213D01*
X393638Y417654D02*
X401638Y425654D01*
X393638D02*
X401638Y417654D01*
X440354Y417850D02*
X444354Y421850D01*
X440354Y425850*
X436354Y421850*
X440354Y417850*
Y421850D02*
Y425850D01*
X429071Y418638D02*
X437071Y426638D01*
X429071D02*
X437071Y418638D01*
X428874Y415094D02*
X436874Y423094D01*
X428874D02*
X436874Y415094D01*
X456039Y419425D02*
X464039Y427425D01*
X456039D02*
X464039Y419425D01*
X380709Y428874D02*
X384709Y432874D01*
X380709Y436874*
X376709Y432874*
X380709Y428874*
Y432874D02*
Y436874D01*
X371787Y422378D02*
X379787Y430378D01*
X371787D02*
X379787Y422378D01*
X379858Y425528D02*
X387858Y433528D01*
X379858D02*
X387858Y425528D01*
X392850Y422969D02*
X400850Y430969D01*
X392850D02*
X400850Y422969D01*
X398559Y427299D02*
X406559Y435299D01*
X398559D02*
X406559Y427299D01*
X416472Y422969D02*
X424472Y430969D01*
X416472D02*
X424472Y422969D01*
X411748Y424150D02*
X419748Y432150D01*
X411748D02*
X419748Y424150D01*
X418638Y427102D02*
X426638Y435102D01*
X418638D02*
X426638Y427102D01*
X463386Y423165D02*
X467386Y427165D01*
X463386Y431165*
X459386Y427165*
X463386Y423165*
Y427165D02*
Y431165D01*
X458795Y431039D02*
X466795Y439039D01*
X458795D02*
X466795Y431039D01*
X357024Y434189D02*
X365024Y442189D01*
X357024D02*
X365024Y434189D01*
X401709Y433205D02*
X409709Y441205D01*
X401709D02*
X409709Y433205D01*
X432220Y436354D02*
X440220Y444354D01*
X432220D02*
X440220Y436354D01*
X395472Y446394D02*
X399472Y450394D01*
X395472Y454394*
X391472Y450394*
X395472Y446394*
Y450394D02*
Y454394D01*
X440354Y448953D02*
X444354Y452953D01*
X440354Y456953*
X436354Y452953*
X440354Y448953*
Y452953D02*
Y456953D01*
X511811Y458961D02*
X769811D01*
X511811Y434961D02*
X769811D01*
X511811Y410961D02*
X769811D01*
X511811Y386961D02*
X769811D01*
X511811Y362961D02*
X769811D01*
X511811Y338961D02*
X769811D01*
X511811Y314961D02*
X769811D01*
X511811Y458961D02*
Y314961D01*
X595811Y458961D02*
Y314961D01*
X631811Y458961D02*
Y314961D01*
X667811Y458961D02*
Y314961D01*
X721811Y458961D02*
Y314961D01*
X769811Y458961D02*
Y314961D01*
X547311Y447711D02*
X546766Y448461D01*
X545947Y448836*
X544856*
X544038Y448461*
X543493Y447711*
Y446961*
X543766Y446211*
X544038Y445836*
X544584Y445461*
X546220Y444711*
X546766Y444336*
X547038Y443961*
X547311Y443211*
Y442086*
X546766Y441336*
X545947Y440961*
X544856*
X544038Y441336*
X543493Y442086*
X549766Y448836D02*
Y440961D01*
X556038Y448836D02*
X552220Y440961D01*
Y448836D02*
X556038D01*
X552220Y440961D02*
X556038D01*
X558493Y448836D02*
Y440961D01*
Y448836D02*
X562038D01*
X558493Y445086D02*
X560675D01*
X558493Y440961D02*
X562038D01*
X605675Y448836D02*
X605129Y448461D01*
X604584Y447711*
X604311Y446961*
X604038Y445836*
Y443961*
X604311Y442836*
X604584Y442086*
X605129Y441336*
X605675Y440961*
X606766*
X607311Y441336*
X607856Y442086*
X608129Y442836*
X608402Y443961*
Y445836*
X608129Y446961*
X607856Y447711*
X607311Y448461*
X606766Y448836*
X605675*
X606493Y442461D02*
X608129Y440211D01*
X612766Y448836D02*
Y440961D01*
X610856Y448836D02*
X614675D01*
X617129D02*
X619311Y445086D01*
Y440961*
X621493Y448836D02*
X619311Y445086D01*
X643856Y447711D02*
X643311Y448461D01*
X642493Y448836*
X641402*
X640584Y448461*
X640038Y447711*
Y446961*
X640311Y446211*
X640584Y445836*
X641129Y445461*
X642766Y444711*
X643311Y444336*
X643584Y443961*
X643856Y443211*
Y442086*
X643311Y441336*
X642493Y440961*
X641402*
X640584Y441336*
X640038Y442086*
X646311Y448836D02*
X648493Y445086D01*
Y440961*
X650675Y448836D02*
X648493Y445086D01*
X653129Y448836D02*
Y440961D01*
Y448836D02*
X655311Y440961D01*
X657493Y448836D02*
X655311Y440961D01*
X657493Y448836D02*
Y440961D01*
X679311Y448836D02*
Y440961D01*
Y448836D02*
X681766D01*
X682584Y448461*
X682856Y448086*
X683129Y447336*
Y446211*
X682856Y445461*
X682584Y445086*
X681766Y444711*
X679311*
X685584Y448836D02*
Y440961D01*
X688856*
X693493Y448836D02*
X691311Y440961D01*
X693493Y448836D02*
X695675Y440961D01*
X692129Y443586D02*
X694856D01*
X700038Y448836D02*
Y440961D01*
X698129Y448836D02*
X701947D01*
X704402D02*
Y440961D01*
Y448836D02*
X707947D01*
X704402Y445086D02*
X706584D01*
X704402Y440961D02*
X707947D01*
X710402Y448836D02*
Y440961D01*
Y448836D02*
X712311D01*
X713129Y448461*
X713675Y447711*
X713947Y446961*
X714220Y445836*
Y443961*
X713947Y442836*
X713675Y442086*
X713129Y441336*
X712311Y440961*
X710402*
X738493Y448836D02*
Y440961D01*
X736584Y448836D02*
X740402D01*
X744493D02*
X743947Y448461D01*
X743402Y447711*
X743129Y446961*
X742856Y445836*
Y443961*
X743129Y442836*
X743402Y442086*
X743947Y441336*
X744493Y440961*
X745584*
X746129Y441336*
X746675Y442086*
X746947Y442836*
X747220Y443961*
Y445836*
X746947Y446961*
X746675Y447711*
X746129Y448461*
X745584Y448836*
X744493*
X749675D02*
Y440961D01*
X752947*
X517811Y423336D02*
X518356Y423711D01*
X519175Y424836*
Y416961*
X614675Y424836D02*
X611947Y416961D01*
X610856Y424836D02*
X614675D01*
X643811Y422961D02*
X655811D01*
X649811Y416961D02*
Y428961D01*
X676447Y424836D02*
X678629Y421086D01*
Y416961*
X680811Y424836D02*
X678629Y421086D01*
X683266Y424836D02*
Y416961D01*
Y424836D02*
X686811D01*
X683266Y421086D02*
X685447D01*
X683266Y416961D02*
X686811D01*
X693084Y423711D02*
X692538Y424461D01*
X691720Y424836*
X690629*
X689811Y424461*
X689266Y423711*
Y422961*
X689538Y422211*
X689811Y421836*
X690356Y421461*
X691993Y420711*
X692538Y420336*
X692811Y419961*
X693084Y419211*
Y418086*
X692538Y417336*
X691720Y416961*
X690629*
X689811Y417336*
X689266Y418086*
X729629Y423711D02*
Y416961D01*
X727175Y420336D02*
X732084D01*
X739447Y426336D02*
X734538Y414336D01*
X741902Y420336D02*
X746811D01*
X750902Y424836D02*
X750084Y424461D01*
X749538Y423336*
X749266Y421461*
Y420336*
X749538Y418461*
X750084Y417336*
X750902Y416961*
X751447*
X752266Y417336*
X752811Y418461*
X753084Y420336*
Y421461*
X752811Y423336*
X752266Y424461*
X751447Y424836*
X750902*
X755811Y417711D02*
X755538Y417336D01*
X755811Y416961*
X756084Y417336*
X755811Y417711*
X760175Y424836D02*
X759356Y424461D01*
X758811Y423336*
X758538Y421461*
Y420336*
X758811Y418461*
X759356Y417336*
X760175Y416961*
X760720*
X761538Y417336*
X762084Y418461*
X762356Y420336*
Y421461*
X762084Y423336*
X761538Y424461*
X760720Y424836*
X760175*
X519447Y400836D02*
X518629Y400461D01*
X518084Y399336*
X517811Y397461*
Y396336*
X518084Y394461*
X518629Y393336*
X519447Y392961*
X519993*
X520811Y393336*
X521356Y394461*
X521629Y396336*
Y397461*
X521356Y399336*
X520811Y400461*
X519993Y400836*
X519447*
X524356Y393711D02*
X524084Y393336D01*
X524356Y392961*
X524629Y393336*
X524356Y393711*
X529811Y400836D02*
X527084Y395586D01*
X531175*
X529811Y400836D02*
Y392961D01*
X611402Y398211D02*
X611129Y397086D01*
X610584Y396336*
X609766Y395961*
X609493*
X608675Y396336*
X608129Y397086*
X607856Y398211*
Y398586*
X608129Y399711*
X608675Y400461*
X609493Y400836*
X609766*
X610584Y400461*
X611129Y399711*
X611402Y398211*
Y396336*
X611129Y394461*
X610584Y393336*
X609766Y392961*
X609220*
X608402Y393336*
X608129Y394086*
X614129Y398961D02*
Y399336D01*
X614402Y400086*
X614675Y400461*
X615220Y400836*
X616311*
X616856Y400461*
X617129Y400086*
X617402Y399336*
Y398586*
X617129Y397836*
X616584Y396711*
X613856Y392961*
X617675*
X643811D02*
X655811Y404961D01*
X643811D02*
X655811Y392961D01*
X676447Y400836D02*
X678629Y397086D01*
Y392961*
X680811Y400836D02*
X678629Y397086D01*
X683266Y400836D02*
Y392961D01*
Y400836D02*
X686811D01*
X683266Y397086D02*
X685447D01*
X683266Y392961D02*
X686811D01*
X693084Y399711D02*
X692538Y400461D01*
X691720Y400836*
X690629*
X689811Y400461*
X689266Y399711*
Y398961*
X689538Y398211*
X689811Y397836*
X690356Y397461*
X691993Y396711*
X692538Y396336*
X692811Y395961*
X693084Y395211*
Y394086*
X692538Y393336*
X691720Y392961*
X690629*
X689811Y393336*
X689266Y394086*
X729629Y399711D02*
Y392961D01*
X727175Y396336D02*
X732084D01*
X739447Y402336D02*
X734538Y390336D01*
X741902Y396336D02*
X746811D01*
X750902Y400836D02*
X750084Y400461D01*
X749538Y399336*
X749266Y397461*
Y396336*
X749538Y394461*
X750084Y393336*
X750902Y392961*
X751447*
X752266Y393336*
X752811Y394461*
X753084Y396336*
Y397461*
X752811Y399336*
X752266Y400461*
X751447Y400836*
X750902*
X755811Y393711D02*
X755538Y393336D01*
X755811Y392961*
X756084Y393336*
X755811Y393711*
X760175Y400836D02*
X759356Y400461D01*
X758811Y399336*
X758538Y397461*
Y396336*
X758811Y394461*
X759356Y393336*
X760175Y392961*
X760720*
X761538Y393336*
X762084Y394461*
X762356Y396336*
Y397461*
X762084Y399336*
X761538Y400461*
X760720Y400836*
X760175*
X519447Y376836D02*
X518629Y376461D01*
X518084Y375336*
X517811Y373461*
Y372336*
X518084Y370461*
X518629Y369336*
X519447Y368961*
X519993*
X520811Y369336*
X521356Y370461*
X521629Y372336*
Y373461*
X521356Y375336*
X520811Y376461*
X519993Y376836*
X519447*
X524356Y369711D02*
X524084Y369336D01*
X524356Y368961*
X524629Y369336*
X524356Y369711*
X530629Y374211D02*
X530356Y373086D01*
X529811Y372336*
X528993Y371961*
X528720*
X527902Y372336*
X527356Y373086*
X527084Y374211*
Y374586*
X527356Y375711*
X527902Y376461*
X528720Y376836*
X528993*
X529811Y376461*
X530356Y375711*
X530629Y374211*
Y372336*
X530356Y370461*
X529811Y369336*
X528993Y368961*
X528447*
X527629Y369336*
X527356Y370086*
X614266Y376836D02*
X611538D01*
X611266Y373461*
X611538Y373836*
X612356Y374211*
X613175*
X613993Y373836*
X614538Y373086*
X614811Y371961*
X614538Y371211*
X614266Y370086*
X613720Y369336*
X612902Y368961*
X612084*
X611266Y369336*
X610993Y369711*
X610720Y370461*
X643811Y368961D02*
X655811D01*
Y380961*
X643811*
Y368961*
X649811Y374961D02*
Y380961D01*
X676447Y376836D02*
X678629Y373086D01*
Y368961*
X680811Y376836D02*
X678629Y373086D01*
X683266Y376836D02*
Y368961D01*
Y376836D02*
X686811D01*
X683266Y373086D02*
X685447D01*
X683266Y368961D02*
X686811D01*
X693084Y375711D02*
X692538Y376461D01*
X691720Y376836*
X690629*
X689811Y376461*
X689266Y375711*
Y374961*
X689538Y374211*
X689811Y373836*
X690356Y373461*
X691993Y372711*
X692538Y372336*
X692811Y371961*
X693084Y371211*
Y370086*
X692538Y369336*
X691720Y368961*
X690629*
X689811Y369336*
X689266Y370086*
X729629Y375711D02*
Y368961D01*
X727175Y372336D02*
X732084D01*
X739447Y378336D02*
X734538Y366336D01*
X741902Y372336D02*
X746811D01*
X750902Y376836D02*
X750084Y376461D01*
X749538Y375336*
X749266Y373461*
Y372336*
X749538Y370461*
X750084Y369336*
X750902Y368961*
X751447*
X752266Y369336*
X752811Y370461*
X753084Y372336*
Y373461*
X752811Y375336*
X752266Y376461*
X751447Y376836*
X750902*
X755811Y369711D02*
X755538Y369336D01*
X755811Y368961*
X756084Y369336*
X755811Y369711*
X760175Y376836D02*
X759356Y376461D01*
X758811Y375336*
X758538Y373461*
Y372336*
X758811Y370461*
X759356Y369336*
X760175Y368961*
X760720*
X761538Y369336*
X762084Y370461*
X762356Y372336*
Y373461*
X762084Y375336*
X761538Y376461*
X760720Y376836*
X760175*
X519447Y352836D02*
X518629Y352461D01*
X518084Y351336*
X517811Y349461*
Y348336*
X518084Y346461*
X518629Y345336*
X519447Y344961*
X519993*
X520811Y345336*
X521356Y346461*
X521629Y348336*
Y349461*
X521356Y351336*
X520811Y352461*
X519993Y352836*
X519447*
X524356Y345711D02*
X524084Y345336D01*
X524356Y344961*
X524629Y345336*
X524356Y345711*
X530356Y351711D02*
X530084Y352461D01*
X529266Y352836*
X528720*
X527902Y352461*
X527356Y351336*
X527084Y349461*
Y347586*
X527356Y346086*
X527902Y345336*
X528720Y344961*
X528993*
X529811Y345336*
X530356Y346086*
X530629Y347211*
Y347586*
X530356Y348711*
X529811Y349461*
X528993Y349836*
X528720*
X527902Y349461*
X527356Y348711*
X527084Y347586*
X608402Y352836D02*
X611402D01*
X609766Y349836*
X610584*
X611129Y349461*
X611402Y349086*
X611675Y347961*
Y347211*
X611402Y346086*
X610856Y345336*
X610038Y344961*
X609220*
X608402Y345336*
X608129Y345711*
X607856Y346461*
X617675Y350211D02*
X617402Y349086D01*
X616856Y348336*
X616038Y347961*
X615766*
X614947Y348336*
X614402Y349086*
X614129Y350211*
Y350586*
X614402Y351711*
X614947Y352461*
X615766Y352836*
X616038*
X616856Y352461*
X617402Y351711*
X617675Y350211*
Y348336*
X617402Y346461*
X616856Y345336*
X616038Y344961*
X615493*
X614675Y345336*
X614402Y346086*
X649811Y344961D02*
X655811Y350961D01*
X649811Y356961*
X643811Y350961*
X649811Y344961*
Y350961D02*
Y356961D01*
X676447Y352836D02*
X678629Y349086D01*
Y344961*
X680811Y352836D02*
X678629Y349086D01*
X683266Y352836D02*
Y344961D01*
Y352836D02*
X686811D01*
X683266Y349086D02*
X685447D01*
X683266Y344961D02*
X686811D01*
X693084Y351711D02*
X692538Y352461D01*
X691720Y352836*
X690629*
X689811Y352461*
X689266Y351711*
Y350961*
X689538Y350211*
X689811Y349836*
X690356Y349461*
X691993Y348711*
X692538Y348336*
X692811Y347961*
X693084Y347211*
Y346086*
X692538Y345336*
X691720Y344961*
X690629*
X689811Y345336*
X689266Y346086*
X729629Y351711D02*
Y344961D01*
X727175Y348336D02*
X732084D01*
X739447Y354336D02*
X734538Y342336D01*
X741902Y348336D02*
X746811D01*
X750902Y352836D02*
X750084Y352461D01*
X749538Y351336*
X749266Y349461*
Y348336*
X749538Y346461*
X750084Y345336*
X750902Y344961*
X751447*
X752266Y345336*
X752811Y346461*
X753084Y348336*
Y349461*
X752811Y351336*
X752266Y352461*
X751447Y352836*
X750902*
X755811Y345711D02*
X755538Y345336D01*
X755811Y344961*
X756084Y345336*
X755811Y345711*
X760175Y352836D02*
X759356Y352461D01*
X758811Y351336*
X758538Y349461*
Y348336*
X758811Y346461*
X759356Y345336*
X760175Y344961*
X760720*
X761538Y345336*
X762084Y346461*
X762356Y348336*
Y349461*
X762084Y351336*
X761538Y352461*
X760720Y352836*
X760175*
X519447Y328836D02*
X518629Y328461D01*
X518084Y327336*
X517811Y325461*
Y324336*
X518084Y322461*
X518629Y321336*
X519447Y320961*
X519993*
X520811Y321336*
X521356Y322461*
X521629Y324336*
Y325461*
X521356Y327336*
X520811Y328461*
X519993Y328836*
X519447*
X524356Y321711D02*
X524084Y321336D01*
X524356Y320961*
X524629Y321336*
X524356Y321711*
X530902Y328836D02*
X528175Y320961D01*
X527084Y328836D02*
X530902D01*
X539629Y326211D02*
X542629Y320961D01*
Y326211D02*
X539629Y320961D01*
X551356Y327336D02*
X551902Y327711D01*
X552720Y328836*
Y320961*
X555447Y321711D02*
X555175Y321336D01*
X555447Y320961*
X555720Y321336*
X555447Y321711*
X560902Y328836D02*
X558175Y323586D01*
X562266*
X560902Y328836D02*
Y320961D01*
X611129Y326961D02*
Y327336D01*
X611402Y328086*
X611675Y328461*
X612220Y328836*
X613311*
X613856Y328461*
X614129Y328086*
X614402Y327336*
Y326586*
X614129Y325836*
X613584Y324711*
X610856Y320961*
X614675*
X643811D02*
X655811D01*
X643811Y332961*
X655811*
X643811Y320961*
X676447Y328836D02*
X678629Y325086D01*
Y320961*
X680811Y328836D02*
X678629Y325086D01*
X683266Y328836D02*
Y320961D01*
Y328836D02*
X686811D01*
X683266Y325086D02*
X685447D01*
X683266Y320961D02*
X686811D01*
X693084Y327711D02*
X692538Y328461D01*
X691720Y328836*
X690629*
X689811Y328461*
X689266Y327711*
Y326961*
X689538Y326211*
X689811Y325836*
X690356Y325461*
X691993Y324711*
X692538Y324336*
X692811Y323961*
X693084Y323211*
Y322086*
X692538Y321336*
X691720Y320961*
X690629*
X689811Y321336*
X689266Y322086*
X729629Y327711D02*
Y320961D01*
X727175Y324336D02*
X732084D01*
X739447Y330336D02*
X734538Y318336D01*
X741902Y324336D02*
X746811D01*
X750902Y328836D02*
X750084Y328461D01*
X749538Y327336*
X749266Y325461*
Y324336*
X749538Y322461*
X750084Y321336*
X750902Y320961*
X751447*
X752266Y321336*
X752811Y322461*
X753084Y324336*
Y325461*
X752811Y327336*
X752266Y328461*
X751447Y328836*
X750902*
X755811Y321711D02*
X755538Y321336D01*
X755811Y320961*
X756084Y321336*
X755811Y321711*
X760175Y328836D02*
X759356Y328461D01*
X758811Y327336*
X758538Y325461*
Y324336*
X758811Y322461*
X759356Y321336*
X760175Y320961*
X760720*
X761538Y321336*
X762084Y322461*
X762356Y324336*
Y325461*
X762084Y327336*
X761538Y328461*
X760720Y328836*
X760175*
G54D41*
X478346Y393701D02*
G03X478346I-84645J0D01*
G74*
G01X0Y0D02*
M02*
