*
*
G04 PADS 9.3 Build Number: 433611 generated Gerber (RS-274-X) file*
G04 PC Version=2.1*
*
%IN "LDC_Layout_20161209.pcb"*%
*
%MOIN*%
*
%FSLAX35Y35*%
*
*
*
*
G04 PC Standard Apertures*
*
*
G04 Thermal Relief Aperture macro.*
%AMTER*
1,1,$1,0,0*
1,0,$1-$2,0,0*
21,0,$3,$4,0,0,45*
21,0,$3,$4,0,0,135*
%
*
*
G04 Annular Aperture macro.*
%AMANN*
1,1,$1,0,0*
1,0,$2,0,0*
%
*
*
G04 Odd Aperture macro.*
%AMODD*
1,1,$1,0,0*
1,0,$1-0.005,0,0*
%
*
*
G04 PC Custom Aperture Macros*
*
*
*
*
*
*
G04 PC Aperture Table*
*
%ADD010C,0.001*%
%ADD011C,0.005*%
%ADD035C,0.01*%
%ADD041C,0.00394*%
%ADD044C,0.00394*%
%ADD045C,0.00003*%
*
*
*
*
G04 PC Circuitry*
G04 Layer Name LDC_Layout_20161209.pcb - circuitry*
%LPD*%
*
*
G04 PC Custom Flashes*
G04 Layer Name LDC_Layout_20161209.pcb - flashes*
%LPD*%
*
*
G04 PC Circuitry*
G04 Layer Name LDC_Layout_20161209.pcb - circuitry*
%LPD*%
*
G54D10*
G54D11*
G01X346125Y415748D02*
G75*
G03X346125I-2227J0D01*
G01X346857Y412738D02*
Y373855D01*
X385752*
Y412765*
X346887*
X379952Y411549D02*
X381202D01*
X380520Y410299*
X380861*
X381088Y410143*
X381202Y409986*
X381315Y409518*
Y409205*
X381202Y408736*
X380974Y408424*
X380634Y408268*
X380634D02*
X380293D01*
X379952Y408424*
X379838Y408580*
X379724Y408893*
X383474Y411549D02*
X382338Y409361D01*
X384043*
X383474Y411549D02*
Y408268D01*
X380724Y378504D02*
Y378660D01*
X380838Y378973*
X380951Y379129*
X381178Y379285*
X381633*
X381860Y379129*
X381974Y378973*
X382088Y378660*
Y378348*
X381974Y378035*
X381747Y377566*
X380610Y376004*
X382201*
X383451Y379285D02*
X384701D01*
X384019Y378035*
X384360*
X384588Y377879*
X384701Y377723*
X384815Y377254*
Y376941*
X384701Y376473*
X384474Y376160*
X384133Y376004*
X383792*
X383451Y376160*
X383338Y376316*
X383224Y376629*
X347745Y377192D02*
X347973Y377348D01*
X348313Y377817*
Y374536*
X349450Y377036D02*
Y377192D01*
X349563Y377504*
X349677Y377661*
X349904Y377817*
X350359*
X350586Y377661*
X350700Y377504*
X350813Y377192*
Y376879*
X350700Y376567*
X350473Y376098*
X349336Y374536*
X350927*
X348622Y410137D02*
X348849Y410293D01*
X349190Y410762*
Y407480*
X422047Y428346D02*
Y394488D01*
X408268*
Y428346*
X422047*
X417520Y428150D02*
Y426181D01*
X413189*
Y428150*
X417520*
X399451Y427953D02*
G03X399451I-1420J0D01*
G01X384646Y356693D02*
Y337795D01*
X371654*
Y356693*
X384646*
X384710Y359055D02*
G03X384710I-1245J0D01*
G01X409055Y457874D02*
X404331D01*
X408992Y461417D02*
X404559D01*
X406859Y458268*
X408992Y461417*
X412500Y474016D02*
Y445276D01*
X400886*
Y474016*
X412500*
X362795Y453543D02*
Y457480D01*
X369882*
Y453543*
Y446457D02*
Y442520D01*
X362795*
Y446457*
X365551Y449213D02*
Y450787D01*
X367126Y449213D02*
Y450787D01*
Y450000D02*
X368307D01*
X364370D02*
X365551D01*
X417913Y461024D02*
Y464961D01*
X425000*
Y461024*
Y453937D02*
Y450000D01*
X417913*
Y453937*
X423031Y457480D02*
X423819D01*
X419094D02*
X419882D01*
X420276Y458268*
X421063Y456693*
X421850Y458268*
X422638Y456693*
X423031Y457480*
X409449Y440748D02*
X413386D01*
Y433661*
X409449*
X402362D02*
X398425D01*
Y440748*
X402362*
X405906Y435630D02*
Y434843D01*
Y439567D02*
Y438780D01*
X406693Y438386*
X405118Y437598*
X406693Y436811*
X405118Y436024*
X405906Y435630*
X450158Y400631D02*
Y422359D01*
X461812*
Y400709*
X450357*
X445472Y386220D02*
Y382283D01*
X438386*
Y386220*
Y393307D02*
Y397244D01*
X445472*
Y393307*
X440354Y389764D02*
X439567D01*
X444291D02*
X443504D01*
X443110Y388976*
X442323Y390551*
X441535Y388976*
X440748Y390551*
X440354Y389764*
X459252Y431102D02*
Y427165D01*
X452165*
Y431102*
Y438189D02*
Y442126D01*
X459252*
Y438189*
X456496Y435433D02*
Y433858D01*
X454921Y435433D02*
Y433858D01*
Y434646D02*
X453740D01*
X457677D02*
X456496D01*
X450000Y431102D02*
Y427165D01*
X442913*
Y431102*
Y438189D02*
Y442126D01*
X450000*
Y438189*
X447244Y435433D02*
Y433858D01*
X445669Y435433D02*
Y433858D01*
Y434646D02*
X444488D01*
X448425D02*
X447244D01*
X400000Y356299D02*
X396063D01*
Y363386*
X400000*
X407087D02*
X411024D01*
Y356299*
X407087*
X403543Y361417D02*
Y362205D01*
Y357480D02*
Y358268D01*
X402756Y358661*
X404331Y359449*
X402756Y360236*
X404331Y361024*
X403543Y361417*
X433858Y375984D02*
Y379921D01*
X440945*
Y375984*
Y368898D02*
Y364961D01*
X433858*
Y368898*
X436614Y371654D02*
Y373228D01*
X438189Y371654D02*
Y373228D01*
Y372441D02*
X439370D01*
X435433D02*
X436614D01*
X426378Y436811D02*
Y432874D01*
X419291*
Y436811*
Y443898D02*
Y447835D01*
X426378*
Y443898*
X423622Y441142D02*
Y439567D01*
X422047Y441142D02*
Y439567D01*
Y440354D02*
X420866D01*
X424803D02*
X423622D01*
X435433Y436811D02*
Y432874D01*
X428346*
Y436811*
Y443898D02*
Y447835D01*
X435433*
Y443898*
X432677Y441142D02*
Y439567D01*
X431102Y441142D02*
Y439567D01*
Y440354D02*
X429921D01*
X433858D02*
X432677D01*
X441929Y375984D02*
Y379921D01*
X449016*
Y375984*
Y368898D02*
Y364961D01*
X441929*
Y368898*
X444685Y371654D02*
Y373228D01*
X446260Y371654D02*
Y373228D01*
Y372441D02*
X447441D01*
X443504D02*
X444685D01*
X360039Y454134D02*
Y427756D01*
X344291*
Y454134*
X360039*
X353046Y445079D02*
G03X353046I-881J0D01*
G01Y436811D02*
G03X353046I-881J0D01*
G01X354528Y445866D02*
Y436024D01*
Y443898D02*
Y437992D01*
X356102*
Y443898*
X354528*
X352165Y448228D02*
Y445866D01*
Y436024D02*
Y433661D01*
X359646Y363189D02*
X363583D01*
Y356102*
X359646*
X352559D02*
X348622D01*
Y363189*
X352559*
X355315Y360433D02*
X356890D01*
X355315Y358858D02*
X356890D01*
X356102D02*
Y357677D01*
Y361614D02*
Y360433D01*
X400591Y387598D02*
Y391535D01*
X407677*
Y387598*
Y380512D02*
Y376575D01*
X400591*
Y380512*
X403346Y383268D02*
Y384843D01*
X404921Y383268D02*
Y384843D01*
Y384055D02*
X406102D01*
X402165D02*
X403346D01*
X369685Y429921D02*
Y425984D01*
X362598*
Y429921*
Y437008D02*
Y440945D01*
X369685*
Y437008*
X366929Y434252D02*
Y432677D01*
X365354Y434252D02*
Y432677D01*
Y433465D02*
X364173D01*
X368110D02*
X366929D01*
X326575Y391732D02*
X330512D01*
Y384646*
X326575*
X319488D02*
X315551D01*
Y391732*
X319488*
X322244Y388976D02*
X323819D01*
X322244Y387402D02*
X323819D01*
X323031D02*
Y386220D01*
Y390157D02*
Y388976D01*
X433858Y453937D02*
Y450000D01*
X426772*
Y453937*
Y461024D02*
Y464961D01*
X433858*
Y461024*
X428740Y457480D02*
X427953D01*
X432677D02*
X431890D01*
X431496Y456693*
X430709Y458268*
X429921Y456693*
X429134Y458268*
X428740Y457480*
X359646Y350394D02*
X363583D01*
Y343307*
X359646*
X352559D02*
X348622D01*
Y350394*
X352559*
X355315Y347638D02*
X356890D01*
X355315Y346063D02*
X356890D01*
X356102D02*
Y344882D01*
Y348819D02*
Y347638D01*
X338976Y333071D02*
G03X338976I-4330J0D01*
G01X423622Y363386D02*
X427559D01*
Y356299*
X423622*
X416535D02*
X412598D01*
Y363386*
X416535*
X420079Y358268D02*
Y357480D01*
Y362205D02*
Y361417D01*
X420866Y361024*
X419291Y360236*
X420866Y359449*
X419291Y358661*
X420079Y358268*
X413976Y346850D02*
X424606D01*
Y325591*
X413976*
Y346850*
X415551Y345276D02*
X418307D01*
Y327559*
X415551*
Y345276*
X420472D02*
X423228D01*
Y327657*
X420472*
Y345276*
X400000Y347047D02*
X396063D01*
Y354134*
X400000*
X407087D02*
X411024D01*
Y347047*
X407087*
X403543Y352165D02*
Y352953D01*
Y348228D02*
Y349016D01*
X402756Y349409*
X404331Y350197*
X402756Y350984*
X404331Y351772*
X403543Y352165*
X399803Y338189D02*
X395866D01*
Y345276*
X399803*
X406890D02*
X410827D01*
Y338189*
X406890*
X403346Y343307D02*
Y344094D01*
Y339370D02*
Y340157D01*
X402559Y340551*
X404134Y341339*
X402559Y342126*
X404134Y342913*
X403346Y343307*
X394094Y461220D02*
Y435630D01*
X375197*
Y461220*
X394094*
X384252Y450984D02*
Y445079D01*
X385433Y450984D02*
Y445079D01*
X382283Y447047D02*
G03Y449016I-196J984D01*
Y450984I-196J984*
G01Y445079D02*
G03Y447047I-196J984D01*
G01X387402Y450984D02*
G03Y449016I196J-984D01*
Y447047I196J-985*
Y445079I196J-984*
G01Y453740D02*
Y450984D01*
X382283Y453740D02*
Y450984D01*
X387402Y445079D02*
Y442323D01*
X382283Y445079D02*
Y442323D01*
X370866Y326181D02*
X366929D01*
Y333268*
X370866*
X377953D02*
X381890D01*
Y326181*
X377953*
X375197Y328937D02*
X373622D01*
X375197Y330512D02*
X373622D01*
X374409D02*
Y331693D01*
Y327756D02*
Y328937D01*
X394685Y326181D02*
X390748D01*
Y333268*
X394685*
X401772D02*
X405709D01*
Y326181*
X401772*
X399016Y328937D02*
X397441D01*
X399016Y330512D02*
X397441D01*
X398228D02*
Y331693D01*
Y327756D02*
Y328937D01*
X457087Y454331D02*
G03X457087I-4331J0D01*
G01Y333071D02*
G03X457087I-4331J0D01*
G01X338976Y454331D02*
G03X338976I-4330J0D01*
G01X323031Y357087D02*
Y378346D01*
X329331*
Y357087*
X323031*
Y355512D02*
X329331D01*
X326181Y352362*
X323031Y355512*
X328150Y425000D02*
Y441142D01*
X339567*
Y425000*
X328150*
X339961Y419882D02*
X333661D01*
X336811Y423031*
X339961Y419882*
X463780Y393701D02*
Y362598D01*
X452362*
Y393701*
X463780*
X451969Y398425D02*
X458268D01*
X455118Y395276*
X451969Y398425*
X394370Y473701D02*
Y463976D01*
X374409*
Y473701*
X394370*
X395669Y464764D02*
Y473031D01*
X400394Y468701*
X395669Y464764*
X330315Y409843D02*
X316142D01*
Y394094*
X330315*
Y409843*
X329378Y412459D02*
X328278Y410859D01*
X327178Y412459*
X329378*
X320028Y409843D02*
Y394094D01*
X326428Y409843D02*
Y394094D01*
X323228Y409843D02*
Y394094D01*
X442126Y344882D02*
X427953D01*
Y329134*
X442126*
Y344882*
X441189Y347498D02*
X440089Y345898D01*
X438989Y347498*
X441189*
X431839Y344882D02*
Y329134D01*
X438239Y344882D02*
Y329134D01*
X435039Y344882D02*
Y329134D01*
X366654Y314488D02*
Y324213D01*
X386614*
Y314488*
X366654*
X365354Y323425D02*
Y315157D01*
X360630Y319488*
X365354Y323425*
X390669Y314291D02*
Y324016D01*
X410630*
Y314291*
X390669*
X389370Y323228D02*
Y314961D01*
X384646Y319291*
X389370Y323228*
X335236Y343307D02*
X331299D01*
Y350394*
X335236*
X342323D02*
X346260D01*
Y343307*
X342323*
X338780Y348425D02*
Y349213D01*
Y344488D02*
Y345276D01*
X337992Y345669*
X339567Y346457*
X337992Y347244*
X339567Y348031*
X338780Y348425*
X335236Y356102D02*
X331299D01*
Y363189*
X335236*
X342323D02*
X346260D01*
Y356102*
X342323*
X338780Y361220D02*
Y362008D01*
Y357283D02*
Y358071D01*
X337992Y358465*
X339567Y359252*
X337992Y360039*
X339567Y360827*
X338780Y361220*
X350150Y423922D02*
Y421578D01*
X350264Y421110*
X350491Y420797*
X350832Y420641*
X351059*
X351400Y420797*
X351628Y421110*
X351741Y421578*
Y423922*
X352764Y423297D02*
X352991Y423453D01*
X353332Y423922*
Y420641*
X430938Y430221D02*
Y427878D01*
X431052Y427409*
X431279Y427096*
X431620Y426940*
X431847*
X432188Y427096*
X432415Y427409*
X432529Y427878*
Y430221*
X433665Y429440D02*
Y429596D01*
X433779Y429909*
X433893Y430065*
X434120Y430221*
X434575*
X434802Y430065*
X434915Y429909*
X435029Y429596*
Y429284*
X434915Y428971*
X434688Y428503*
X433552Y426940*
X435143*
X370505Y361324D02*
Y358980D01*
X370619Y358511*
X370846Y358199*
X371187Y358043*
X371414*
X371755Y358199*
X371982Y358511*
X372096Y358980*
Y361324*
X373346D02*
X374596D01*
X373914Y360074*
X374255*
X374482Y359918*
X374596Y359761*
X374710Y359293*
Y358980*
X374596Y358511*
X374369Y358199*
X374028Y358043*
X373687*
X373346Y358199*
X373232Y358355*
X373119Y358668*
X413751Y473407D02*
Y470125D01*
Y473407D02*
X414547D01*
X414888Y473250*
X415115Y472938*
X415229Y472625*
X415342Y472157*
Y471375*
X415229Y470907*
X415115Y470594*
X414888Y470282*
X414547Y470125*
X413751*
X416365Y472782D02*
X416592Y472938D01*
X416933Y473407*
Y470125*
X358229Y458294D02*
X358115Y458607D01*
X357888Y458919*
X357661Y459075*
X357206*
X356979Y458919*
X356752Y458607*
X356638Y458294*
X356524Y457825*
Y457044*
X356638Y456575*
X356752Y456263*
X356979Y455950*
X357206Y455794*
X357661*
X357888Y455950*
X358115Y456263*
X358229Y456575*
X359252Y458450D02*
X359479Y458607D01*
X359820Y459075*
Y455794*
X360843Y458450D02*
X361070Y458607D01*
X361411Y459075*
Y455794*
X412627Y464061D02*
Y460780D01*
Y464061D02*
X413649D01*
X413990Y463905*
X414104Y463749*
X414218Y463436*
Y463124*
X414104Y462811*
X413990Y462655*
X413649Y462499*
X412627*
X413422D02*
X414218Y460780D01*
X415240Y463436D02*
X415468Y463593D01*
X415809Y464061*
Y460780*
X395111Y444985D02*
Y441704D01*
Y444985D02*
X396134D01*
X396475Y444829*
X396589Y444673*
X396702Y444360*
Y444048*
X396589Y443735*
X396475Y443579*
X396134Y443423*
X395111*
X395907D02*
X396702Y441704D01*
X397839Y444204D02*
Y444360D01*
X397952Y444673*
X398066Y444829*
X398293Y444985*
X398748*
X398975Y444829*
X399089Y444673*
X399202Y444360*
Y444048*
X399089Y443735*
X398861Y443266*
X397725Y441704*
X399316*
X441564Y425107D02*
Y422764D01*
X441677Y422295*
X441905Y421982*
X442246Y421826*
X442473*
X442814Y421982*
X443041Y422295*
X443155Y422764*
Y425107*
X445314D02*
X444177Y422920D01*
X445882*
X445314Y425107D02*
Y421826D01*
X439145Y402067D02*
Y398786D01*
Y402067D02*
X440168D01*
X440509Y401911*
X440622Y401755*
X440736Y401442*
Y401130*
X440622Y400817*
X440509Y400661*
X440168Y400505*
X439145*
X439940D02*
X440736Y398786D01*
X441986Y402067D02*
X443236D01*
X442554Y400817*
X442895*
X443122Y400661*
X443236Y400505*
X443349Y400036*
Y399724*
X443236Y399255*
X443009Y398942*
X442668Y398786*
X442327*
X441986Y398942*
X441872Y399099*
X441759Y399411*
X455341Y445976D02*
X455228Y446288D01*
X455000Y446601*
X454773Y446757*
X454319*
X454091Y446601*
X453864Y446288*
X453750Y445976*
X453637Y445507*
Y444726*
X453750Y444257*
X453864Y443944*
X454091Y443632*
X454319Y443476*
X454773*
X455000Y443632*
X455228Y443944*
X455341Y444257*
X456364Y446132D02*
X456591Y446288D01*
X456932Y446757*
Y443476*
X439275Y439729D02*
X439161Y440041D01*
X438934Y440354*
X438706Y440510*
X438252*
X438025Y440354*
X437797Y440041*
X437684Y439729*
X437570Y439260*
Y438479*
X437684Y438010*
X437797Y437698*
X438025Y437385*
X438252Y437229*
X438706*
X438934Y437385*
X439161Y437698*
X439275Y438010*
X440411Y439729D02*
Y439885D01*
X440525Y440198*
X440638Y440354*
X440866Y440510*
X441320*
X441547Y440354*
X441661Y440198*
X441775Y439885*
Y439573*
X441661Y439260*
X441434Y438791*
X440297Y437229*
X441888*
X390921Y362702D02*
Y359421D01*
Y362702D02*
X391943D01*
X392284Y362546*
X392398Y362389*
X392512Y362077*
Y361764*
X392398Y361452*
X392284Y361296*
X391943Y361139*
X390921*
X391716D02*
X392512Y359421D01*
X394671Y362702D02*
X393534Y360514D01*
X395239*
X394671Y362702D02*
Y359421D01*
X430877Y387860D02*
Y384579D01*
X432241*
X433264Y387235D02*
X433491Y387391D01*
X433832Y387860*
Y384579*
X435788Y362712D02*
X435674Y363025D01*
X435447Y363337*
X435220Y363493*
X434765*
X434538Y363337*
X434311Y363025*
X434197Y362712*
X434083Y362243*
Y361462*
X434197Y360993*
X434311Y360681*
X434538Y360368*
X434765Y360212*
X435220*
X435447Y360368*
X435674Y360681*
X435788Y360993*
X437038Y363493D02*
X438288D01*
X437606Y362243*
X437947*
X438174Y362087*
X438288Y361931*
X438402Y361462*
Y361150*
X438288Y360681*
X438061Y360368*
X437720Y360212*
X437379*
X437038Y360368*
X436924Y360525*
X436811Y360837*
X415259Y448447D02*
X415145Y448760D01*
X414918Y449072*
X414691Y449228*
X414236*
X414009Y449072*
X413782Y448760*
X413668Y448447*
X413554Y447978*
Y447197*
X413668Y446728*
X413782Y446416*
X414009Y446103*
X414236Y445947*
X414691*
X414918Y446103*
X415145Y446416*
X415259Y446728*
X417418Y449228D02*
X416282Y447041D01*
X417986*
X417418Y449228D02*
Y445947D01*
X438881Y448053D02*
X438767Y448366D01*
X438540Y448678*
X438313Y448835*
X437858*
X437631Y448678*
X437404Y448366*
X437290Y448053*
X437176Y447585*
Y446803*
X437290Y446335*
X437404Y446022*
X437631Y445710*
X437858Y445553*
X438313*
X438540Y445710*
X438767Y446022*
X438881Y446335*
X441381Y448835D02*
X440245D01*
X440131Y447428*
X440245Y447585*
X440586Y447741*
X440926*
X441267Y447585*
X441495Y447272*
X441608Y446803*
X441495Y446491*
X441381Y446022*
X441154Y445710*
X440813Y445553*
X440472*
X440131Y445710*
X440017Y445866*
X439904Y446178*
X446024Y362572D02*
X445911Y362885D01*
X445683Y363197*
X445456Y363353*
X445001*
X444774Y363197*
X444547Y362885*
X444433Y362572*
X444320Y362103*
Y361322*
X444433Y360853*
X444547Y360541*
X444774Y360228*
X445001Y360072*
X445456*
X445683Y360228*
X445911Y360541*
X446024Y360853*
X448411Y362885D02*
X448297Y363197D01*
X447956Y363353*
X447729*
X447388Y363197*
X447161Y362728*
X447047Y361947*
Y361166*
X447161Y360541*
X447388Y360228*
X447729Y360072*
X447842*
X448183Y360228*
X448411Y360541*
X448524Y361010*
Y361166*
X448411Y361635*
X448183Y361947*
X447842Y362103*
X447729*
X447388Y361947*
X447161Y361635*
X447047Y361166*
X350185Y461717D02*
X349957Y462030D01*
X349616Y462186*
X349162*
X348821Y462030*
X348594Y461717*
Y461405*
X348707Y461092*
X348821Y460936*
X349048Y460780*
X349730Y460467*
X349957Y460311*
X350071Y460155*
X350185Y459842*
Y459374*
X349957Y459061*
X349616Y458905*
X349162*
X348821Y459061*
X348594Y459374*
X351207Y461561D02*
X351435Y461717D01*
X351776Y462186*
Y458905*
X345578Y366645D02*
X345464Y366957D01*
X345237Y367270*
X345010Y367426*
X344555*
X344328Y367270*
X344101Y366957*
X343987Y366645*
X343873Y366176*
Y365395*
X343987Y364926*
X344101Y364614*
X344328Y364301*
X344555Y364145*
X345010*
X345237Y364301*
X345464Y364614*
X345578Y364926*
X348192Y367426D02*
X347055Y364145D01*
X346601Y367426D02*
X348192D01*
X403898Y374326D02*
X403785Y374639D01*
X403557Y374951*
X403330Y375107*
X402875*
X402648Y374951*
X402421Y374639*
X402307Y374326*
X402194Y373857*
Y373076*
X402307Y372607*
X402421Y372295*
X402648Y371982*
X402875Y371826*
X403330*
X403557Y371982*
X403785Y372295*
X403898Y372607*
X405489Y375107D02*
X405148Y374951D01*
X405035Y374639*
Y374326*
X405148Y374014*
X405375Y373857*
X405830Y373701*
X406171Y373545*
X406398Y373232*
X406512Y372920*
Y372451*
X406398Y372139*
X406285Y371982*
X405944Y371826*
X405489*
X405148Y371982*
X405035Y372139*
X404921Y372451*
Y372920*
X405035Y373232*
X405262Y373545*
X405603Y373701*
X406057Y373857*
X406285Y374014*
X406398Y374326*
Y374639*
X406285Y374951*
X405944Y375107*
X405489*
X371755Y433963D02*
X371641Y434276D01*
X371414Y434588*
X371187Y434745*
X370732*
X370505Y434588*
X370278Y434276*
X370164Y433963*
X370050Y433495*
Y432713*
X370164Y432245*
X370278Y431932*
X370505Y431620*
X370732Y431463*
X371187*
X371414Y431620*
X371641Y431932*
X371755Y432245*
X374255Y433651D02*
X374141Y433182D01*
X373914Y432870*
X373573Y432713*
X373460*
X373119Y432870*
X372891Y433182*
X372778Y433651*
Y433807*
X372891Y434276*
X373119Y434588*
X373460Y434745*
X373573*
X373914Y434588*
X374141Y434276*
X374255Y433651*
Y432870*
X374141Y432088*
X373914Y431620*
X373573Y431463*
X373346*
X373005Y431620*
X372891Y431932*
X317617Y382590D02*
X317504Y382902D01*
X317276Y383215*
X317049Y383371*
X316594*
X316367Y383215*
X316140Y382902*
X316026Y382590*
X315913Y382121*
Y381340*
X316026Y380871*
X316140Y380559*
X316367Y380246*
X316594Y380090*
X317049*
X317276Y380246*
X317504Y380559*
X317617Y380871*
X318640Y382746D02*
X318867Y382902D01*
X319208Y383371*
Y380090*
X320913Y383371D02*
X320572Y383215D01*
X320344Y382746*
X320231Y381965*
Y381496*
X320344Y380715*
X320572Y380246*
X320913Y380090*
X321140*
X321481Y380246*
X321708Y380715*
X321822Y381496*
Y381965*
X321708Y382746*
X321481Y383215*
X321140Y383371*
X320913*
X435602Y461516D02*
Y458235D01*
Y461516D02*
X436624D01*
X436965Y461360*
X437079Y461204*
X437193Y460891*
Y460579*
X437079Y460266*
X436965Y460110*
X436624Y459954*
X435602*
X436397D02*
X437193Y458235D01*
X438783Y461516D02*
X438443Y461360D01*
X438329Y461048*
Y460735*
X438443Y460423*
X438670Y460266*
X439124Y460110*
X439465Y459954*
X439693Y459641*
X439806Y459329*
Y458860*
X439693Y458548*
X439579Y458391*
X439238Y458235*
X438783*
X438443Y458391*
X438329Y458548*
X438215Y458860*
Y459329*
X438329Y459641*
X438556Y459954*
X438897Y460110*
X439352Y460266*
X439579Y460423*
X439693Y460735*
Y461048*
X439579Y461360*
X439238Y461516*
X438783*
X350491Y341054D02*
X350378Y341367D01*
X350150Y341679*
X349923Y341836*
X349469*
X349241Y341679*
X349014Y341367*
X348900Y341054*
X348787Y340586*
Y339804*
X348900Y339336*
X349014Y339023*
X349241Y338711*
X349469Y338554*
X349923*
X350150Y338711*
X350378Y339023*
X350491Y339336*
X351514Y341211D02*
X351741Y341367D01*
X352082Y341836*
Y338554*
X353219Y341054D02*
Y341211D01*
X353332Y341523*
X353446Y341679*
X353673Y341836*
X354128*
X354355Y341679*
X354469Y341523*
X354582Y341211*
Y340898*
X354469Y340586*
X354241Y340117*
X353105Y338554*
X354696*
X421039Y367820D02*
Y364539D01*
Y367820D02*
X422062D01*
X422402Y367664*
X422516Y367507*
X422630Y367195*
Y366882*
X422516Y366570*
X422402Y366414*
X422062Y366257*
X421039*
X421834D02*
X422630Y364539D01*
X425130Y367820D02*
X423993D01*
X423880Y366414*
X423993Y366570*
X424334Y366726*
X424675*
X425016Y366570*
X425243Y366257*
X425357Y365789*
X425243Y365476*
X425130Y365007*
X424902Y364695*
X424562Y364539*
X424221*
X423880Y364695*
X423766Y364851*
X423652Y365164*
X427411Y354162D02*
X427184Y354475D01*
X426843Y354631*
X426388*
X426047Y354475*
X425820Y354162*
Y353850*
X425934Y353537*
X426047Y353381*
X426275Y353225*
X426956Y352912*
X427184Y352756*
X427297Y352600*
X427411Y352287*
Y351818*
X427184Y351506*
X426843Y351350*
X426388*
X426047Y351506*
X425820Y351818*
X428547Y353850D02*
Y354006D01*
X428661Y354318*
X428775Y354475*
X429002Y354631*
X429456*
X429684Y354475*
X429797Y354318*
X429911Y354006*
Y353693*
X429797Y353381*
X429570Y352912*
X428434Y351350*
X430025*
X390462Y352522D02*
Y349241D01*
Y352522D02*
X391484D01*
X391825Y352366*
X391939Y352210*
X392053Y351897*
Y351585*
X391939Y351272*
X391825Y351116*
X391484Y350960*
X390462*
X391257D02*
X392053Y349241D01*
X394439Y352053D02*
X394325Y352366D01*
X393984Y352522*
X393757*
X393416Y352366*
X393189Y351897*
X393075Y351116*
Y350335*
X393189Y349710*
X393416Y349397*
X393757Y349241*
X393871*
X394212Y349397*
X394439Y349710*
X394553Y350178*
Y350335*
X394439Y350803*
X394212Y351116*
X393871Y351272*
X393757*
X393416Y351116*
X393189Y350803*
X393075Y350335*
X389993Y342623D02*
Y339342D01*
Y342623D02*
X391016D01*
X391357Y342467*
X391471Y342311*
X391584Y341998*
Y341686*
X391471Y341373*
X391357Y341217*
X391016Y341061*
X389993*
X390789D02*
X391584Y339342D01*
X394198Y342623D02*
X393061Y339342D01*
X392607Y342623D02*
X394198D01*
X366495Y462702D02*
Y459421D01*
Y462702D02*
X367972D01*
X366495Y461139D02*
X367404D01*
X368995Y462702D02*
Y459421D01*
X370018Y462702D02*
Y459421D01*
X371382*
X372518Y461921D02*
Y462077D01*
X372632Y462389*
X372745Y462546*
X372972Y462702*
X373427*
X373654Y462546*
X373768Y462389*
X373882Y462077*
Y461764*
X373768Y461452*
X373541Y460983*
X372404Y459421*
X373995*
X362245Y328456D02*
X362132Y328768D01*
X361905Y329081*
X361677Y329237*
X361223*
X360995Y329081*
X360768Y328768*
X360655Y328456*
X360541Y327987*
Y327206*
X360655Y326737*
X360768Y326425*
X360995Y326112*
X361223Y325956*
X361677*
X361905Y326112*
X362132Y326425*
X362245Y326737*
X363268Y328612D02*
X363495Y328768D01*
X363836Y329237*
Y325956*
X365995Y329237D02*
X364859Y327050D01*
X366564*
X365995Y329237D02*
Y325956D01*
X385849Y330678D02*
X385735Y330990D01*
X385508Y331303*
X385281Y331459*
X384826*
X384599Y331303*
X384371Y330990*
X384258Y330678*
X384144Y330209*
Y329428*
X384258Y328959*
X384371Y328647*
X384599Y328334*
X384826Y328178*
X385281*
X385508Y328334*
X385735Y328647*
X385849Y328959*
X386871Y330834D02*
X387099Y330990D01*
X387440Y331459*
Y328178*
X389940Y331459D02*
X388803D01*
X388690Y330053*
X388803Y330209*
X389144Y330365*
X389485*
X389826Y330209*
X390053Y329897*
X390167Y329428*
X390053Y329115*
X389940Y328647*
X389712Y328334*
X389371Y328178*
X389031*
X388690Y328334*
X388576Y328490*
X388462Y328803*
X319472Y374722D02*
Y372222D01*
X319358Y371753*
X319244Y371597*
X319017Y371441*
X318790*
X318563Y371597*
X318449Y371753*
X318335Y372222*
Y372534*
X320494Y374097D02*
X320722Y374253D01*
X321063Y374722*
Y371441*
X323212Y431100D02*
Y428600D01*
X323098Y428131*
X322985Y427975*
X322757Y427819*
X322530*
X322303Y427975*
X322189Y428131*
X322076Y428600*
Y428913*
X324348Y430319D02*
Y430475D01*
X324462Y430788*
X324576Y430944*
X324803Y431100*
X325257*
X325485Y430944*
X325598Y430788*
X325712Y430475*
Y430163*
X325598Y429850*
X325371Y429381*
X324235Y427819*
X325826*
X467447Y392531D02*
Y390031D01*
X467333Y389563*
X467219Y389406*
X466992Y389250*
X466765*
X466538Y389406*
X466424Y389563*
X466310Y390031*
Y390344*
X469833Y392063D02*
X469719Y392375D01*
X469378Y392531*
X469151*
X468810Y392375*
X468583Y391906*
X468469Y391125*
Y390344*
X468583Y389719*
X468810Y389406*
X469151Y389250*
X469265*
X469606Y389406*
X469833Y389719*
X469947Y390188*
Y390344*
X469833Y390813*
X469606Y391125*
X469265Y391281*
X469151*
X468810Y391125*
X468583Y390813*
X468469Y390344*
X390050Y478113D02*
Y475613D01*
X389936Y475144*
X389822Y474988*
X389595Y474831*
X389368*
X389141Y474988*
X389027Y475144*
X388913Y475613*
Y475925*
X391300Y478113D02*
X392550D01*
X391868Y476863*
X392209*
X392436Y476706*
X392550Y476550*
X392663Y476081*
Y475769*
X392550Y475300*
X392322Y474988*
X391981Y474831*
X391641*
X391300Y474988*
X391186Y475144*
X391072Y475456*
X315959Y415711D02*
X315050Y412430D01*
X315959Y415711D02*
X316868Y412430D01*
X315391Y413524D02*
X316527D01*
X317891Y415711D02*
Y412430D01*
Y415711D02*
X318913D01*
X319254Y415555*
X319368Y415399*
X319481Y415086*
Y414774*
X319368Y414461*
X319254Y414305*
X318913Y414149*
X317891*
X318686D02*
X319481Y412430D01*
X320504Y415086D02*
X320731Y415242D01*
X321072Y415711*
Y412430*
X429639Y327466D02*
X428730Y324184D01*
X429639Y327466D02*
X430548Y324184D01*
X429071Y325278D02*
X430208D01*
X431571Y327466D02*
Y324184D01*
Y327466D02*
X432594D01*
X432935Y327309*
X433048Y327153*
X433048D02*
X433162Y326841D01*
Y326528*
X433048Y326216*
X433048D02*
X432935Y326059D01*
X432594Y325903*
X431571*
X432367D02*
X433162Y324184D01*
X434298Y326684D02*
Y326841D01*
X434298D02*
X434412Y327153D01*
X434526Y327309*
X434753Y327466*
X435208*
X435435Y327309*
X435548Y327153*
X435548D02*
X435662Y326841D01*
Y326528*
X435548Y326216*
X435548D02*
X435321Y325747D01*
X434185Y324184*
X435776*
X379686Y313883D02*
Y311383D01*
X379572Y310914*
X379459Y310758*
X379231Y310602*
X379004*
X378777Y310758*
X378663Y310914*
X378550Y311383*
Y311695*
X381845Y313883D02*
X380709Y311695D01*
X382413*
X381845Y313883D02*
Y310602D01*
X397599Y313489D02*
Y310989D01*
X397486Y310520*
X397372Y310364*
X397145Y310208*
X396918*
X396690Y310364*
X396577Y310520*
X396463Y310989*
Y311302*
X400099Y313489D02*
X398963D01*
X398849Y312083*
X398963Y312239*
X399304Y312395*
X399645*
X399986Y312239*
X400213Y311927*
X400327Y311458*
X400213Y311145*
X400099Y310677*
X399872Y310364*
X399531Y310208*
X399190*
X398849Y310364*
X398736Y310520*
X398622Y310833*
X339936Y341302D02*
Y338020D01*
Y341302D02*
X340959D01*
X341300Y341145*
X341413Y340989*
X341527Y340677*
Y340364*
X341413Y340052*
X341300Y339895*
X340959Y339739*
X339936*
X340731D02*
X341527Y338020D01*
X342550Y340677D02*
X342777Y340833D01*
X343118Y341302*
Y338020*
X344822Y341302D02*
X344481Y341145D01*
X344254Y340677*
X344141Y339895*
Y339427*
X344254Y338645*
X344481Y338177*
X344822Y338020*
X345050*
X345391Y338177*
X345618Y338645*
X345731Y339427*
Y339895*
X345618Y340677*
X345391Y341145*
X345050Y341302*
X344822*
X337706Y368270D02*
Y364989D01*
Y368270D02*
X338729D01*
X339069Y368114*
X339183Y367958*
X339297Y367645*
Y367333*
X339183Y367020*
X339069Y366864*
X338729Y366708*
X337706*
X338501D02*
X339297Y364989D01*
X341797Y367176D02*
X341683Y366708D01*
X341456Y366395*
X341115Y366239*
X341001*
X340660Y366395*
X340433Y366708*
X340319Y367176*
Y367333*
X340433Y367801*
X340660Y368114*
X341001Y368270*
X341115*
X341456Y368114*
X341683Y367801*
X341797Y367176*
Y366395*
X341683Y365614*
X341456Y365145*
X341115Y364989*
X340888*
X340547Y365145*
X340433Y365458*
X340748Y336943D02*
Y333661D01*
X342112*
X343134Y336943D02*
Y333661D01*
Y336943D02*
X343930D01*
X344271Y336786*
X344498Y336474*
X344612Y336161*
X344725Y335693*
Y334911*
X344612Y334443*
X344498Y334130*
X344271Y333818*
X343930Y333661*
X343134*
X347453Y336161D02*
X347339Y336474D01*
X347112Y336786*
X346884Y336943*
X346430*
X346203Y336786*
X345975Y336474*
X345862Y336161*
X345748Y335693*
Y334911*
X345862Y334443*
X345975Y334130*
X346203Y333818*
X346430Y333661*
X346884*
X347112Y333818*
X347339Y334130*
X347453Y334443*
X348475Y333036D02*
X350862D01*
X351543Y336943D02*
Y333661D01*
Y336943D02*
X352566D01*
X352907Y336786*
X353021Y336630*
X353134Y336318*
Y336005*
X353021Y335693*
X352907Y335536*
X352566Y335380*
X351543*
X352339D02*
X353134Y333661D01*
X354157Y336943D02*
Y333661D01*
Y336943D02*
X355634D01*
X354157Y335380D02*
X355066D01*
X354157Y333661D02*
X355634D01*
X356657Y336943D02*
X357566Y333661D01*
X358475Y336943D02*
X357566Y333661D01*
X360180Y336943D02*
X359839Y336786D01*
X359612Y336318*
X359498Y335536*
Y335068*
X359612Y334286*
X359839Y333818*
X360180Y333661*
X360407*
X360748Y333818*
X360975Y334286*
X361089Y335068*
Y335536*
X360975Y336318*
X360748Y336786*
X360407Y336943*
X360180*
X362793D02*
X362453Y336786D01*
X362225Y336318*
X362112Y335536*
Y335068*
X362225Y334286*
X362453Y333818*
X362793Y333661*
X363021*
X363362Y333818*
X363589Y334286*
X363703Y335068*
Y335536*
X363589Y336318*
X363362Y336786*
X363021Y336943*
X362793*
X346079Y331356D02*
X345852Y331668D01*
X345511Y331825*
X345056*
X344715Y331668*
X344488Y331356*
Y331043*
X344602Y330731*
X344715Y330575*
X344943Y330418*
X345625Y330106*
X345852Y329950*
X345965Y329793*
X346079Y329481*
Y329012*
X345852Y328700*
X345511Y328543*
X345056*
X344715Y328700*
X344488Y329012*
X347102Y331825D02*
Y328543D01*
X348693Y331825D02*
Y328543D01*
X347102Y330262D02*
X348693D01*
X349715Y331825D02*
Y328543D01*
X352443Y331043D02*
X352329Y331356D01*
X352102Y331668*
X351875Y331825*
X351420*
X351193Y331668*
X350965Y331356*
X350852Y331043*
X350738Y330575*
Y329793*
X350852Y329325*
X350965Y329012*
X351193Y328700*
X351420Y328543*
X351875*
X352102Y328700*
X352329Y329012*
X352443Y329325*
X354147Y331825D02*
X353920Y331668D01*
X353693Y331356*
X353579Y331043*
X353465Y330575*
Y329793*
X353579Y329325*
X353693Y329012*
X353920Y328700*
X354147Y328543*
X354602*
X354829Y328700*
X355056Y329012*
X355170Y329325*
X355284Y329793*
Y330575*
X355170Y331043*
X355056Y331356*
X354829Y331668*
X354602Y331825*
X354147*
G54D35*
X412205Y444094D02*
X401181D01*
G54D41*
X478346Y393701D02*
G03X478346I-84645J0D01*
G54D44*
G01X429134Y391732D02*
X409449D01*
Y369094*
X429134*
Y391732*
G54D45*
X336258Y428157D02*
X336274D01*
X336277Y428156*
X336278Y428155*
X336279Y428154*
Y428152*
X336278Y428151*
X336277Y428150*
X336274*
X336272*
X336263Y428164D02*
X336262D01*
X336260Y428165*
X336259*
X336258Y428167*
Y428170*
X336259Y428171*
X336260Y428172*
X336262Y428173*
X336264*
X336266Y428172*
X336269Y428170*
X336279Y428163*
Y428173*
X455671Y390544D02*
X455655D01*
X455652Y390545*
X455651*
X455650Y390547*
Y390548*
X455651Y390550*
X455652*
X455655Y390551*
X455657*
X455668Y390529D02*
X455670Y390530D01*
X455671Y390532*
Y390533*
X455670Y390535*
X455667Y390537*
X455662Y390538*
X455657*
X455653Y390537*
X455651Y390535*
X455650Y390533*
Y390532*
X455651Y390530*
X455653Y390529*
X455656Y390528*
X455657*
X455660Y390529*
X455662Y390530*
X455663Y390532*
Y390533*
X455662Y390535*
X455660Y390537*
X455657Y390538*
G74*
X0Y0D02*
M02*
