*
*
G04 PADS 9.3 Build Number: 433611 generated Gerber (RS-274-X) file*
G04 PC Version=2.1*
*
%IN "LDC_HW_REV001.pcb"*%
*
%MOIN*%
*
%FSLAX35Y35*%
*
*
*
*
G04 PC Standard Apertures*
*
*
G04 Thermal Relief Aperture macro.*
%AMTER*
1,1,$1,0,0*
1,0,$1-$2,0,0*
21,0,$3,$4,0,0,45*
21,0,$3,$4,0,0,135*
%
*
*
G04 Annular Aperture macro.*
%AMANN*
1,1,$1,0,0*
1,0,$2,0,0*
%
*
*
G04 Odd Aperture macro.*
%AMODD*
1,1,$1,0,0*
1,0,$1-0.005,0,0*
%
*
*
G04 PC Custom Aperture Macros*
*
*
*
*
*
*
G04 PC Aperture Table*
*
%ADD010C,0.001*%
%ADD035C,0.01*%
%ADD039C,0.00394*%
*
*
*
*
G04 PC Circuitry*
G04 Layer Name LDC_HW_REV001.pcb - circuitry*
%LPD*%
*
*
G04 PC Custom Flashes*
G04 Layer Name LDC_HW_REV001.pcb - flashes*
%LPD*%
*
*
G04 PC Circuitry*
G04 Layer Name LDC_HW_REV001.pcb - circuitry*
%LPD*%
*
G54D10*
G54D35*
G01X350394Y328087D02*
X354394Y332087D01*
X350394Y336087*
X346394Y332087*
X350394Y328087*
Y332087D02*
Y336087D01*
Y330843D02*
X354394Y334843D01*
X350394Y338843*
X346394Y334843*
X350394Y330843*
Y334843D02*
Y338843D01*
X349016Y332087D02*
G75*
G03X351772I1378J-0D01*
G01Y334843*
G03X349016I-1378J-0*
G01Y332087*
X376772Y328087D02*
X380772Y332087D01*
X376772Y336087*
X372772Y332087*
X376772Y328087*
Y332087D02*
Y336087D01*
Y330843D02*
X380772Y334843D01*
X376772Y338843*
X372772Y334843*
X376772Y330843*
Y334843D02*
Y338843D01*
X375394Y332087D02*
G03X378150I1378J-0D01*
G01Y334843*
G03X375394I-1378J-0*
G01Y332087*
X350394Y345213D02*
X354394Y349213D01*
X350394Y353213*
X346394Y349213*
X350394Y345213*
Y349213D02*
Y353213D01*
Y347969D02*
X354394Y351969D01*
X350394Y355969*
X346394Y351969*
X350394Y347969*
Y351969D02*
Y355969D01*
X349016Y349213D02*
G03X351772I1378J-0D01*
G01Y351969*
G03X349016I-1378J-0*
G01Y349213*
X376772Y345213D02*
X380772Y349213D01*
X376772Y353213*
X372772Y349213*
X376772Y345213*
Y349213D02*
Y353213D01*
Y347969D02*
X380772Y351969D01*
X376772Y355969*
X372772Y351969*
X376772Y347969*
Y351969D02*
Y355969D01*
X375394Y349213D02*
G03X378150I1378J-0D01*
G01Y351969*
G03X375394I-1378J-0*
G01Y349213*
X403874Y461551D02*
X411874D01*
X403874Y469551*
X411874*
X403874Y461551*
X393874D02*
X401874D01*
X393874Y469551*
X401874*
X393874Y461551*
X404071Y326512D02*
X412071Y334512D01*
X404071D02*
X412071Y326512D01*
X399071D02*
X407071Y334512D01*
X399071D02*
X407071Y326512D01*
X394071D02*
X402071Y334512D01*
X394071D02*
X402071Y326512D01*
X389071D02*
X397071Y334512D01*
X389071D02*
X397071Y326512D01*
X389071Y321512D02*
X397071Y329512D01*
X389071D02*
X397071Y321512D01*
X394071D02*
X402071Y329512D01*
X394071D02*
X402071Y321512D01*
X399071D02*
X407071Y329512D01*
X399071D02*
X407071Y321512D01*
X404071D02*
X412071Y329512D01*
X404071D02*
X412071Y321512D01*
X407417Y382480D02*
X415417D01*
X411417Y378480D02*
Y386480D01*
X414326Y387762D02*
X413417Y384480D01*
X414326Y387762D02*
X415236Y384480D01*
X413758Y385574D02*
X414895D01*
X348953Y373165D02*
X356953Y381165D01*
Y373165*
X348953Y381165*
Y373165*
X319031Y396984D02*
X327031D01*
X319031Y404984*
X327031*
X319031Y396984*
Y386984D02*
X327031D01*
X319031Y394984*
X327031*
X319031Y386984*
X318835Y374937D02*
X326835D01*
X318835Y382937*
X326835*
X318835Y374937*
Y364937D02*
X326835D01*
X318835Y372937*
X326835*
X318835Y364937*
X447969Y397969D02*
X455969Y405969D01*
X447969D02*
X455969Y397969D01*
X447969Y392969D02*
X455969Y400969D01*
X447969D02*
X455969Y392969D01*
X447969Y387969D02*
X455969Y395969D01*
X447969D02*
X455969Y387969D01*
X447969Y382969D02*
X455969Y390969D01*
X447969D02*
X455969Y382969D01*
X447969Y377969D02*
X455969Y385969D01*
X447969D02*
X455969Y377969D01*
X447969Y372969D02*
X455969Y380969D01*
X447969D02*
X455969Y372969D01*
X452969D02*
X460969Y380969D01*
X452969D02*
X460969Y372969D01*
X452969Y377969D02*
X460969Y385969D01*
X452969D02*
X460969Y377969D01*
X452969Y382969D02*
X460969Y390969D01*
X452969D02*
X460969Y382969D01*
X452969Y387969D02*
X460969Y395969D01*
X452969D02*
X460969Y387969D01*
X452969Y392969D02*
X460969Y400969D01*
X452969D02*
X460969Y392969D01*
X452969Y397969D02*
X460969Y405969D01*
X452969D02*
X460969Y397969D01*
X365094Y461748D02*
X373094D01*
X365094Y469748*
X373094*
X365094Y461748*
X375094D02*
X383094D01*
X375094Y469748*
X383094*
X375094Y461748*
X330646Y450331D02*
X338646D01*
Y458331*
X330646*
Y450331*
X334646Y454331D02*
Y458331D01*
X448756Y450331D02*
X456756D01*
Y458331*
X448756*
Y450331*
X452756Y454331D02*
Y458331D01*
X330646Y329071D02*
X338646D01*
Y337071*
X330646*
Y329071*
X334646Y333071D02*
Y337071D01*
X448756Y329071D02*
X456756D01*
Y337071*
X448756*
Y329071*
X452756Y333071D02*
Y337071D01*
X415094Y446197D02*
X423094D01*
Y454197*
X415094*
Y446197*
X419094Y450197D02*
Y454197D01*
X424937Y446197D02*
X432937D01*
Y454197*
X424937*
Y446197*
X428937Y450197D02*
Y454197D01*
X434780Y446197D02*
X442780D01*
Y454197*
X434780*
Y446197*
X438780Y450197D02*
Y454197D01*
X381236Y317520D02*
X389236D01*
X385236Y313520D02*
Y321520D01*
X384189Y333465D02*
X392189D01*
X388189Y329465D02*
Y337465D01*
X422969Y337402D02*
X430969D01*
X426969Y333402D02*
Y341402D01*
X420803Y334646D02*
X428803D01*
X424803Y330646D02*
Y338646D01*
X327890Y357874D02*
X335890D01*
X331890Y353874D02*
Y361874D01*
X381433Y350787D02*
X389433D01*
X385433Y346787D02*
Y354787D01*
X389898Y357283D02*
X397898D01*
X393898Y353283D02*
Y361283D01*
X400134Y357480D02*
X408134D01*
X404134Y353480D02*
Y361480D01*
X431236Y357480D02*
X439236D01*
X435236Y353480D02*
Y361480D01*
X329465Y362402D02*
X337465D01*
X333465Y358402D02*
Y366402D01*
X337929Y367717D02*
X345929D01*
X341929Y363717D02*
Y371717D01*
X360567Y363583D02*
X368567D01*
X364567Y359583D02*
Y367583D01*
X360173Y367323D02*
X368173D01*
X364173Y363323D02*
Y371323D01*
X368047Y367323D02*
X376047D01*
X372047Y363323D02*
Y371323D01*
X408402Y364764D02*
X416402D01*
X412402Y360764D02*
Y368764D01*
X420803Y364567D02*
X428803D01*
X424803Y360567D02*
Y368567D01*
X422575Y361417D02*
X430575D01*
X426575Y357417D02*
Y365417D01*
X438520Y365748D02*
X446520D01*
X442520Y361748D02*
Y369748D01*
X332614Y372441D02*
X340614D01*
X336614Y368441D02*
Y376441D01*
X361945Y375591D02*
X369945D01*
X365945Y371591D02*
Y379591D01*
X431236Y371654D02*
X439236D01*
X435236Y367654D02*
Y375654D01*
X441866Y371654D02*
X449866D01*
X445866Y367654D02*
Y375654D01*
X333205Y385827D02*
X341205D01*
X337205Y381827D02*
Y389827D01*
X341472Y385827D02*
X349472D01*
X345472Y381827D02*
Y389827D01*
X359386Y387598D02*
X367386D01*
X363386Y383598D02*
Y391598D01*
X362339Y384449D02*
X370339D01*
X366339Y380449D02*
Y388449D01*
X372575Y380906D02*
X380575D01*
X376575Y376906D02*
Y384906D01*
X381827Y383465D02*
X389827D01*
X385827Y379465D02*
Y387465D01*
X390488Y383465D02*
X398488D01*
X394488Y379465D02*
Y387465D01*
X428283Y383858D02*
X436283D01*
X432283Y379858D02*
Y387858D01*
X441866Y386614D02*
X449866D01*
X445866Y382614D02*
Y390614D01*
X361354Y391339D02*
X369354D01*
X365354Y387339D02*
Y395339D01*
X362142Y395669D02*
X370142D01*
X366142Y391669D02*
Y399669D01*
X374543Y389567D02*
X382543D01*
X378543Y385567D02*
Y393567D01*
X388913Y389567D02*
X396913D01*
X392913Y385567D02*
Y393567D01*
X427890Y392126D02*
X435890D01*
X431890Y388126D02*
Y396126D01*
X431236Y389173D02*
X439236D01*
X435236Y385173D02*
Y393173D01*
X433008Y392323D02*
X441008D01*
X437008Y388323D02*
Y396323D01*
X459189Y391929D02*
X467189D01*
X463189Y387929D02*
Y395929D01*
X338126Y399803D02*
X346126D01*
X342126Y395803D02*
Y403803D01*
X346000Y403346D02*
X354000D01*
X350000Y399346D02*
Y407346D01*
X371000Y402559D02*
X379000D01*
X375000Y398559D02*
Y406559D01*
X368244Y400984D02*
X376244D01*
X372244Y396984D02*
Y404984D01*
X376315Y399803D02*
X384315D01*
X380315Y395803D02*
Y403803D01*
X404661Y407283D02*
X412661D01*
X408661Y403283D02*
Y411283D01*
X399937Y401969D02*
X407937D01*
X403937Y397969D02*
Y405969D01*
X395213Y401181D02*
X403213D01*
X399213Y397181D02*
Y405181D01*
X402496Y404724D02*
X410496D01*
X406496Y400724D02*
Y408724D01*
X409976Y404921D02*
X417976D01*
X413976Y400921D02*
Y408921D01*
X407811Y401969D02*
X415811D01*
X411811Y397969D02*
Y405969D01*
X413323Y403150D02*
X421323D01*
X417323Y399150D02*
Y407150D01*
X418441Y403543D02*
X426441D01*
X422441Y399543D02*
Y407543D01*
X455646Y406299D02*
X463646D01*
X459646Y402299D02*
Y410299D01*
X323362Y410630D02*
X331362D01*
X327362Y406630D02*
Y414630D01*
X353283Y415551D02*
X361283D01*
X357283Y411551D02*
Y419551D01*
X353480Y410630D02*
X361480D01*
X357480Y406630D02*
Y414630D01*
X346984Y410630D02*
X354984D01*
X350984Y406630D02*
Y414630D01*
X370803Y414370D02*
X378803D01*
X374803Y410370D02*
Y418370D01*
X368047Y411220D02*
X376047D01*
X372047Y407220D02*
Y415220D01*
X391669Y410433D02*
X399669D01*
X395669Y406433D02*
Y414433D01*
X410764Y409252D02*
X418764D01*
X414764Y405252D02*
Y413252D01*
X421984Y409252D02*
X429984D01*
X425984Y405252D02*
Y413252D01*
X439110Y415157D02*
X447110D01*
X443110Y411157D02*
Y419157D01*
X452890Y415157D02*
X460890D01*
X456890Y411157D02*
Y419157D01*
X459189Y410433D02*
X467189D01*
X463189Y406433D02*
Y414433D01*
X372575Y431433D02*
X380575Y439433D01*
X372575D02*
X380575Y431433D01*
X392063D02*
X400063Y439433D01*
X392063D02*
X400063Y431433D01*
X415094D02*
X423094Y439433D01*
X415094D02*
X423094Y431433D01*
X345803Y452693D02*
X353803Y460693D01*
X345803D02*
X353803Y452693D01*
X365094D02*
X373094Y460693D01*
X365094D02*
X373094Y452693D01*
X511811Y506961D02*
X769811D01*
X511811Y482961D02*
X769811D01*
X511811Y458961D02*
X769811D01*
X511811Y434961D02*
X769811D01*
X511811Y410961D02*
X769811D01*
X511811Y386961D02*
X769811D01*
X511811Y362961D02*
X769811D01*
X511811Y338961D02*
X769811D01*
X511811Y314961D02*
X769811D01*
X511811Y506961D02*
Y314961D01*
X595811Y506961D02*
Y314961D01*
X631811Y506961D02*
Y314961D01*
X667811Y506961D02*
Y314961D01*
X721811Y506961D02*
Y314961D01*
X769811Y506961D02*
Y314961D01*
X547311Y495711D02*
X546766Y496461D01*
X545947Y496836*
X544856*
X544038Y496461*
X543493Y495711*
Y494961*
X543766Y494211*
X544038Y493836*
X544584Y493461*
X546220Y492711*
X546766Y492336*
X547038Y491961*
X547311Y491211*
Y490086*
X546766Y489336*
X545947Y488961*
X544856*
X544038Y489336*
X543493Y490086*
X549766Y496836D02*
Y488961D01*
X556038Y496836D02*
X552220Y488961D01*
Y496836D02*
X556038D01*
X552220Y488961D02*
X556038D01*
X558493Y496836D02*
Y488961D01*
Y496836D02*
X562038D01*
X558493Y493086D02*
X560675D01*
X558493Y488961D02*
X562038D01*
X605675Y496836D02*
X605129Y496461D01*
X604584Y495711*
X604311Y494961*
X604038Y493836*
Y491961*
X604311Y490836*
X604584Y490086*
X605129Y489336*
X605675Y488961*
X606766*
X607311Y489336*
X607856Y490086*
X608129Y490836*
X608402Y491961*
Y493836*
X608129Y494961*
X607856Y495711*
X607311Y496461*
X606766Y496836*
X605675*
X606493Y490461D02*
X608129Y488211D01*
X612766Y496836D02*
Y488961D01*
X610856Y496836D02*
X614675D01*
X617129D02*
X619311Y493086D01*
Y488961*
X621493Y496836D02*
X619311Y493086D01*
X643856Y495711D02*
X643311Y496461D01*
X642493Y496836*
X641402*
X640584Y496461*
X640038Y495711*
Y494961*
X640311Y494211*
X640584Y493836*
X641129Y493461*
X642766Y492711*
X643311Y492336*
X643584Y491961*
X643856Y491211*
Y490086*
X643311Y489336*
X642493Y488961*
X641402*
X640584Y489336*
X640038Y490086*
X646311Y496836D02*
X648493Y493086D01*
Y488961*
X650675Y496836D02*
X648493Y493086D01*
X653129Y496836D02*
Y488961D01*
Y496836D02*
X655311Y488961D01*
X657493Y496836D02*
X655311Y488961D01*
X657493Y496836D02*
Y488961D01*
X679311Y496836D02*
Y488961D01*
Y496836D02*
X681766D01*
X682584Y496461*
X682856Y496086*
X683129Y495336*
Y494211*
X682856Y493461*
X682584Y493086*
X681766Y492711*
X679311*
X685584Y496836D02*
Y488961D01*
X688856*
X693493Y496836D02*
X691311Y488961D01*
X693493Y496836D02*
X695675Y488961D01*
X692129Y491586D02*
X694856D01*
X700038Y496836D02*
Y488961D01*
X698129Y496836D02*
X701947D01*
X704402D02*
Y488961D01*
Y496836D02*
X707947D01*
X704402Y493086D02*
X706584D01*
X704402Y488961D02*
X707947D01*
X710402Y496836D02*
Y488961D01*
Y496836D02*
X712311D01*
X713129Y496461*
X713675Y495711*
X713947Y494961*
X714220Y493836*
Y491961*
X713947Y490836*
X713675Y490086*
X713129Y489336*
X712311Y488961*
X710402*
X738493Y496836D02*
Y488961D01*
X736584Y496836D02*
X740402D01*
X744493D02*
X743947Y496461D01*
X743402Y495711*
X743129Y494961*
X742856Y493836*
Y491961*
X743129Y490836*
X743402Y490086*
X743947Y489336*
X744493Y488961*
X745584*
X746129Y489336*
X746675Y490086*
X746947Y490836*
X747220Y491961*
Y493836*
X746947Y494961*
X746675Y495711*
X746129Y496461*
X745584Y496836*
X744493*
X749675D02*
Y488961D01*
X752947*
X519447Y472836D02*
X518629Y472461D01*
X518084Y471336*
X517811Y469461*
Y468336*
X518084Y466461*
X518629Y465336*
X519447Y464961*
X519993*
X520811Y465336*
X521356Y466461*
X521629Y468336*
Y469461*
X521356Y471336*
X520811Y472461*
X519993Y472836*
X519447*
X524356Y465711D02*
X524084Y465336D01*
X524356Y464961*
X524629Y465336*
X524356Y465711*
X529811Y472836D02*
X527084Y467586D01*
X531175*
X529811Y472836D02*
Y464961D01*
X610993Y471711D02*
X610720Y472461D01*
X609902Y472836*
X609356*
X608538Y472461*
X607993Y471336*
X607720Y469461*
Y467586*
X607993Y466086*
X608538Y465336*
X609356Y464961*
X609629*
X610447Y465336*
X610993Y466086*
X611266Y467211*
Y467586*
X610993Y468711*
X610447Y469461*
X609629Y469836*
X609356*
X608538Y469461*
X607993Y468711*
X607720Y467586*
X617266Y472836D02*
X614538D01*
X614266Y469461*
X614538Y469836*
X615356Y470211*
X616175*
X616993Y469836*
X617538Y469086*
X617811Y467961*
X617538Y467211*
X617266Y466086*
X616720Y465336*
X615902Y464961*
X615084*
X614266Y465336*
X613993Y465711*
X613720Y466461*
X643811Y470961D02*
X655811D01*
X649811Y464961D02*
Y476961D01*
X676447Y472836D02*
X678629Y469086D01*
Y464961*
X680811Y472836D02*
X678629Y469086D01*
X683266Y472836D02*
Y464961D01*
Y472836D02*
X686811D01*
X683266Y469086D02*
X685447D01*
X683266Y464961D02*
X686811D01*
X693084Y471711D02*
X692538Y472461D01*
X691720Y472836*
X690629*
X689811Y472461*
X689266Y471711*
Y470961*
X689538Y470211*
X689811Y469836*
X690356Y469461*
X691993Y468711*
X692538Y468336*
X692811Y467961*
X693084Y467211*
Y466086*
X692538Y465336*
X691720Y464961*
X690629*
X689811Y465336*
X689266Y466086*
X729629Y471711D02*
Y464961D01*
X727175Y468336D02*
X732084D01*
X739447Y474336D02*
X734538Y462336D01*
X741902Y468336D02*
X746811D01*
X750902Y472836D02*
X750084Y472461D01*
X749538Y471336*
X749266Y469461*
Y468336*
X749538Y466461*
X750084Y465336*
X750902Y464961*
X751447*
X752266Y465336*
X752811Y466461*
X753084Y468336*
Y469461*
X752811Y471336*
X752266Y472461*
X751447Y472836*
X750902*
X755811Y465711D02*
X755538Y465336D01*
X755811Y464961*
X756084Y465336*
X755811Y465711*
X760175Y472836D02*
X759356Y472461D01*
X758811Y471336*
X758538Y469461*
Y468336*
X758811Y466461*
X759356Y465336*
X760175Y464961*
X760720*
X761538Y465336*
X762084Y466461*
X762356Y468336*
Y469461*
X762084Y471336*
X761538Y472461*
X760720Y472836*
X760175*
X519447Y448836D02*
X518629Y448461D01*
X518084Y447336*
X517811Y445461*
Y444336*
X518084Y442461*
X518629Y441336*
X519447Y440961*
X519993*
X520811Y441336*
X521356Y442461*
X521629Y444336*
Y445461*
X521356Y447336*
X520811Y448461*
X519993Y448836*
X519447*
X524356Y441711D02*
X524084Y441336D01*
X524356Y440961*
X524629Y441336*
X524356Y441711*
X530356Y447711D02*
X530084Y448461D01*
X529266Y448836*
X528720*
X527902Y448461*
X527356Y447336*
X527084Y445461*
Y443586*
X527356Y442086*
X527902Y441336*
X528720Y440961*
X528993*
X529811Y441336*
X530356Y442086*
X530629Y443211*
Y443586*
X530356Y444711*
X529811Y445461*
X528993Y445836*
X528720*
X527902Y445461*
X527356Y444711*
X527084Y443586*
X607856Y446961D02*
Y447336D01*
X608129Y448086*
X608402Y448461*
X608947Y448836*
X610038*
X610584Y448461*
X610856Y448086*
X611129Y447336*
Y446586*
X610856Y445836*
X610311Y444711*
X607584Y440961*
X611402*
X617402Y448836D02*
X614675D01*
X614402Y445461*
X614675Y445836*
X615493Y446211*
X616311*
X617129Y445836*
X617675Y445086*
X617947Y443961*
X617675Y443211*
X617402Y442086*
X616856Y441336*
X616038Y440961*
X615220*
X614402Y441336*
X614129Y441711*
X613856Y442461*
X643811Y440961D02*
X655811Y452961D01*
X643811D02*
X655811Y440961D01*
X676447Y448836D02*
X678629Y445086D01*
Y440961*
X680811Y448836D02*
X678629Y445086D01*
X683266Y448836D02*
Y440961D01*
Y448836D02*
X686811D01*
X683266Y445086D02*
X685447D01*
X683266Y440961D02*
X686811D01*
X693084Y447711D02*
X692538Y448461D01*
X691720Y448836*
X690629*
X689811Y448461*
X689266Y447711*
Y446961*
X689538Y446211*
X689811Y445836*
X690356Y445461*
X691993Y444711*
X692538Y444336*
X692811Y443961*
X693084Y443211*
Y442086*
X692538Y441336*
X691720Y440961*
X690629*
X689811Y441336*
X689266Y442086*
X729629Y447711D02*
Y440961D01*
X727175Y444336D02*
X732084D01*
X739447Y450336D02*
X734538Y438336D01*
X741902Y444336D02*
X746811D01*
X750902Y448836D02*
X750084Y448461D01*
X749538Y447336*
X749266Y445461*
Y444336*
X749538Y442461*
X750084Y441336*
X750902Y440961*
X751447*
X752266Y441336*
X752811Y442461*
X753084Y444336*
Y445461*
X752811Y447336*
X752266Y448461*
X751447Y448836*
X750902*
X755811Y441711D02*
X755538Y441336D01*
X755811Y440961*
X756084Y441336*
X755811Y441711*
X760175Y448836D02*
X759356Y448461D01*
X758811Y447336*
X758538Y445461*
Y444336*
X758811Y442461*
X759356Y441336*
X760175Y440961*
X760720*
X761538Y441336*
X762084Y442461*
X762356Y444336*
Y445461*
X762084Y447336*
X761538Y448461*
X760720Y448836*
X760175*
X519447Y424836D02*
X518629Y424461D01*
X518084Y423336*
X517811Y421461*
Y420336*
X518084Y418461*
X518629Y417336*
X519447Y416961*
X519993*
X520811Y417336*
X521356Y418461*
X521629Y420336*
Y421461*
X521356Y423336*
X520811Y424461*
X519993Y424836*
X519447*
X524356Y417711D02*
X524084Y417336D01*
X524356Y416961*
X524629Y417336*
X524356Y417711*
X528447Y424836D02*
X527629Y424461D01*
X527356Y423711*
Y422961*
X527629Y422211*
X528175Y421836*
X529266Y421461*
X530084Y421086*
X530629Y420336*
X530902Y419586*
Y418461*
X530629Y417711*
X530356Y417336*
X529538Y416961*
X528447*
X527629Y417336*
X527356Y417711*
X527084Y418461*
Y419586*
X527356Y420336*
X527902Y421086*
X528720Y421461*
X529811Y421836*
X530356Y422211*
X530629Y422961*
Y423711*
X530356Y424461*
X529538Y424836*
X528447*
X534720D02*
X533902Y424461D01*
X533629Y423711*
Y422961*
X533902Y422211*
X534447Y421836*
X535538Y421461*
X536356Y421086*
X536902Y420336*
X537175Y419586*
Y418461*
X536902Y417711*
X536629Y417336*
X535811Y416961*
X534720*
X533902Y417336*
X533629Y417711*
X533356Y418461*
Y419586*
X533629Y420336*
X534175Y421086*
X534993Y421461*
X536084Y421836*
X536629Y422211*
X536902Y422961*
Y423711*
X536629Y424461*
X535811Y424836*
X534720*
X543175Y422211D02*
X542902Y421086D01*
X542356Y420336*
X541538Y419961*
X541266*
X540447Y420336*
X539902Y421086*
X539629Y422211*
Y422586*
X539902Y423711*
X540447Y424461*
X541266Y424836*
X541538*
X542356Y424461*
X542902Y423711*
X543175Y422211*
Y420336*
X542902Y418461*
X542356Y417336*
X541538Y416961*
X540993*
X540175Y417336*
X539902Y418086*
X614675Y424836D02*
X611947Y416961D01*
X610856Y424836D02*
X614675D01*
X643811Y416961D02*
X655811D01*
Y428961*
X643811*
Y416961*
X649811Y422961D02*
Y428961D01*
X676447Y424836D02*
X678629Y421086D01*
Y416961*
X680811Y424836D02*
X678629Y421086D01*
X683266Y424836D02*
Y416961D01*
Y424836D02*
X686811D01*
X683266Y421086D02*
X685447D01*
X683266Y416961D02*
X686811D01*
X693084Y423711D02*
X692538Y424461D01*
X691720Y424836*
X690629*
X689811Y424461*
X689266Y423711*
Y422961*
X689538Y422211*
X689811Y421836*
X690356Y421461*
X691993Y420711*
X692538Y420336*
X692811Y419961*
X693084Y419211*
Y418086*
X692538Y417336*
X691720Y416961*
X690629*
X689811Y417336*
X689266Y418086*
X729629Y423711D02*
Y416961D01*
X727175Y420336D02*
X732084D01*
X739447Y426336D02*
X734538Y414336D01*
X741902Y420336D02*
X746811D01*
X750902Y424836D02*
X750084Y424461D01*
X749538Y423336*
X749266Y421461*
Y420336*
X749538Y418461*
X750084Y417336*
X750902Y416961*
X751447*
X752266Y417336*
X752811Y418461*
X753084Y420336*
Y421461*
X752811Y423336*
X752266Y424461*
X751447Y424836*
X750902*
X755811Y417711D02*
X755538Y417336D01*
X755811Y416961*
X756084Y417336*
X755811Y417711*
X760175Y424836D02*
X759356Y424461D01*
X758811Y423336*
X758538Y421461*
Y420336*
X758811Y418461*
X759356Y417336*
X760175Y416961*
X760720*
X761538Y417336*
X762084Y418461*
X762356Y420336*
Y421461*
X762084Y423336*
X761538Y424461*
X760720Y424836*
X760175*
X519447Y400836D02*
X518629Y400461D01*
X518084Y399336*
X517811Y397461*
Y396336*
X518084Y394461*
X518629Y393336*
X519447Y392961*
X519993*
X520811Y393336*
X521356Y394461*
X521629Y396336*
Y397461*
X521356Y399336*
X520811Y400461*
X519993Y400836*
X519447*
X524356Y393711D02*
X524084Y393336D01*
X524356Y392961*
X524629Y393336*
X524356Y393711*
X530902Y400836D02*
X528175Y392961D01*
X527084Y400836D02*
X530902D01*
X539629Y398211D02*
X542629Y392961D01*
Y398211D02*
X539629Y392961D01*
X551356Y399336D02*
X551902Y399711D01*
X552720Y400836*
Y392961*
X555447Y393711D02*
X555175Y393336D01*
X555447Y392961*
X555720Y393336*
X555447Y393711*
X560902Y400836D02*
X558175Y395586D01*
X562266*
X560902Y400836D02*
Y392961D01*
X613447Y400836D02*
X610720Y395586D01*
X614811*
X613447Y400836D02*
Y392961D01*
X649811D02*
X655811Y398961D01*
X649811Y404961*
X643811Y398961*
X649811Y392961*
Y398961D02*
Y404961D01*
X676447Y400836D02*
X678629Y397086D01*
Y392961*
X680811Y400836D02*
X678629Y397086D01*
X683266Y400836D02*
Y392961D01*
Y400836D02*
X686811D01*
X683266Y397086D02*
X685447D01*
X683266Y392961D02*
X686811D01*
X693084Y399711D02*
X692538Y400461D01*
X691720Y400836*
X690629*
X689811Y400461*
X689266Y399711*
Y398961*
X689538Y398211*
X689811Y397836*
X690356Y397461*
X691993Y396711*
X692538Y396336*
X692811Y395961*
X693084Y395211*
Y394086*
X692538Y393336*
X691720Y392961*
X690629*
X689811Y393336*
X689266Y394086*
X729629Y399711D02*
Y392961D01*
X727175Y396336D02*
X732084D01*
X739447Y402336D02*
X734538Y390336D01*
X741902Y396336D02*
X746811D01*
X750902Y400836D02*
X750084Y400461D01*
X749538Y399336*
X749266Y397461*
Y396336*
X749538Y394461*
X750084Y393336*
X750902Y392961*
X751447*
X752266Y393336*
X752811Y394461*
X753084Y396336*
Y397461*
X752811Y399336*
X752266Y400461*
X751447Y400836*
X750902*
X755811Y393711D02*
X755538Y393336D01*
X755811Y392961*
X756084Y393336*
X755811Y393711*
X760175Y400836D02*
X759356Y400461D01*
X758811Y399336*
X758538Y397461*
Y396336*
X758811Y394461*
X759356Y393336*
X760175Y392961*
X760720*
X761538Y393336*
X762084Y394461*
X762356Y396336*
Y397461*
X762084Y399336*
X761538Y400461*
X760720Y400836*
X760175*
X519447Y376836D02*
X518629Y376461D01*
X518084Y375336*
X517811Y373461*
Y372336*
X518084Y370461*
X518629Y369336*
X519447Y368961*
X519993*
X520811Y369336*
X521356Y370461*
X521629Y372336*
Y373461*
X521356Y375336*
X520811Y376461*
X519993Y376836*
X519447*
X524356Y369711D02*
X524084Y369336D01*
X524356Y368961*
X524629Y369336*
X524356Y369711*
X530629Y374211D02*
X530356Y373086D01*
X529811Y372336*
X528993Y371961*
X528720*
X527902Y372336*
X527356Y373086*
X527084Y374211*
Y374586*
X527356Y375711*
X527902Y376461*
X528720Y376836*
X528993*
X529811Y376461*
X530356Y375711*
X530629Y374211*
Y372336*
X530356Y370461*
X529811Y369336*
X528993Y368961*
X528447*
X527629Y369336*
X527356Y370086*
X536629Y374211D02*
X536356Y373086D01*
X535811Y372336*
X534993Y371961*
X534720*
X533902Y372336*
X533356Y373086*
X533084Y374211*
Y374586*
X533356Y375711*
X533902Y376461*
X534720Y376836*
X534993*
X535811Y376461*
X536356Y375711*
X536629Y374211*
Y372336*
X536356Y370461*
X535811Y369336*
X534993Y368961*
X534447*
X533629Y369336*
X533356Y370086*
X542629Y374211D02*
X542356Y373086D01*
X541811Y372336*
X540993Y371961*
X540720*
X539902Y372336*
X539356Y373086*
X539084Y374211*
Y374586*
X539356Y375711*
X539902Y376461*
X540720Y376836*
X540993*
X541811Y376461*
X542356Y375711*
X542629Y374211*
Y372336*
X542356Y370461*
X541811Y369336*
X540993Y368961*
X540447*
X539629Y369336*
X539356Y370086*
X548629Y374211D02*
X548356Y373086D01*
X547811Y372336*
X546993Y371961*
X546720*
X545902Y372336*
X545356Y373086*
X545084Y374211*
Y374586*
X545356Y375711*
X545902Y376461*
X546720Y376836*
X546993*
X547811Y376461*
X548356Y375711*
X548629Y374211*
Y372336*
X548356Y370461*
X547811Y369336*
X546993Y368961*
X546447*
X545629Y369336*
X545356Y370086*
X551084Y375336D02*
X551629Y375711D01*
X552447Y376836*
Y368961*
X612220Y376836D02*
X611402Y376461D01*
X611129Y375711*
Y374961*
X611402Y374211*
X611947Y373836*
X613038Y373461*
X613856Y373086*
X614402Y372336*
X614675Y371586*
Y370461*
X614402Y369711*
X614129Y369336*
X613311Y368961*
X612220*
X611402Y369336*
X611129Y369711*
X610856Y370461*
Y371586*
X611129Y372336*
X611675Y373086*
X612493Y373461*
X613584Y373836*
X614129Y374211*
X614402Y374961*
Y375711*
X614129Y376461*
X613311Y376836*
X612220*
X643811Y368961D02*
X655811D01*
X643811Y380961*
X655811*
X643811Y368961*
X676447Y376836D02*
X678629Y373086D01*
Y368961*
X680811Y376836D02*
X678629Y373086D01*
X683266Y376836D02*
Y368961D01*
Y376836D02*
X686811D01*
X683266Y373086D02*
X685447D01*
X683266Y368961D02*
X686811D01*
X693084Y375711D02*
X692538Y376461D01*
X691720Y376836*
X690629*
X689811Y376461*
X689266Y375711*
Y374961*
X689538Y374211*
X689811Y373836*
X690356Y373461*
X691993Y372711*
X692538Y372336*
X692811Y371961*
X693084Y371211*
Y370086*
X692538Y369336*
X691720Y368961*
X690629*
X689811Y369336*
X689266Y370086*
X729629Y375711D02*
Y368961D01*
X727175Y372336D02*
X732084D01*
X739447Y378336D02*
X734538Y366336D01*
X741902Y372336D02*
X746811D01*
X750902Y376836D02*
X750084Y376461D01*
X749538Y375336*
X749266Y373461*
Y372336*
X749538Y370461*
X750084Y369336*
X750902Y368961*
X751447*
X752266Y369336*
X752811Y370461*
X753084Y372336*
Y373461*
X752811Y375336*
X752266Y376461*
X751447Y376836*
X750902*
X755811Y369711D02*
X755538Y369336D01*
X755811Y368961*
X756084Y369336*
X755811Y369711*
X760175Y376836D02*
X759356Y376461D01*
X758811Y375336*
X758538Y373461*
Y372336*
X758811Y370461*
X759356Y369336*
X760175Y368961*
X760720*
X761538Y369336*
X762084Y370461*
X762356Y372336*
Y373461*
X762084Y375336*
X761538Y376461*
X760720Y376836*
X760175*
X518084Y350961D02*
Y351336D01*
X518356Y352086*
X518629Y352461*
X519175Y352836*
X520266*
X520811Y352461*
X521084Y352086*
X521356Y351336*
Y350586*
X521084Y349836*
X520538Y348711*
X517811Y344961*
X521629*
X612084Y351336D02*
X612629Y351711D01*
X613447Y352836*
Y344961*
X643811D02*
X655811Y356961D01*
Y344961*
X643811Y356961*
Y344961*
X676447Y352836D02*
X678629Y349086D01*
Y344961*
X680811Y352836D02*
X678629Y349086D01*
X683266Y352836D02*
Y344961D01*
Y352836D02*
X686811D01*
X683266Y349086D02*
X685447D01*
X683266Y344961D02*
X686811D01*
X693084Y351711D02*
X692538Y352461D01*
X691720Y352836*
X690629*
X689811Y352461*
X689266Y351711*
Y350961*
X689538Y350211*
X689811Y349836*
X690356Y349461*
X691993Y348711*
X692538Y348336*
X692811Y347961*
X693084Y347211*
Y346086*
X692538Y345336*
X691720Y344961*
X690629*
X689811Y345336*
X689266Y346086*
X729629Y351711D02*
Y344961D01*
X727175Y348336D02*
X732084D01*
X739447Y354336D02*
X734538Y342336D01*
X741902Y348336D02*
X746811D01*
X750902Y352836D02*
X750084Y352461D01*
X749538Y351336*
X749266Y349461*
Y348336*
X749538Y346461*
X750084Y345336*
X750902Y344961*
X751447*
X752266Y345336*
X752811Y346461*
X753084Y348336*
Y349461*
X752811Y351336*
X752266Y352461*
X751447Y352836*
X750902*
X755811Y345711D02*
X755538Y345336D01*
X755811Y344961*
X756084Y345336*
X755811Y345711*
X760175Y352836D02*
X759356Y352461D01*
X758811Y351336*
X758538Y349461*
Y348336*
X758811Y346461*
X759356Y345336*
X760175Y344961*
X760720*
X761538Y345336*
X762084Y346461*
X762356Y348336*
Y349461*
X762084Y351336*
X761538Y352461*
X760720Y352836*
X760175*
X518356Y328836D02*
X521356D01*
X519720Y325836*
X520538*
X521084Y325461*
X521356Y325086*
X521629Y323961*
Y323211*
X521356Y322086*
X520811Y321336*
X519993Y320961*
X519175*
X518356Y321336*
X518084Y321711*
X517811Y322461*
X612084Y327336D02*
X612629Y327711D01*
X613447Y328836*
Y320961*
X643811Y326961D02*
X655811D01*
X649811Y320961D02*
Y332961D01*
X654556Y336261D02*
X652811Y329961D01*
X654556Y336261D02*
X656302Y329961D01*
X653466Y332061D02*
X655647D01*
X676447Y328836D02*
X678629Y325086D01*
Y320961*
X680811Y328836D02*
X678629Y325086D01*
X683266Y328836D02*
Y320961D01*
Y328836D02*
X686811D01*
X683266Y325086D02*
X685447D01*
X683266Y320961D02*
X686811D01*
X693084Y327711D02*
X692538Y328461D01*
X691720Y328836*
X690629*
X689811Y328461*
X689266Y327711*
Y326961*
X689538Y326211*
X689811Y325836*
X690356Y325461*
X691993Y324711*
X692538Y324336*
X692811Y323961*
X693084Y323211*
Y322086*
X692538Y321336*
X691720Y320961*
X690629*
X689811Y321336*
X689266Y322086*
X729629Y327711D02*
Y320961D01*
X727175Y324336D02*
X732084D01*
X739447Y330336D02*
X734538Y318336D01*
X741902Y324336D02*
X746811D01*
X750902Y328836D02*
X750084Y328461D01*
X749538Y327336*
X749266Y325461*
Y324336*
X749538Y322461*
X750084Y321336*
X750902Y320961*
X751447*
X752266Y321336*
X752811Y322461*
X753084Y324336*
Y325461*
X752811Y327336*
X752266Y328461*
X751447Y328836*
X750902*
X755811Y321711D02*
X755538Y321336D01*
X755811Y320961*
X756084Y321336*
X755811Y321711*
X760175Y328836D02*
X759356Y328461D01*
X758811Y327336*
X758538Y325461*
Y324336*
X758811Y322461*
X759356Y321336*
X760175Y320961*
X760720*
X761538Y321336*
X762084Y322461*
X762356Y324336*
Y325461*
X762084Y327336*
X761538Y328461*
X760720Y328836*
X760175*
G54D39*
X478346Y393701D02*
G03X478346I-84645J0D01*
G74*
G01X0Y0D02*
M02*
