%
T1C.01575F095S3
X003819Y006417
X003976Y00687
X004823Y007402
X004291Y007874
X00435Y009213
X005177Y009213
X004843Y01061
X003366Y011693
X006358Y012185
X007835Y011752
X006378Y011693
X005728Y011693
X00563Y010965
X007854Y010728
X007244Y010197
X007165Y009764
X006969Y00939
X007264Y009075
X007224Y008189
X007835Y007362
X007047Y007362
X007087Y006988
X009154Y002382
X009449Y003976
X009173Y005709
X01002Y006358
X008287Y00872
X010079Y008976
X009213Y008976
X009921Y009587
X008484Y009587
X008661Y01061
X00813Y010886
X010197Y011673
X00811Y012067
X012106Y011555
X011496Y011358
X012028Y011122
X01128Y011102
X012874Y010984
X012362Y010945
X011811Y010827
X011024Y010827
X010551Y010748
X01187Y007106
X011043Y006378
X01311Y004094
X013327Y00437
X014154Y006378
X013287Y006772
X01311Y007087
X014882Y007205
X014154Y007795
X015217Y007795
X013858Y009016
X015217Y009291
X014154Y009547
X013819Y009843
X014331Y009862
X013228Y011555
X014941Y012146
X016319Y012146
X016949Y011673
X016594Y01126
X016949Y009823
T2C.02362F197S55
X009937Y003181
X009937Y003681
X008287Y014173
X010236Y014173
X007539Y016299
X00561Y016299
X012539Y014173
X010437Y003681
X011437Y003681
X010937Y003681
X010937Y003181
X011437Y003181
X010437Y003181
X015827Y008327
X016327Y008327
X016327Y008827
X015827Y008827
X015827Y009327
X016327Y009327
X015827Y009827
X016327Y009827
X015827Y010327
X016327Y010327
X015827Y010827
X016327Y010827
T3C.02756F197S55
X005669Y003839G85X005669Y004114
X008307Y003839G85X008307Y004114
X005669Y005551G85X005669Y005827
X008307Y005551G85X008307Y005827
T4C.035F197S55
X004094Y003937
X004094Y016063
X012539Y01565
X013524Y01565
X014508Y01565
X015906Y003937
X015906Y016063
T5C.03937F197S55
X002913Y007524
X002913Y008524
X002933Y009728
X002933Y010728
X007539Y017205
X008539Y017205
X011417Y017185
X010417Y017185
T6C.07874F081S55
X005925Y008346
T7C.11811F069S658
X011772Y008878
M30
