*
*
G04 PADS 9.3 Build Number: 433611 generated Gerber (RS-274-X) file*
G04 PC Version=2.1*
*
%IN "LDC_HW_REV001.pcb"*%
*
%MOIN*%
*
%FSLAX35Y35*%
*
*
*
*
G04 PC Standard Apertures*
*
*
G04 Thermal Relief Aperture macro.*
%AMTER*
1,1,$1,0,0*
1,0,$1-$2,0,0*
21,0,$3,$4,0,0,45*
21,0,$3,$4,0,0,135*
%
*
*
G04 Annular Aperture macro.*
%AMANN*
1,1,$1,0,0*
1,0,$2,0,0*
%
*
*
G04 Odd Aperture macro.*
%AMODD*
1,1,$1,0,0*
1,0,$1-0.005,0,0*
%
*
*
G04 PC Custom Aperture Macros*
*
*
*
*
*
*
G04 PC Aperture Table*
*
%ADD010C,0.001*%
%ADD011C,0.005*%
%ADD035C,0.01*%
%ADD039C,0.00394*%
%ADD044C,0.00787*%
%ADD046C,0.00003*%
*
*
*
*
G04 PC Circuitry*
G04 Layer Name LDC_HW_REV001.pcb - circuitry*
%LPD*%
*
*
G04 PC Custom Flashes*
G04 Layer Name LDC_HW_REV001.pcb - flashes*
%LPD*%
*
*
G04 PC Circuitry*
G04 Layer Name LDC_HW_REV001.pcb - circuitry*
%LPD*%
*
G54D10*
G54D11*
G01X412874Y470551D02*
Y460827D01*
X392913*
Y470551*
X412874*
X412571Y449531D02*
Y457531D01*
X403571*
Y449531*
X412571Y446531D02*
Y438531D01*
X403571*
Y446531*
X400787Y424213D02*
Y428937D01*
X404331Y424276D02*
Y428708D01*
X401181Y426409*
X404331Y424276*
X416929Y420768D02*
X388189D01*
Y432382*
X416929*
Y420768*
X393823Y448846D02*
X401823D01*
Y457846*
X393823*
X390823Y448846D02*
X382823D01*
Y457846*
X390823*
X395079Y445079D02*
X399016D01*
Y437992*
X395079*
X387992D02*
X384055D01*
Y445079*
X387992*
X390748Y442323D02*
X392323D01*
X390748Y440748D02*
X392323D01*
X391535D02*
Y439567D01*
Y443504D02*
Y442323D01*
X411220Y322244D02*
X389071D01*
Y333661*
X411220*
Y322244*
X415945Y334055D02*
Y327756D01*
X412795Y330906*
X415945Y334055*
X453909Y429846D02*
Y437846D01*
X444909*
Y429846*
X453909Y426846D02*
Y418846D01*
X444909*
Y426846*
X437598Y436417D02*
X441535D01*
Y429331*
X437598*
X430512D02*
X426575D01*
Y436417*
X430512*
X433268Y433661D02*
X434843D01*
X433268Y432087D02*
X434843D01*
X434055D02*
Y430906D01*
Y434843D02*
Y433661D01*
X437402Y427362D02*
X441339D01*
Y420276*
X437402*
X430315D02*
X426378D01*
Y427362*
X430315*
X433071Y424606D02*
X434646D01*
X433071Y423031D02*
X434646D01*
X433858D02*
Y421850D01*
Y425787D02*
Y424606D01*
X350394Y341339D02*
X376772D01*
Y325591*
X350394*
Y341339*
X360329Y333465D02*
G75*
G03X360329I-880J0D01*
G01X368597D02*
G03X368597I-880J0D01*
G01X358661Y335827D02*
X368504D01*
X360630D02*
X366535D01*
Y337402*
X360630*
Y335827*
X356299Y333465D02*
X358661D01*
X368504D02*
X370866D01*
X350394Y358465D02*
X376772D01*
Y342717*
X350394*
Y358465*
X360329Y350591D02*
G03X360329I-880J0D01*
G01X368597D02*
G03X368597I-880J0D01*
G01X358661Y352953D02*
X368504D01*
X360630D02*
X366535D01*
Y354528*
X360630*
Y352953*
X356299Y350591D02*
X358661D01*
X368504D02*
X370866D01*
X362402Y370669D02*
X343504D01*
Y383661*
X362402*
Y370669*
X366009Y371850D02*
G03X366009I-1245J0D01*
G01X351181Y390748D02*
X347244D01*
Y397835*
X351181*
X358268D02*
X362205D01*
Y390748*
X358268*
X355512Y393504D02*
X353937D01*
X355512Y395079D02*
X353937D01*
X354724D02*
Y396260D01*
Y392323D02*
Y393504D01*
X333268Y398622D02*
Y402559D01*
X340354*
Y398622*
Y391535D02*
Y387598D01*
X333268*
Y391535*
X336024Y394291D02*
Y395866D01*
X337598Y394291D02*
Y395866D01*
Y395079D02*
X338780D01*
X334843D02*
X336024D01*
X333268Y375984D02*
Y379921D01*
X340354*
Y375984*
Y368898D02*
Y364961D01*
X333268*
Y368898*
X336024Y371654D02*
Y373228D01*
X337598Y371654D02*
Y373228D01*
Y372441D02*
X338780D01*
X334843D02*
X336024D01*
X318031Y405984D02*
X327756D01*
Y386024*
X318031*
Y405984*
X317835Y383937D02*
X327559D01*
Y363976*
X317835*
Y383937*
X384843Y371063D02*
X388780D01*
Y363976*
X384843*
X377756D02*
X373819D01*
Y371063*
X377756*
X381299Y365945D02*
Y365157D01*
Y369882D02*
Y369094D01*
X382087Y368701*
X380512Y367913*
X382087Y367126*
X380512Y366339*
X381299Y365945*
X384843Y379331D02*
X388780D01*
Y372244*
X384843*
X377756D02*
X373819D01*
Y379331*
X377756*
X381299Y374213D02*
Y373425D01*
Y378150D02*
Y377362D01*
X382087Y376969*
X380512Y376181*
X382087Y375394*
X380512Y374606*
X381299Y374213*
X358071Y418307D02*
Y407677D01*
X336811*
Y418307*
X358071*
X356496Y416732D02*
Y413976D01*
X338780*
Y416732*
X356496*
Y411811D02*
Y409055D01*
X338878*
Y411811*
X356496*
X388583Y417717D02*
X392520D01*
Y410630*
X388583*
X381496D02*
X377559D01*
Y417717*
X381496*
X385039Y412598D02*
Y411811D01*
Y416535D02*
Y415748D01*
X385827Y415354*
X384252Y414567*
X385827Y413780*
X384252Y412992*
X385039Y412598*
X388583Y409646D02*
X392520D01*
Y402559*
X388583*
X381496D02*
X377559D01*
Y409646*
X381496*
X385039Y404528D02*
Y403740D01*
Y408465D02*
Y407677D01*
X385827Y407283*
X384252Y406496*
X385827Y405709*
X384252Y404921*
X385039Y404528*
X460236Y405118D02*
Y374016D01*
X448819*
Y405118*
X460236*
X448425Y409843D02*
X454724D01*
X451575Y406693*
X448425Y409843*
X384843Y397835D02*
X388780D01*
Y390748*
X384843*
X377756D02*
X373819D01*
Y397835*
X377756*
X380512Y395079D02*
X382087D01*
X380512Y393504D02*
X382087D01*
X381299D02*
Y392323D01*
Y396260D02*
Y395079D01*
X430315Y411024D02*
X426378D01*
Y418110*
X430315*
X437402D02*
X441339D01*
Y411024*
X437402*
X433858Y416142D02*
Y416929D01*
Y412205D02*
Y412992D01*
X433071Y413386*
X434646Y414173*
X433071Y414961*
X434646Y415748*
X433858Y416142*
X454724Y362598D02*
X440551D01*
Y346850*
X454724*
Y362598*
X453788Y365214D02*
X452688Y363614D01*
X451588Y365214*
X453788*
X444438Y362598D02*
Y346850D01*
X450838Y362598D02*
Y346850D01*
X447638Y362598D02*
Y346850D01*
X413583Y417913D02*
X417520D01*
Y410827*
X413583*
X406496D02*
X402559D01*
Y417913*
X406496*
X409252Y415157D02*
X410827D01*
X409252Y413583D02*
X410827D01*
X410039D02*
Y412402D01*
Y416339D02*
Y415157D01*
X374491Y442781D02*
X379528D01*
Y453281*
X374491*
X364091Y442781D02*
X360752D01*
X359252Y444281*
Y451781*
X360752Y453281*
X364091*
X387795Y351181D02*
Y355118D01*
X394882*
Y351181*
Y344094D02*
Y340157D01*
X387795*
Y344094*
X390551Y346850D02*
Y348425D01*
X392126Y346850D02*
Y348425D01*
Y347638D02*
X393307D01*
X389370D02*
X390551D01*
X412598Y351181D02*
Y355118D01*
X419685*
Y351181*
Y344094D02*
Y340157D01*
X412598*
Y344094*
X415354Y346850D02*
Y348425D01*
X416929Y346850D02*
Y348425D01*
Y347638D02*
X418110D01*
X414173D02*
X415354D01*
X396063Y351181D02*
Y355118D01*
X403150*
Y351181*
Y344094D02*
Y340157D01*
X396063*
Y344094*
X398819Y346850D02*
Y348425D01*
X400394Y346850D02*
Y348425D01*
Y347638D02*
X401575D01*
X397638D02*
X398819D01*
X404331Y351181D02*
Y355118D01*
X411417*
Y351181*
Y344094D02*
Y340157D01*
X404331*
Y344094*
X407087Y346850D02*
Y348425D01*
X408661Y346850D02*
Y348425D01*
Y347638D02*
X409843D01*
X405906D02*
X407087D01*
X348622Y427559D02*
X352559D01*
Y420472*
X348622*
X341535D02*
X337598D01*
Y427559*
X341535*
X345079Y422441D02*
Y421654D01*
Y426378D02*
Y425591D01*
X345866Y425197*
X344291Y424409*
X345866Y423622*
X344291Y422835*
X345079Y422441*
X359291Y426874D02*
Y439874D01*
X363291*
X379291Y426874D02*
Y439874D01*
X375291*
X341535Y429331D02*
X337598D01*
Y436417*
X341535*
X348622D02*
X352559D01*
Y429331*
X348622*
X345079Y434449D02*
Y435236D01*
Y430512D02*
Y431299D01*
X344291Y431693*
X345866Y432480*
X344291Y433268*
X345866Y434055*
X345079Y434449*
X348622Y445079D02*
X352559D01*
Y437992*
X348622*
X341535D02*
X337598D01*
Y445079*
X341535*
X345079Y439961D02*
Y439173D01*
Y443898D02*
Y443110D01*
X345866Y442717*
X344291Y441929*
X345866Y441142*
X344291Y440354*
X345079Y439961*
X364094Y460748D02*
Y470472D01*
X384055*
Y460748*
X364094*
X338976Y454331D02*
G03X338976I-4330J0D01*
G01X457087D02*
G03X457087I-4331J0D01*
G01X338976Y333071D02*
G03X338976I-4330J0D01*
G01X457087D02*
G03X457087I-4331J0D01*
G01X418701Y457677D02*
X438386D01*
X441142Y456890*
X415940Y456875D02*
G03X441139Y456897I12603J-4364D01*
G01X415945Y456890D02*
X418701Y457677D01*
X401727Y475722D02*
Y473222D01*
X401613Y472753*
X401500Y472597*
X401272Y472441*
X401045*
X400818Y472597*
X400704Y472753*
X400591Y473222*
Y473535*
X402977Y475722D02*
X404227D01*
X403545Y474472*
X403886*
X404113Y474316*
X404227Y474160*
X404341Y473691*
Y473378*
X404227Y472910*
X404000Y472597*
X403659Y472441*
X403318*
X402977Y472597*
X402863Y472753*
X402750Y473066*
X414764Y442061D02*
Y438780D01*
X416127*
X417264Y441280D02*
Y441436D01*
X417377Y441748*
X417491Y441905*
X417718Y442061*
X418173*
X418400Y441905*
X418514Y441748*
X418627Y441436*
Y441123*
X418514Y440811*
X418287Y440342*
X417150Y438780*
X418741*
X388780Y437140D02*
Y433858D01*
Y437140D02*
X389575D01*
X389916Y436983*
X390143Y436671*
X390257Y436358*
X390370Y435890*
Y435108*
X390257Y434640*
X390143Y434327*
X389916Y434015*
X389575Y433858*
X388780*
X391393Y436515D02*
X391620Y436671D01*
X391961Y437140*
Y433858*
X386024Y462533D02*
Y459252D01*
X387387*
X388637Y462533D02*
X389887D01*
X389205Y461283*
X389546*
X389774Y461127*
X389887Y460971*
X390001Y460502*
Y460189*
X389887Y459721*
X389660Y459408*
X389319Y459252*
X388978*
X388637Y459408*
X388524Y459564*
X388410Y459877*
X383004Y435768D02*
X382890Y436080D01*
X382663Y436393*
X382436Y436549*
X381981*
X381754Y436393*
X381526Y436080*
X381413Y435768*
X381299Y435299*
Y434518*
X381413Y434049*
X381526Y433736*
X381754Y433424*
X381981Y433268*
X382436*
X382663Y433424*
X382890Y433736*
X383004Y434049*
X384254Y436549D02*
X385504D01*
X384822Y435299*
X385163*
X385390Y435143*
X385504Y434986*
X385617Y434518*
Y434205*
X385504Y433736*
X385276Y433424*
X384936Y433268*
X384595*
X384254Y433424*
X384140Y433580*
X384026Y433893*
X390113Y338124D02*
Y335624D01*
X389999Y335155*
X389885Y334999*
X389658Y334843*
X389431*
X389204Y334999*
X389090Y335155*
X388976Y335624*
Y335936*
X391135Y337499D02*
X391363Y337655D01*
X391704Y338124*
Y334843*
X396457Y402691D02*
Y400347D01*
X396570Y399878*
X396798Y399566*
X397139Y399409*
X397366*
X397707Y399566*
X397934Y399878*
X398048Y400347*
Y402691*
X399184Y401909D02*
Y402066D01*
X399298Y402378*
X399411Y402534*
X399639Y402691*
X400093*
X400320Y402534*
X400434Y402378*
X400548Y402066*
Y401753*
X400434Y401441*
X400207Y400972*
X399070Y399409*
X400661*
X447638Y443045D02*
Y439764D01*
X449001*
X450024Y442420D02*
X450251Y442576D01*
X450592Y443045*
Y439764*
X422768Y433799D02*
X422654Y434112D01*
X422427Y434424*
X422199Y434580*
X421745*
X421518Y434424*
X421290Y434112*
X421177Y433799*
X421063Y433330*
Y432549*
X421177Y432080*
X421290Y431768*
X421518Y431455*
X421745Y431299*
X422199*
X422427Y431455*
X422654Y431768*
X422768Y432080*
X423904Y433799D02*
Y433955D01*
X424018Y434268*
X424131Y434424*
X424358Y434580*
X424813*
X425040Y434424*
X425154Y434268*
X425268Y433955*
Y433643*
X425154Y433330*
X424927Y432862*
X423790Y431299*
X425381*
X423358Y424154D02*
X423244Y424466D01*
X423017Y424779*
X422790Y424935*
X422335*
X422108Y424779*
X421881Y424466*
X421767Y424154*
X421654Y423685*
Y422904*
X421767Y422435*
X421881Y422122*
X422108Y421810*
X422335Y421654*
X422790*
X423017Y421810*
X423244Y422122*
X423358Y422435*
X424381Y424310D02*
X424608Y424466D01*
X424949Y424935*
Y421654*
X345292Y341592D02*
X345064Y341905D01*
X344724Y342061*
X344269*
X343928Y341905*
X343701Y341592*
Y341280*
X343814Y340967*
X343928Y340811*
X344155Y340655*
X344837Y340342*
X345064Y340186*
X345178Y340030*
X345292Y339717*
Y339248*
X345064Y338936*
X344724Y338780*
X344269*
X343928Y338936*
X343701Y339248*
X346314Y341436D02*
X346542Y341592D01*
X346883Y342061*
Y338780*
X345095Y359505D02*
X344868Y359818D01*
X344527Y359974*
X344072*
X343731Y359818*
X343504Y359505*
Y359193*
X343618Y358880*
X343731Y358724*
X343958Y358568*
X344640Y358255*
X344868Y358099*
X344981Y357943*
X345095Y357630*
Y357162*
X344868Y356849*
X344527Y356693*
X344072*
X343731Y356849*
X343504Y357162*
X346231Y359193D02*
Y359349D01*
X346345Y359662*
X346458Y359818*
X346686Y359974*
X347140*
X347368Y359818*
X347481Y359662*
X347595Y359349*
Y359037*
X347481Y358724*
X347254Y358255*
X346118Y356693*
X347708*
X343898Y388911D02*
Y386567D01*
X344011Y386099*
X344239Y385786*
X344579Y385630*
X344807*
X345148Y385786*
X345375Y386099*
X345489Y386567*
Y388911*
X346739D02*
X347989D01*
X347307Y387661*
X347648*
X347875Y387505*
X347989Y387349*
X348102Y386880*
Y386567*
X347989Y386099*
X347761Y385786*
X347420Y385630*
X347079*
X346739Y385786*
X346625Y385942*
X346511Y386255*
X349539Y401516D02*
X349426Y401828D01*
X349198Y402141*
X348971Y402297*
X348516*
X348289Y402141*
X348062Y401828*
X347948Y401516*
X347835Y401047*
Y400266*
X347948Y399797*
X348062Y399484*
X348289Y399172*
X348516Y399016*
X348971*
X349198Y399172*
X349426Y399484*
X349539Y399797*
X350562Y401672D02*
X350789Y401828D01*
X351130Y402297*
Y399016*
X352835Y402297D02*
X352494Y402141D01*
X352266Y401672*
X352153Y400891*
Y400422*
X352266Y399641*
X352494Y399172*
X352835Y399016*
X353062*
X353403Y399172*
X353630Y399641*
X353744Y400422*
Y400891*
X353630Y401672*
X353403Y402141*
X353062Y402297*
X352835*
X335563Y405846D02*
X335449Y406159D01*
X335222Y406471*
X334995Y406628*
X334540*
X334313Y406471*
X334086Y406159*
X333972Y405846*
X333858Y405378*
Y404596*
X333972Y404128*
X334086Y403815*
X334313Y403503*
X334540Y403346*
X334995*
X335222Y403503*
X335449Y403815*
X335563Y404128*
X336586Y406003D02*
X336813Y406159D01*
X337154Y406628*
Y403346*
X338176Y406003D02*
X338404Y406159D01*
X338745Y406628*
Y403346*
X335760Y383799D02*
X335646Y384112D01*
X335419Y384424*
X335191Y384580*
X334737*
X334510Y384424*
X334282Y384112*
X334169Y383799*
X334055Y383330*
Y382549*
X334169Y382080*
X334282Y381768*
X334510Y381455*
X334737Y381299*
X335191*
X335419Y381455*
X335646Y381768*
X335760Y382080*
X336782Y383955D02*
X337010Y384112D01*
X337351Y384580*
Y381299*
X338487Y383799D02*
Y383955D01*
X338601Y384268*
X338714Y384424*
X338941Y384580*
X339396*
X339623Y384424*
X339737Y384268*
X339851Y383955*
Y383643*
X339737Y383330*
X339510Y382862*
X338373Y381299*
X339964*
X313538Y404266D02*
Y401766D01*
X313538D02*
X313424Y401297D01*
X313311Y401141*
X313311D02*
X313083Y400984D01*
X312856*
X312629Y401141*
X312629D02*
X312515Y401297D01*
X312402Y401766*
X312402D02*
Y402078D01*
X315697Y404266D02*
X314561Y402078D01*
X316265*
X315697Y404266D02*
Y400984D01*
X313341Y384187D02*
Y381687D01*
X313227Y381218*
X313114Y381062*
X312887Y380906*
X312659*
X312432Y381062*
X312318Y381218*
X312205Y381687*
Y381999*
X315841Y384187D02*
X314705D01*
X314591Y382781*
X314705Y382937*
X315046Y383093*
X315387*
X315727Y382937*
X315955Y382624*
X316068Y382156*
X315955Y381843*
X315841Y381374*
X315614Y381062*
X315273Y380906*
X314932*
X314591Y381062*
X314477Y381218*
X314364Y381531*
X368701Y368832D02*
Y365551D01*
Y368832D02*
X369724D01*
X370064Y368676*
X370178Y368520*
X370292Y368207*
Y367895*
X370178Y367582*
X370064Y367426*
X369724Y367270*
X368701*
X369496D02*
X370292Y365551D01*
X371883Y368832D02*
X371542Y368676D01*
X371428Y368364*
Y368051*
X371542Y367739*
X371769Y367582*
X372224Y367426*
X372564Y367270*
X372792Y366957*
X372905Y366645*
Y366176*
X372792Y365864*
X372678Y365707*
X372337Y365551*
X371883*
X371542Y365707*
X371428Y365864*
X371314Y366176*
Y366645*
X371428Y366957*
X371655Y367270*
X371996Y367426*
X372451Y367582*
X372678Y367739*
X372792Y368051*
Y368364*
X372678Y368676*
X372337Y368832*
X371883*
X368504Y377494D02*
Y374213D01*
Y377494D02*
X369527D01*
X369868Y377338*
X369981Y377181*
X370095Y376869*
Y376556*
X369981Y376244*
X369868Y376088*
X369527Y375931*
X368504*
X369299D02*
X370095Y374213D01*
X372708Y377494D02*
X371572Y374213D01*
X371118Y377494D02*
X372708D01*
X324229Y418561D02*
X324001Y418873D01*
X323661Y419029*
X323206*
X322865Y418873*
X322638Y418561*
Y418248*
X322751Y417936*
X322865Y417779*
X323092Y417623*
X323774Y417311*
X324001Y417154*
X324115Y416998*
X324229Y416686*
Y416217*
X324001Y415904*
X323661Y415748*
X323206*
X322865Y415904*
X322638Y416217*
X325479Y419029D02*
X326729D01*
X326047Y417779*
X326388*
X326615Y417623*
X326729Y417467*
X326842Y416998*
Y416686*
X326729Y416217*
X326501Y415904*
X326161Y415748*
X325820*
X325479Y415904*
X325365Y416061*
X325251Y416373*
X371850Y416077D02*
Y412795D01*
Y416077D02*
X372873D01*
X373214Y415920*
X373328Y415764*
X373441Y415452*
Y415139*
X373328Y414827*
X373214Y414670*
X372873Y414514*
X371850*
X372646D02*
X373441Y412795D01*
X375941Y416077D02*
X374805D01*
X374691Y414670*
X374805Y414827*
X375146Y414983*
X375487*
X375828Y414827*
X376055Y414514*
X376169Y414045*
X376055Y413733*
X375941Y413264*
X375714Y412952*
X375373Y412795*
X375032*
X374691Y412952*
X374578Y413108*
X374464Y413420*
X371654Y407809D02*
Y404528D01*
Y407809D02*
X372676D01*
X373017Y407653*
X373131Y407496*
X373244Y407184*
Y406871*
X373131Y406559*
X373017Y406403*
X372676Y406246*
X371654*
X372449D02*
X373244Y404528D01*
X375631Y407340D02*
X375517Y407653D01*
X375176Y407809*
X374949*
X374608Y407653*
X374381Y407184*
X374267Y406403*
Y405621*
X374381Y404996*
X374608Y404684*
X374949Y404528*
X375063*
X375404Y404684*
X375631Y404996*
X375744Y405465*
Y405621*
X375631Y406090*
X375404Y406403*
X375063Y406559*
X374949*
X374608Y406403*
X374381Y406090*
X374267Y405621*
X443459Y404659D02*
Y402159D01*
X443346Y401690*
X443232Y401534*
X443005Y401378*
X442777*
X442550Y401534*
X442436Y401690*
X442323Y402159*
Y402472*
X445846Y404190D02*
X445732Y404503D01*
X445391Y404659*
X445164*
X444823Y404503*
X444596Y404034*
X444482Y403253*
Y402472*
X444596Y401847*
X444823Y401534*
X445164Y401378*
X445277*
X445618Y401534*
X445846Y401847*
X445959Y402315*
Y402472*
X445846Y402940*
X445618Y403253*
X445277Y403409*
X445164*
X444823Y403253*
X444596Y402940*
X444482Y402472*
X369027Y395413D02*
X368914Y395726D01*
X368686Y396038*
X368459Y396195*
X368005*
X367777Y396038*
X367550Y395726*
X367436Y395413*
X367323Y394945*
Y394163*
X367436Y393695*
X367550Y393382*
X367777Y393070*
X368005Y392913*
X368459*
X368686Y393070*
X368914Y393382*
X369027Y393695*
X371186Y396195D02*
X370050Y394007D01*
X371755*
X371186Y396195D02*
Y392913D01*
X421260Y415880D02*
Y412598D01*
Y415880D02*
X422283D01*
X422623Y415723*
X422737Y415567*
X422851Y415255*
Y414942*
X422737Y414630*
X422623Y414473*
X422283Y414317*
X421260*
X422055D02*
X422851Y412598D01*
X425010Y415880D02*
X423873Y413692D01*
X425578*
X425010Y415880D02*
Y412598D01*
X440870Y368045D02*
X439961Y364764D01*
X440870Y368045D02*
X441779Y364764D01*
X440302Y365858D02*
X441438D01*
X442802Y368045D02*
Y364764D01*
Y368045D02*
X443824D01*
X444165Y367889*
X444279Y367733*
X444392Y367420*
Y367108*
X444279Y366795*
X444165Y366639*
X443824Y366483*
X442802*
X443597D02*
X444392Y364764D01*
X445529Y367264D02*
Y367420D01*
X445642Y367733*
X445756Y367889*
X445983Y368045*
X446438*
X446665Y367889*
X446779Y367733*
X446892Y367420*
Y367108*
X446779Y366795*
X446552Y366326*
X445415Y364764*
X447006*
X398358Y414902D02*
X398244Y415214D01*
X398017Y415527*
X397790Y415683*
X397335*
X397108Y415527*
X396881Y415214*
X396767Y414902*
X396654Y414433*
Y413652*
X396767Y413183*
X396881Y412870*
X397108Y412558*
X397335Y412402*
X397790*
X398017Y412558*
X398244Y412870*
X398358Y413183*
X400858Y415683D02*
X399722D01*
X399608Y414277*
X399722Y414433*
X400063Y414589*
X400404*
X400744Y414433*
X400972Y414120*
X401085Y413652*
X400972Y413339*
X400858Y412870*
X400631Y412558*
X400290Y412402*
X399949*
X399608Y412558*
X399494Y412714*
X399381Y413027*
X357407Y456840D02*
Y453559D01*
Y456840D02*
X358202D01*
X358543Y456684*
X358770Y456371*
X358884Y456059*
X358998Y455590*
Y454809*
X358884Y454340*
X358770Y454027*
X358543Y453715*
X358202Y453559*
X357407*
X360248Y456840D02*
X361498D01*
X360816Y455590*
X361157*
X361384Y455434*
X361498Y455277*
X361611Y454809*
Y454496*
X361498Y454027*
X361270Y453715*
X360929Y453559*
X360588*
X360248Y453715*
X360134Y453871*
X360020Y454184*
X390484Y358996D02*
X390370Y359309D01*
X390143Y359621*
X389916Y359777*
X389461*
X389234Y359621*
X389007Y359309*
X388893Y358996*
X388780Y358527*
Y357746*
X388893Y357277*
X389007Y356965*
X389234Y356652*
X389461Y356496*
X389916*
X390143Y356652*
X390370Y356965*
X390484Y357277*
X392870Y359309D02*
X392757Y359621D01*
X392416Y359777*
X392189*
X391848Y359621*
X391620Y359152*
X391507Y358371*
Y357590*
X391620Y356965*
X391848Y356652*
X392189Y356496*
X392302*
X392643Y356652*
X392870Y356965*
X392984Y357434*
Y357590*
X392870Y358059*
X392643Y358371*
X392302Y358527*
X392189*
X391848Y358371*
X391620Y358059*
X391507Y357590*
X416075Y358996D02*
X415961Y359309D01*
X415734Y359621*
X415506Y359777*
X415052*
X414825Y359621*
X414597Y359309*
X414484Y358996*
X414370Y358527*
Y357746*
X414484Y357277*
X414597Y356965*
X414825Y356652*
X415052Y356496*
X415506*
X415734Y356652*
X415961Y356965*
X416075Y357277*
X418688Y359777D02*
X417552Y356496D01*
X417097Y359777D02*
X418688D01*
X398949Y358996D02*
X398835Y359309D01*
X398608Y359621*
X398380Y359777*
X397926*
X397699Y359621*
X397471Y359309*
X397358Y358996*
X397244Y358527*
Y357746*
X397358Y357277*
X397471Y356965*
X397699Y356652*
X397926Y356496*
X398380*
X398608Y356652*
X398835Y356965*
X398949Y357277*
X400540Y359777D02*
X400199Y359621D01*
X400085Y359309*
Y358996*
X400199Y358684*
X400426Y358527*
X400880Y358371*
X401221Y358215*
X401449Y357902*
X401562Y357590*
Y357121*
X401449Y356809*
X401335Y356652*
X400994Y356496*
X400540*
X400199Y356652*
X400085Y356809*
X399971Y357121*
Y357590*
X400085Y357902*
X400312Y358215*
X400653Y358371*
X401108Y358527*
X401335Y358684*
X401449Y358996*
Y359309*
X401335Y359621*
X400994Y359777*
X400540*
X407216Y358996D02*
X407103Y359309D01*
X406875Y359621*
X406648Y359777*
X406194*
X405966Y359621*
X405739Y359309*
X405625Y358996*
X405512Y358527*
Y357746*
X405625Y357277*
X405739Y356965*
X405966Y356652*
X406194Y356496*
X406648*
X406875Y356652*
X407103Y356965*
X407216Y357277*
X409716Y358684D02*
X409603Y358215D01*
X409375Y357902*
X409035Y357746*
X408921*
X408580Y357902*
X408353Y358215*
X408239Y358684*
Y358840*
X408353Y359309*
X408580Y359621*
X408921Y359777*
X409035*
X409375Y359621*
X409603Y359309*
X409716Y358684*
Y357902*
X409603Y357121*
X409375Y356652*
X409035Y356496*
X408807*
X408466Y356652*
X408353Y356965*
X332480Y425722D02*
Y422441D01*
Y425722D02*
X333503D01*
X333844Y425566*
X333958Y425410*
X334071Y425097*
Y424785*
X333958Y424472*
X333844Y424316*
X333503Y424160*
X332480*
X333276D02*
X334071Y422441D01*
X335094Y425097D02*
X335321Y425253D01*
X335662Y425722*
Y422441*
X354816Y439502D02*
X354588Y439345D01*
X354361Y439033*
X354247Y438720*
X354134Y438252*
Y437470*
X354247Y437002*
X354361Y436689*
X354588Y436377*
X354816Y436220*
X355270*
X355497Y436377*
X355725Y436689*
X355838Y437002*
X355952Y437470*
Y438252*
X355838Y438720*
X355725Y439033*
X355497Y439345*
X355270Y439502*
X354816*
X355157Y436845D02*
X355838Y435908D01*
X356975Y438877D02*
X357202Y439033D01*
X357543Y439502*
Y436220*
X332087Y434384D02*
Y431102D01*
Y434384D02*
X333109D01*
X333450Y434227*
X333564Y434071*
X333678Y433759*
Y433446*
X333564Y433134*
X333450Y432977*
X333109Y432821*
X332087*
X332882D02*
X333678Y431102D01*
X334814Y433602D02*
Y433759D01*
X334928Y434071*
X335041Y434227*
X335268Y434384*
X335723*
X335950Y434227*
X336064Y434071*
X336178Y433759*
Y433446*
X336064Y433134*
X335837Y432665*
X334700Y431102*
X336291*
X332087Y443045D02*
Y439764D01*
Y443045D02*
X333109D01*
X333450Y442889*
X333564Y442733*
X333678Y442420*
Y442108*
X333564Y441795*
X333450Y441639*
X333109Y441483*
X332087*
X332882D02*
X333678Y439764D01*
X334928Y443045D02*
X336178D01*
X335496Y441795*
X335837*
X336064Y441639*
X336178Y441483*
X336291Y441014*
Y440701*
X336178Y440233*
X335950Y439920*
X335609Y439764*
X335268*
X334928Y439920*
X334814Y440076*
X334700Y440389*
X380467Y475722D02*
Y473222D01*
X380353Y472753*
X380240Y472597*
X380013Y472441*
X379785*
X379558Y472597*
X379444Y472753*
X379331Y473222*
Y473535*
X381603Y474941D02*
Y475097D01*
X381717Y475410*
X381831Y475566*
X382058Y475722*
X382513*
X382740Y475566*
X382853Y475410*
X382967Y475097*
Y474785*
X382853Y474472*
X382626Y474003*
X381490Y472441*
X383081*
X425591Y463517D02*
Y461174D01*
X425704Y460705*
X425931Y460392*
X426272Y460236*
X426500*
X426841Y460392*
X427068Y460705*
X427181Y461174*
Y463517*
X428204Y462892D02*
X428431Y463049D01*
X428772Y463517*
Y460236*
X423031Y343832D02*
Y340551D01*
X424395*
X425418Y343832D02*
Y340551D01*
Y343832D02*
X426213D01*
X426554Y343676*
X426781Y343364*
X426895Y343051*
X427009Y342582*
Y341801*
X426895Y341332*
X426781Y341020*
X426554Y340707*
X426213Y340551*
X425418*
X429736Y343051D02*
X429622Y343364D01*
X429395Y343676*
X429168Y343832*
X428713*
X428486Y343676*
X428259Y343364*
X428145Y343051*
X428031Y342582*
Y341801*
X428145Y341332*
X428259Y341020*
X428486Y340707*
X428713Y340551*
X429168*
X429395Y340707*
X429622Y341020*
X429736Y341332*
X430759Y339926D02*
X433145D01*
X433827Y343832D02*
Y340551D01*
X435418Y343832D02*
Y340551D01*
X433827Y342270D02*
X435418D01*
X436441Y343832D02*
X437009Y340551D01*
X437577Y343832D02*
X437009Y340551D01*
X437577Y343832D02*
X438145Y340551D01*
X438713Y343832D02*
X438145Y340551D01*
X439736Y339926D02*
X442122D01*
X442804Y343832D02*
Y340551D01*
Y343832D02*
X443827D01*
X444168Y343676*
X444281Y343520*
X444395Y343207*
Y342895*
X444281Y342582*
X444168Y342426*
X443827Y342270*
X442804*
X443600D02*
X444395Y340551D01*
X445418Y343832D02*
Y340551D01*
Y343832D02*
X446895D01*
X445418Y342270D02*
X446327D01*
X445418Y340551D02*
X446895D01*
X447918Y343832D02*
X448827Y340551D01*
X449736Y343832D02*
X448827Y340551D01*
X451441Y343832D02*
X451100Y343676D01*
X450872Y343207*
X450759Y342426*
Y341957*
X450872Y341176*
X451100Y340707*
X451441Y340551*
X451668*
X452009Y340707*
X452236Y341176*
X452350Y341957*
Y342426*
X452236Y343207*
X452009Y343676*
X451668Y343832*
X451441*
X454054D02*
X453713Y343676D01*
X453486Y343207*
X453372Y342426*
Y341957*
X453486Y341176*
X453713Y340707*
X454054Y340551*
X454281*
X454622Y340707*
X454850Y341176*
X454963Y341957*
Y342426*
X454850Y343207*
X454622Y343676*
X454281Y343832*
X454054*
X455986Y343207D02*
X456213Y343364D01*
X456554Y343832*
Y340551*
X422751Y337539D02*
Y337696D01*
X422865Y338008*
X422979Y338164*
X423206Y338321*
X423661*
X423888Y338164*
X424001Y338008*
X424115Y337696*
Y337383*
X424001Y337071*
X423774Y336602*
X422638Y335039*
X424229*
X425933Y338321D02*
X425592Y338164D01*
X425365Y337696*
X425251Y336914*
Y336446*
X425365Y335664*
X425592Y335196*
X425933Y335039*
X426161*
X426501Y335196*
X426729Y335664*
X426842Y336446*
Y336914*
X426729Y337696*
X426501Y338164*
X426161Y338321*
X425933*
X427865Y337696D02*
X428092Y337852D01*
X428433Y338321*
Y335039*
X431047Y338321D02*
X429911Y335039D01*
X429456Y338321D02*
X431047D01*
X432183Y335352D02*
X432070Y335196D01*
X432183Y335039*
X432297Y335196*
X432183Y335352*
X434001Y338321D02*
X433661Y338164D01*
X433433Y337696*
X433320Y336914*
Y336446*
X433433Y335664*
X433661Y335196*
X434001Y335039*
X434229*
X434570Y335196*
X434797Y335664*
X434911Y336446*
Y336914*
X434797Y337696*
X434570Y338164*
X434229Y338321*
X434001*
X436047Y337539D02*
Y337696D01*
X436161Y338008*
X436274Y338164*
X436501Y338321*
X436956*
X437183Y338164*
X437297Y338008*
X437411Y337696*
Y337383*
X437297Y337071*
X437070Y336602*
X435933Y335039*
X437524*
X438661Y335352D02*
X438547Y335196D01*
X438661Y335039*
X438774Y335196*
X438661Y335352*
X439911Y337539D02*
Y337696D01*
X440024Y338008*
X440138Y338164*
X440365Y338321*
X440820*
X441047Y338164*
X441161Y338008*
X441274Y337696*
Y337383*
X441161Y337071*
X440933Y336602*
X439797Y335039*
X441388*
X444001Y338321D02*
X442865Y335039D01*
X442411Y338321D02*
X444001D01*
G54D35*
X387008Y421063D02*
Y432087D01*
X392874Y394488D02*
X394921Y393386D01*
X392874Y392559*
Y394488*
X357874Y444488D02*
Y451575D01*
G54D39*
X478346Y393701D02*
G03X478346I-84645J0D01*
G54D44*
G01X399114Y397244D02*
X398130D01*
X396654Y395768*
Y394783*
X426181Y370177D02*
Y367717D01*
X423720*
X399114D02*
X396654D01*
Y370177*
X423780Y397047D02*
X426142D01*
Y394882*
G54D46*
X407867Y465392D02*
Y465408D01*
X407868Y465411*
Y465412*
X407870Y465413*
X407871*
X407873Y465412*
Y465411*
X407874Y465408*
Y465406*
X407859Y465392D02*
X407851D01*
X407855Y465400*
X407853*
X407852Y465401*
X407851Y465402*
X407850Y465405*
Y465407*
X407851Y465410*
X407852Y465412*
X407855Y465413*
X407857*
X407859Y465412*
X407860Y465411*
Y465409*
X323191Y400977D02*
X323175D01*
X323172Y400978*
X323171*
X323170Y400980*
Y400981*
X323171Y400983*
X323172Y400984*
X323175*
X323177*
X323191Y400963D02*
X323177Y400971D01*
Y400960*
X323191Y400963D02*
X323170D01*
X322994Y378930D02*
X322978D01*
X322975Y378931*
X322974*
X322973Y378933*
Y378934*
X322974Y378936*
X322975*
X322978Y378937*
X322980*
X322994Y378914D02*
Y378921D01*
X322985Y378922*
X322986Y378921*
X322987Y378919*
Y378917*
X322986Y378915*
X322984Y378913*
X322981*
X322979*
X322976Y378914*
X322974Y378915*
X322973Y378918*
Y378920*
X322974Y378922*
X322975Y378923*
X322977*
X369102Y465907D02*
Y465892D01*
X369101Y465889*
X369100Y465888*
X369099Y465887*
X369097*
X369096Y465888*
X369095Y465889*
X369094Y465892*
Y465894*
X369109Y465902D02*
Y465903D01*
X369110Y465905*
Y465906*
X369112Y465907*
X369115*
X369116Y465906*
X369117Y465905*
X369118Y465903*
Y465901*
X369117Y465899*
X369115Y465897*
X369108Y465887*
X369118*
G74*
X0Y0D02*
M02*
