*
*
G04 PADS 9.3 Build Number: 433611 generated Gerber (RS-274-X) file*
G04 PC Version=2.1*
*
%IN "LDC_HW_REV001.pcb"*%
*
%MOIN*%
*
%FSLAX35Y35*%
*
*
*
*
G04 PC Standard Apertures*
*
*
G04 Thermal Relief Aperture macro.*
%AMTER*
1,1,$1,0,0*
1,0,$1-$2,0,0*
21,0,$3,$4,0,0,45*
21,0,$3,$4,0,0,135*
%
*
*
G04 Annular Aperture macro.*
%AMANN*
1,1,$1,0,0*
1,0,$2,0,0*
%
*
*
G04 Odd Aperture macro.*
%AMODD*
1,1,$1,0,0*
1,0,$1-0.005,0,0*
%
*
*
G04 PC Custom Aperture Macros*
*
*
*
*
*
*
G04 PC Aperture Table*
*
%ADD010C,0.001*%
%ADD012R,0.06297X0.06297*%
%ADD018R,0.03937X0.03937*%
%ADD019C,0.03937*%
%ADD022O,0.05118X0.07874*%
%ADD032C,0.06*%
%ADD033R,0.06X0.06*%
%ADD039C,0.00394*%
%ADD041C,0.15748*%
%ADD042C,0.10236*%
%ADD045C,0.06493*%
*
*
*
*
G04 PC Circuitry*
G04 Layer Name LDC_HW_REV001.pcb - circuitry*
%LPD*%
*
*
G04 PC Custom Flashes*
G04 Layer Name LDC_HW_REV001.pcb - flashes*
%LPD*%
*
*
G04 PC Circuitry*
G04 Layer Name LDC_HW_REV001.pcb - circuitry*
%LPD*%
*
G54D10*
G54D12*
G01X407874Y465551D03*
X323031Y400984D03*
X322835Y378937D03*
X369094Y465748D03*
G54D18*
X408071Y330512D03*
X451969Y401969D03*
G54D19*
X403071Y330512D03*
X398071D03*
X393071D03*
Y325512D03*
X398071D03*
X403071D03*
X408071D03*
X451969Y396969D03*
Y391969D03*
Y386969D03*
Y381969D03*
Y376969D03*
X456969D03*
Y381969D03*
Y386969D03*
Y391969D03*
Y396969D03*
Y401969D03*
G54D22*
X350394Y333465D03*
X376772D03*
X350394Y350591D03*
X376772D03*
G54D32*
X334646Y454331D03*
X452756D03*
X334646Y333071D03*
X452756D03*
X428937Y450197D03*
X438780D03*
G54D33*
X419094D03*
G54D39*
X478346Y393701D02*
G75*
G03X478346I-84645J0D01*
G54D41*
G01X411417Y382480D03*
G54D42*
X352953Y377165D03*
G54D45*
X397874Y465551D03*
X323031Y390984D03*
X322835Y368937D03*
X379094Y465748D03*
G74*
X0Y0D02*
M02*
